<svg width="28" height="28" viewBox="0 0 28 28" fill="none" xmlns="http://www.w3.org/2000/svg">
<path d="M24.6609 12.5744C24.867 12.4834 25.0419 12.334 25.1639 12.1447C25.286 11.9553 25.3498 11.7344 25.3475 11.5091C25.3451 11.2838 25.2768 11.0642 25.1508 10.8774C25.0249 10.6906 24.847 10.5449 24.639 10.4582L14.7711 5.96351C14.4711 5.82667 14.1452 5.75586 13.8155 5.75586C13.4858 5.75586 13.1599 5.82667 12.8599 5.96351L2.99314 10.4536C2.78817 10.5434 2.6138 10.691 2.49136 10.8783C2.36892 11.0656 2.30371 11.2845 2.30371 11.5082C2.30371 11.732 2.36892 11.9509 2.49136 12.1382C2.6138 12.3255 2.78817 12.4731 2.99314 12.5628L12.8599 17.0622C13.1599 17.199 13.4858 17.2698 13.8155 17.2698C14.1452 17.2698 14.4711 17.199 14.7711 17.0622L24.6609 12.5744Z" stroke="white" stroke-width="2.30263" stroke-linecap="round" stroke-linejoin="round"/>
<path d="M25.3289 11.5127V18.4206" stroke="white" stroke-width="2.30263" stroke-linecap="round" stroke-linejoin="round"/>
<path d="M6.90796 14.3916V18.4212C6.90796 19.3373 7.63575 20.2158 8.93123 20.8635C10.2267 21.5113 11.9838 21.8752 13.8159 21.8752C15.6479 21.8752 17.405 21.5113 18.7005 20.8635C19.996 20.2158 20.7237 19.3373 20.7237 18.4212V14.3916" stroke="white" stroke-width="2.30263" stroke-linecap="round" stroke-linejoin="round"/>
</svg>
