<svg width="38" height="38" viewBox="0 0 38 38" fill="none" xmlns="http://www.w3.org/2000/svg">
<path d="M19 28.4993V7.91602" stroke="#008C8C" stroke-width="3.28947" stroke-linecap="round" stroke-linejoin="round"/>
<path d="M23.7502 20.5833C22.3803 20.1829 21.1771 19.3493 20.3207 18.2075C19.4644 17.0658 19.0011 15.6772 19.0002 14.25C18.9994 15.6772 18.5361 17.0658 17.6797 18.2075C16.8234 19.3493 15.6201 20.1829 14.2502 20.5833" stroke="#008C8C" stroke-width="3.28947" stroke-linecap="round" stroke-linejoin="round"/>
<path d="M27.8635 10.2912C28.2278 9.66025 28.4421 8.95391 28.4898 8.22686C28.5375 7.49982 28.4173 6.77154 28.1385 6.09839C27.8597 5.42523 27.4297 4.82524 26.8819 4.34482C26.3342 3.86441 25.6832 3.51645 24.9794 3.32787C24.2756 3.13929 23.5379 3.11514 22.8233 3.25729C22.1087 3.39944 21.4363 3.70408 20.8583 4.14765C20.2803 4.59121 19.812 5.1618 19.4898 5.81528C19.1676 6.46876 19 7.18761 19 7.91622C19 7.18761 18.8324 6.46876 18.5102 5.81528C18.188 5.1618 17.7197 4.59121 17.1417 4.14765C16.5637 3.70408 15.8913 3.39944 15.1767 3.25729C14.4621 3.11514 13.7244 3.13929 13.0206 3.32787C12.3168 3.51645 11.6658 3.86441 11.1181 4.34482C10.5703 4.82524 10.1403 5.42523 9.86152 6.09839C9.58271 6.77154 9.4625 7.49982 9.51018 8.22686C9.55786 8.95391 9.77216 9.66025 10.1365 10.2912" stroke="#008C8C" stroke-width="3.28947" stroke-linecap="round" stroke-linejoin="round"/>
<path d="M28.4956 8.11523C29.4263 8.35453 30.2903 8.80248 31.0222 9.42514C31.7542 10.0478 32.3348 10.8289 32.7202 11.7092C33.1056 12.5895 33.2856 13.5459 33.2466 14.5061C33.2076 15.4662 32.9506 16.4049 32.4951 17.2511" stroke="#008C8C" stroke-width="3.28947" stroke-linecap="round" stroke-linejoin="round"/>
<path d="M28.5 28.4996C29.8941 28.4996 31.2493 28.0395 32.3553 27.1908C33.4613 26.3421 34.2564 25.1521 34.6172 23.8055C34.9781 22.4589 34.8845 21.0308 34.351 19.7428C33.8175 18.4548 32.874 17.3788 31.6667 16.6816" stroke="#008C8C" stroke-width="3.28947" stroke-linecap="round" stroke-linejoin="round"/>
<path d="M31.6146 27.6816C31.7255 28.5402 31.6593 29.4124 31.42 30.2443C31.1807 31.0763 30.7734 31.8503 30.2232 32.5187C29.673 33.187 28.9916 33.7355 28.2211 34.1302C27.4507 34.5249 26.6075 34.7574 25.7436 34.8135C24.8797 34.8696 24.0136 34.7479 23.1985 34.4561C22.3835 34.1643 21.637 33.7085 21.005 33.1168C20.3731 32.5252 19.8691 31.8103 19.5243 31.0162C19.1795 30.2222 19.0011 29.3659 19.0002 28.5002C18.9992 29.3659 18.8208 30.2222 18.476 31.0162C18.1312 31.8103 17.6272 32.5252 16.9953 33.1168C16.3633 33.7085 15.6168 34.1643 14.8018 34.4561C13.9868 34.7479 13.1206 34.8696 12.2567 34.8135C11.3928 34.7574 10.5496 34.5249 9.77917 34.1302C9.00871 33.7355 8.32734 33.187 7.77715 32.5187C7.22696 31.8503 6.81963 31.0763 6.58031 30.2443C6.341 29.4124 6.27478 28.5402 6.38574 27.6816" stroke="#008C8C" stroke-width="3.28947" stroke-linecap="round" stroke-linejoin="round"/>
<path d="M9.50005 28.4996C8.10592 28.4996 6.75076 28.0395 5.64474 27.1908C4.53871 26.3421 3.74364 25.1521 3.3828 23.8055C3.02197 22.4589 3.11555 21.0308 3.64903 19.7428C4.1825 18.4548 5.12606 17.3788 6.33338 16.6816" stroke="#008C8C" stroke-width="3.28947" stroke-linecap="round" stroke-linejoin="round"/>
<path d="M9.50496 8.11523C8.57428 8.35453 7.71026 8.80248 6.97833 9.42514C6.2464 10.0478 5.66576 10.8289 5.28038 11.7092C4.89501 12.5895 4.715 13.5459 4.754 14.5061C4.79299 15.4662 5.04997 16.4049 5.50546 17.2511" stroke="#008C8C" stroke-width="3.28947" stroke-linecap="round" stroke-linejoin="round"/>
</svg>
