<svg width="38" height="38" viewBox="0 0 38 38" fill="none" xmlns="http://www.w3.org/2000/svg">
<path d="M34.8329 18.9993H30.9063C30.2143 18.9979 29.5409 19.2231 28.989 19.6405C28.4372 20.058 28.0373 20.6447 27.8504 21.311L24.1296 34.5477C24.1056 34.6299 24.0556 34.7021 23.9871 34.7535C23.9186 34.8049 23.8352 34.8327 23.7496 34.8327C23.6639 34.8327 23.5806 34.8049 23.5121 34.7535C23.4436 34.7021 23.3936 34.6299 23.3696 34.5477L14.6296 3.45102C14.6056 3.3688 14.5556 3.29657 14.4871 3.24518C14.4186 3.19379 14.3352 3.16602 14.2496 3.16602C14.1639 3.16602 14.0806 3.19379 14.0121 3.24518C13.9436 3.29657 13.8936 3.3688 13.8696 3.45102L10.1488 16.6877C9.96266 17.3513 9.56511 17.9362 9.01646 18.3534C8.46781 18.7706 7.79802 18.9974 7.10876 18.9993H3.16626" stroke="#008C8C" stroke-width="3.28947" stroke-linecap="round" stroke-linejoin="round"/>
</svg>
