<svg width="40" height="40" viewBox="0 0 40 40" fill="none" xmlns="http://www.w3.org/2000/svg">
<path d="M36.1839 19.7364H32.105C31.3862 19.7349 30.6867 19.9688 30.1134 20.4025C29.5401 20.8362 29.1247 21.4456 28.9306 22.1377L25.0655 35.8877C25.0406 35.9732 24.9886 36.0482 24.9175 36.1016C24.8463 36.1549 24.7597 36.1838 24.6708 36.1838C24.5818 36.1838 24.4952 36.1549 24.4241 36.1016C24.3529 36.0482 24.3009 35.9732 24.276 35.8877L15.1971 3.58512C15.1722 3.49971 15.1202 3.42468 15.0491 3.3713C14.9779 3.31792 14.8913 3.28906 14.8023 3.28906C14.7134 3.28906 14.6268 3.31792 14.5556 3.3713C14.4845 3.42468 14.4325 3.49971 14.4076 3.58512L10.5425 17.3351C10.3492 18.0245 9.93619 18.632 9.36626 19.0654C8.79633 19.4988 8.10057 19.7344 7.38458 19.7364H3.28918" stroke="#223F7F" stroke-width="3.28947" stroke-linecap="round" stroke-linejoin="round"/>
</svg>
