<svg width="40" height="40" viewBox="0 0 40 40" fill="none" xmlns="http://www.w3.org/2000/svg">
<path d="M18.0923 3.28906V6.57854" stroke="#223F7F" stroke-width="3.28947" stroke-linecap="round" stroke-linejoin="round"/>
<path d="M8.22388 3.28906V6.57854" stroke="#223F7F" stroke-width="3.28947" stroke-linecap="round" stroke-linejoin="round"/>
<path d="M8.22352 4.93408H6.57878C5.70636 4.93408 4.86967 5.28065 4.25277 5.89755C3.63588 6.51444 3.28931 7.35113 3.28931 8.22356V14.8025C3.28931 17.4198 4.32901 19.9298 6.1797 21.7805C8.03039 23.6312 10.5405 24.6709 13.1577 24.6709C15.775 24.6709 18.2851 23.6312 20.1358 21.7805C21.9864 19.9298 23.0261 17.4198 23.0261 14.8025V8.22356C23.0261 7.35113 22.6796 6.51444 22.0627 5.89755C21.4458 5.28065 20.6091 4.93408 19.7367 4.93408H18.0919" stroke="#223F7F" stroke-width="3.28947" stroke-linecap="round" stroke-linejoin="round"/>
<path d="M13.1577 24.671C13.1577 27.2883 14.1974 29.7984 16.0481 31.6491C17.8988 33.4997 20.4089 34.5394 23.0261 34.5394C25.6434 34.5394 28.1535 33.4997 30.0042 31.6491C31.8549 29.7984 32.8946 27.2883 32.8946 24.671V19.7368" stroke="#223F7F" stroke-width="3.28947" stroke-linecap="round" stroke-linejoin="round"/>
<path d="M32.8947 19.7367C34.7114 19.7367 36.1842 18.2639 36.1842 16.4472C36.1842 14.6305 34.7114 13.1577 32.8947 13.1577C31.078 13.1577 29.6052 14.6305 29.6052 16.4472C29.6052 18.2639 31.078 19.7367 32.8947 19.7367Z" stroke="#223F7F" stroke-width="3.28947" stroke-linecap="round" stroke-linejoin="round"/>
</svg>
