<svg width="38" height="38" viewBox="0 0 38 38" fill="none" xmlns="http://www.w3.org/2000/svg">
<path d="M17.4167 3.16602V6.33268" stroke="#008C8C" stroke-width="3.28947" stroke-linecap="round" stroke-linejoin="round"/>
<path d="M7.91675 3.16602V6.33268" stroke="#008C8C" stroke-width="3.28947" stroke-linecap="round" stroke-linejoin="round"/>
<path d="M7.9165 4.75H6.33317C5.49332 4.75 4.68786 5.08363 4.094 5.6775C3.50013 6.27136 3.1665 7.07681 3.1665 7.91667V14.25C3.1665 16.7696 4.16739 19.1859 5.94899 20.9675C7.73059 22.7491 10.1469 23.75 12.6665 23.75C15.1861 23.75 17.6024 22.7491 19.384 20.9675C21.1656 19.1859 22.1665 16.7696 22.1665 14.25V7.91667C22.1665 7.07681 21.8329 6.27136 21.239 5.6775C20.6451 5.08363 19.8397 4.75 18.9998 4.75H17.4165" stroke="#008C8C" stroke-width="3.28947" stroke-linecap="round" stroke-linejoin="round"/>
<path d="M12.6665 23.75C12.6665 26.2696 13.6674 28.6859 15.449 30.4675C17.2306 32.2491 19.6469 33.25 22.1665 33.25C24.6861 33.25 27.1024 32.2491 28.884 30.4675C30.6656 28.6859 31.6665 26.2696 31.6665 23.75V19" stroke="#008C8C" stroke-width="3.28947" stroke-linecap="round" stroke-linejoin="round"/>
<path d="M31.6667 18.9993C33.4156 18.9993 34.8333 17.5816 34.8333 15.8327C34.8333 14.0838 33.4156 12.666 31.6667 12.666C29.9178 12.666 28.5 14.0838 28.5 15.8327C28.5 17.5816 29.9178 18.9993 31.6667 18.9993Z" stroke="#008C8C" stroke-width="3.28947" stroke-linecap="round" stroke-linejoin="round"/>
</svg>
