<svg width="40" height="40" viewBox="0 0 40 40" fill="none" xmlns="http://www.w3.org/2000/svg">
<path d="M26.3159 34.5398V31.2503C26.3159 29.5055 25.6227 27.8321 24.3889 26.5983C23.1551 25.3645 21.4818 24.6714 19.7369 24.6714H9.8685C8.12365 24.6714 6.45027 25.3645 5.21648 26.5983C3.98269 27.8321 3.28955 29.5055 3.28955 31.2503V34.5398" stroke="#223F7F" stroke-width="3.28947" stroke-linecap="round" stroke-linejoin="round"/>
<path d="M26.3157 5.14502C27.7265 5.51076 28.9759 6.3346 29.8678 7.48723C30.7597 8.63986 31.2436 10.056 31.2436 11.5134C31.2436 12.9709 30.7597 14.387 29.8678 15.5397C28.9759 16.6923 27.7265 17.5161 26.3157 17.8819" stroke="#223F7F" stroke-width="3.28947" stroke-linecap="round" stroke-linejoin="round"/>
<path d="M36.1849 34.5394V31.2499C36.1839 29.7922 35.6987 28.3762 34.8056 27.2241C33.9125 26.072 32.6621 25.2492 31.2507 24.8848" stroke="#223F7F" stroke-width="3.28947" stroke-linecap="round" stroke-linejoin="round"/>
<path d="M14.8026 18.0925C18.436 18.0925 21.3815 15.147 21.3815 11.5135C21.3815 7.88007 18.436 4.93457 14.8026 4.93457C11.1691 4.93457 8.22363 7.88007 8.22363 11.5135C8.22363 15.147 11.1691 18.0925 14.8026 18.0925Z" stroke="#223F7F" stroke-width="3.28947" stroke-linecap="round" stroke-linejoin="round"/>
</svg>
