<svg width="16" height="16" viewBox="0 0 16 16" fill="none" xmlns="http://www.w3.org/2000/svg">
<path d="M10.0416 8.36328L11.0245 13.8949C11.0355 13.96 11.0264 14.0269 10.9983 14.0867C10.9702 14.1465 10.9246 14.1963 10.8674 14.2295C10.8103 14.2627 10.7444 14.2776 10.6786 14.2723C10.6127 14.267 10.5501 14.2417 10.499 14.1998L8.1763 12.4565C8.06417 12.3727 7.92796 12.3275 7.788 12.3275C7.64804 12.3275 7.51183 12.3727 7.3997 12.4565L5.07314 14.1991C5.0221 14.2409 4.95952 14.2662 4.89375 14.2715C4.82798 14.2768 4.76216 14.262 4.70506 14.2289C4.64796 14.1958 4.6023 14.1461 4.57417 14.0865C4.54604 14.0268 4.53678 13.9599 4.54762 13.8949L5.52989 8.36328" stroke="#223F7F" stroke-width="1.29758" stroke-linecap="round" stroke-linejoin="round"/>
<path d="M7.7858 9.08234C9.9357 9.08234 11.6785 7.33951 11.6785 5.18961C11.6785 3.03971 9.9357 1.29688 7.7858 1.29688C5.6359 1.29688 3.89307 3.03971 3.89307 5.18961C3.89307 7.33951 5.6359 9.08234 7.7858 9.08234Z" stroke="#223F7F" stroke-width="1.29758" stroke-linecap="round" stroke-linejoin="round"/>
</svg>
