<svg width="24" height="24" viewBox="0 0 24 24" fill="none" xmlns="http://www.w3.org/2000/svg">
<path d="M9.86897 14.4668V16.0714C9.86525 16.4095 9.77471 16.741 9.60606 17.0341C9.4374 17.3272 9.19628 17.572 8.90582 17.7451C8.28918 18.2018 7.78756 18.7961 7.44083 19.4806C7.0941 20.1652 6.91181 20.9212 6.90845 21.6885" stroke="white" stroke-width="1.97368" stroke-linecap="round" stroke-linejoin="round"/>
<path d="M13.8167 14.4668V16.0714C13.8204 16.4095 13.9109 16.741 14.0796 17.0341C14.2482 17.3272 14.4893 17.572 14.7798 17.7451C15.3964 18.2018 15.8981 18.7961 16.2448 19.4806C16.5915 20.1652 16.7738 20.9212 16.7772 21.6885" stroke="white" stroke-width="1.97368" stroke-linecap="round" stroke-linejoin="round"/>
<path d="M17.7639 8.88148H19.2442C19.8985 8.88148 20.526 8.62155 20.9887 8.15888C21.4514 7.69621 21.7113 7.06869 21.7113 6.41437C21.7113 5.76005 21.4514 5.13254 20.9887 4.66986C20.526 4.20719 19.8985 3.94727 19.2442 3.94727H17.7639" stroke="white" stroke-width="1.97368" stroke-linecap="round" stroke-linejoin="round"/>
<path d="M3.94775 21.7109H19.7372" stroke="white" stroke-width="1.97368" stroke-linecap="round" stroke-linejoin="round"/>
<path d="M5.9209 8.88055C5.9209 10.4509 6.54472 11.957 7.65513 13.0674C8.76555 14.1778 10.2716 14.8016 11.842 14.8016C13.4123 14.8016 14.9184 14.1778 16.0288 13.0674C17.1392 11.957 17.763 10.4509 17.763 8.88055V2.9595C17.763 2.69777 17.659 2.44676 17.474 2.2617C17.2889 2.07663 17.0379 1.97266 16.7762 1.97266H6.90774C6.64601 1.97266 6.39501 2.07663 6.20994 2.2617C6.02487 2.44676 5.9209 2.69777 5.9209 2.9595V8.88055Z" stroke="white" stroke-width="1.97368" stroke-linecap="round" stroke-linejoin="round"/>
<path d="M5.92076 8.88148H4.44049C3.78618 8.88148 3.15866 8.62155 2.69599 8.15888C2.23332 7.69621 1.97339 7.06869 1.97339 6.41437C1.97339 5.76005 2.23332 5.13254 2.69599 4.66986C3.15866 4.20719 3.78618 3.94727 4.44049 3.94727H5.92076" stroke="white" stroke-width="1.97368" stroke-linecap="round" stroke-linejoin="round"/>
</svg>
