<svg width="28" height="28" viewBox="0 0 28 28" fill="none" xmlns="http://www.w3.org/2000/svg">
<path d="M13.8159 8.05859V24.177" stroke="white" stroke-width="2.30263" stroke-linecap="round" stroke-linejoin="round"/>
<path d="M3.45429 20.7238C3.14895 20.7238 2.8561 20.6025 2.64019 20.3866C2.42428 20.1707 2.30298 19.8779 2.30298 19.5725V4.60542C2.30298 4.30007 2.42428 4.00723 2.64019 3.79131C2.8561 3.5754 3.14895 3.4541 3.45429 3.4541H9.21087C10.4323 3.4541 11.6036 3.9393 12.4673 4.80295C13.3309 5.66661 13.8161 6.83797 13.8161 8.05936C13.8161 6.83797 14.3013 5.66661 15.165 4.80295C16.0286 3.9393 17.2 3.4541 18.4214 3.4541H24.178C24.4833 3.4541 24.7762 3.5754 24.9921 3.79131C25.208 4.00723 25.3293 4.30007 25.3293 4.60542V19.5725C25.3293 19.8779 25.208 20.1707 24.9921 20.3866C24.7762 20.6025 24.4833 20.7238 24.178 20.7238H17.2701C16.354 20.7238 15.4755 21.0877 14.8278 21.7355C14.18 22.3832 13.8161 23.2617 13.8161 24.1778C13.8161 23.2617 13.4522 22.3832 12.8045 21.7355C12.1568 21.0877 11.2782 20.7238 10.3622 20.7238H3.45429Z" stroke="white" stroke-width="2.30263" stroke-linecap="round" stroke-linejoin="round"/>
</svg>
