<svg width="38" height="38" viewBox="0 0 38 38" fill="none" xmlns="http://www.w3.org/2000/svg">
<path d="M25.3334 33.25V30.0833C25.3334 28.4036 24.6662 26.7927 23.4784 25.605C22.2907 24.4173 20.6798 23.75 19.0001 23.75H9.50008C7.82038 23.75 6.20947 24.4173 5.02174 25.605C3.83401 26.7927 3.16675 28.4036 3.16675 30.0833V33.25" stroke="#008C8C" stroke-width="3.28947" stroke-linecap="round" stroke-linejoin="round"/>
<path d="M25.3333 4.95312C26.6914 5.30521 27.8941 6.09829 28.7527 7.20789C29.6114 8.31749 30.0772 9.68078 30.0772 11.0838C30.0772 12.4868 29.6114 13.8501 28.7527 14.9597C27.8941 16.0693 26.6914 16.8624 25.3333 17.2145" stroke="#008C8C" stroke-width="3.28947" stroke-linecap="round" stroke-linejoin="round"/>
<path d="M34.834 33.2492V30.0826C34.8329 28.6793 34.3659 27.3161 33.5061 26.2071C32.6464 25.098 31.4427 24.3059 30.084 23.9551" stroke="#008C8C" stroke-width="3.28947" stroke-linecap="round" stroke-linejoin="round"/>
<path d="M14.2498 17.4167C17.7476 17.4167 20.5832 14.5811 20.5832 11.0833C20.5832 7.58553 17.7476 4.75 14.2498 4.75C10.752 4.75 7.9165 7.58553 7.9165 11.0833C7.9165 14.5811 10.752 17.4167 14.2498 17.4167Z" stroke="#008C8C" stroke-width="3.28947" stroke-linecap="round" stroke-linejoin="round"/>
</svg>
