<svg width="28" height="28" viewBox="0 0 28 28" fill="none" xmlns="http://www.w3.org/2000/svg">
<path d="M13.8159 8.06055V12.6658" stroke="white" stroke-width="2.30263" stroke-linecap="round" stroke-linejoin="round"/>
<path d="M16.1184 24.1785V20.7245C16.1184 20.1138 15.8758 19.5281 15.444 19.0963C15.0122 18.6645 14.4265 18.4219 13.8158 18.4219C13.2051 18.4219 12.6194 18.6645 12.1876 19.0963C11.7558 19.5281 11.5132 20.1138 11.5132 20.7245V24.1785" stroke="white" stroke-width="2.30263" stroke-linecap="round" stroke-linejoin="round"/>
<path d="M16.1184 10.3613H11.5132" stroke="white" stroke-width="2.30263" stroke-linecap="round" stroke-linejoin="round"/>
<path d="M20.7238 12.6649H23.0264C23.6371 12.6649 24.2228 12.9075 24.6546 13.3393C25.0864 13.7711 25.329 14.3568 25.329 14.9675V21.8754C25.329 22.4861 25.0864 23.0718 24.6546 23.5036C24.2228 23.9354 23.6371 24.178 23.0264 24.178H4.60537C3.99467 24.178 3.40899 23.9354 2.97716 23.5036C2.54533 23.0718 2.30273 22.4861 2.30273 21.8754V11.5136C2.30273 10.9029 2.54533 10.3172 2.97716 9.88536C3.40899 9.45354 3.99467 9.21094 4.60537 9.21094H6.908" stroke="white" stroke-width="2.30263" stroke-linecap="round" stroke-linejoin="round"/>
<path d="M20.724 24.1768V5.75576C20.724 5.14506 20.4814 4.55938 20.0496 4.12755C19.6177 3.69572 19.0321 3.45313 18.4214 3.45312H9.21083C8.60014 3.45313 8.01446 3.69572 7.58263 4.12755C7.1508 4.55938 6.9082 5.14506 6.9082 5.75576V24.1768" stroke="white" stroke-width="2.30263" stroke-linecap="round" stroke-linejoin="round"/>
</svg>
