<svg width="20" height="20" viewBox="0 0 20 20" fill="none" xmlns="http://www.w3.org/2000/svg">
<path d="M16.4477 8.22348C16.4477 12.3296 11.8926 16.6059 10.363 17.9266C10.2205 18.0338 10.047 18.0917 9.86874 18.0917C9.69045 18.0917 9.517 18.0338 9.3745 17.9266C7.84489 16.6059 3.28979 12.3296 3.28979 8.22348C3.28979 6.47863 3.98293 4.80525 5.21672 3.57146C6.45052 2.33767 8.1239 1.64453 9.86874 1.64453C11.6136 1.64453 13.287 2.33767 14.5208 3.57146C15.7546 4.80525 16.4477 6.47863 16.4477 8.22348Z" stroke="#191919" stroke-width="1.64474" stroke-linecap="round" stroke-linejoin="round"/>
<path d="M9.86847 10.6901C11.231 10.6901 12.3356 9.58551 12.3356 8.22296C12.3356 6.86042 11.231 5.75586 9.86847 5.75586C8.50593 5.75586 7.40137 6.86042 7.40137 8.22296C7.40137 9.58551 8.50593 10.6901 9.86847 10.6901Z" stroke="#191919" stroke-width="1.64474" stroke-linecap="round" stroke-linejoin="round"/>
</svg>
