<svg width="40" height="40" viewBox="0 0 40 40" fill="none" xmlns="http://www.w3.org/2000/svg">
<path d="M3.28918 15.6254C3.28922 13.7951 3.84444 12.0079 4.88151 10.4998C5.91858 8.99171 7.38872 7.83367 9.09775 7.17864C10.8068 6.52361 12.6743 6.4024 14.4537 6.83102C16.233 7.25964 17.8405 8.21792 19.0639 9.5793C19.15 9.67143 19.2542 9.74488 19.3699 9.79509C19.4856 9.84531 19.6104 9.87122 19.7366 9.87122C19.8627 9.87122 19.9875 9.84531 20.1032 9.79509C20.2189 9.74488 20.3231 9.67143 20.4093 9.5793C21.6287 8.20907 23.2366 7.24274 25.0188 6.80891C26.8011 6.37508 28.6732 6.49435 30.386 7.15082C32.0988 7.8073 33.5711 8.96985 34.6068 10.4837C35.6426 11.9976 36.1927 13.7911 36.1839 15.6254C36.1839 19.3918 33.7168 22.2043 31.2497 24.6714L22.2168 33.4099C21.9103 33.7619 21.5325 34.0446 21.1083 34.2393C20.6842 34.4341 20.2235 34.5363 19.7568 34.5392C19.2901 34.5422 18.8281 34.4458 18.4015 34.2565C17.9749 34.0672 17.5935 33.7892 17.2826 33.4411L8.2234 24.6714C5.75629 22.2043 3.28918 19.4082 3.28918 15.6254Z" stroke="#223F7F" stroke-width="3.28947" stroke-linecap="round" stroke-linejoin="round"/>
</svg>
