<svg width="28" height="28" viewBox="0 0 28 28" fill="none" xmlns="http://www.w3.org/2000/svg">
<path d="M2.30249 10.9377C2.30251 9.65657 2.69117 8.40553 3.41712 7.34986C4.14307 6.2942 5.17216 5.48357 6.36849 5.02505C7.56481 4.56653 8.87208 4.48168 10.1176 4.78171C11.3632 5.08175 12.4884 5.75254 13.3448 6.70551C13.4051 6.77 13.478 6.82141 13.559 6.85656C13.64 6.89171 13.7273 6.90985 13.8156 6.90985C13.9039 6.90985 13.9913 6.89171 14.0723 6.85656C14.1533 6.82141 14.2262 6.77 14.2865 6.70551C15.1402 5.74635 16.2657 5.06992 17.5133 4.76624C18.7608 4.46256 20.0713 4.54604 21.2703 5.00557C22.4692 5.46511 23.4998 6.27889 24.2248 7.33862C24.9498 8.39835 25.3349 9.65376 25.3288 10.9377C25.3288 13.5743 23.6018 15.543 21.8749 17.27L15.5518 23.3869C15.3373 23.6333 15.0728 23.8312 14.7759 23.9675C14.479 24.1038 14.1565 24.1754 13.8298 24.1775C13.5031 24.1795 13.1797 24.1121 12.8811 23.9795C12.5825 23.847 12.3155 23.6525 12.0979 23.4088L5.75644 17.27C4.02946 15.543 2.30249 13.5858 2.30249 10.9377Z" stroke="white" stroke-width="2.30263" stroke-linecap="round" stroke-linejoin="round"/>
</svg>
