<svg width="28" height="28" viewBox="0 0 28 28" fill="none" xmlns="http://www.w3.org/2000/svg">
<path d="M17.8197 14.8398L19.5639 24.656C19.5834 24.7715 19.5672 24.8903 19.5174 24.9965C19.4676 25.1026 19.3866 25.191 19.2852 25.2498C19.1838 25.3086 19.0669 25.3351 18.95 25.3257C18.8332 25.3163 18.722 25.2714 18.6313 25.1971L14.5096 22.1035C14.3107 21.9548 14.0689 21.8745 13.8206 21.8745C13.5722 21.8745 13.3305 21.9548 13.1315 22.1035L9.00289 25.1959C8.91231 25.2701 8.80125 25.3149 8.68455 25.3243C8.56784 25.3338 8.45104 25.3074 8.34971 25.2487C8.24838 25.1901 8.16735 25.1019 8.11744 24.996C8.06752 24.8901 8.05109 24.7715 8.07033 24.656L9.81342 14.8398" stroke="white" stroke-width="2.30263" stroke-linecap="round" stroke-linejoin="round"/>
<path d="M13.8163 16.1185C17.6315 16.1185 20.7242 13.0258 20.7242 9.21063C20.7242 5.3955 17.6315 2.30273 13.8163 2.30273C10.0012 2.30273 6.90845 5.3955 6.90845 9.21063C6.90845 13.0258 10.0012 16.1185 13.8163 16.1185Z" stroke="white" stroke-width="2.30263" stroke-linecap="round" stroke-linejoin="round"/>
</svg>
