<svg width="26" height="25" viewBox="0 0 26 25" fill="none" xmlns="http://www.w3.org/2000/svg">
<path d="M12.1197 1.48991C12.1702 1.38797 12.2481 1.30216 12.3447 1.24217C12.4414 1.18218 12.5529 1.15039 12.6666 1.15039C12.7803 1.15039 12.8918 1.18218 12.9884 1.24217C13.0851 1.30216 13.163 1.38797 13.2135 1.48991L15.873 6.87691C16.0482 7.23148 16.3068 7.53824 16.6267 7.77086C16.9465 8.00347 17.3181 8.155 17.7094 8.21244L23.6571 9.08283C23.7698 9.09916 23.8756 9.1467 23.9627 9.22007C24.0498 9.29344 24.1146 9.38971 24.1498 9.49801C24.1851 9.6063 24.1893 9.72228 24.162 9.83284C24.1347 9.9434 24.0771 10.0441 23.9955 10.1236L19.6942 14.3121C19.4106 14.5885 19.1983 14.9298 19.0758 15.3064C18.9532 15.6831 18.9241 16.0839 18.9908 16.4743L20.0062 22.392C20.0261 22.5047 20.014 22.6207 19.9711 22.7267C19.9283 22.8328 19.8565 22.9247 19.7639 22.9919C19.6714 23.0591 19.5618 23.0989 19.4477 23.1069C19.3336 23.1148 19.2195 23.0905 19.1186 23.0368L13.8018 20.2414C13.4515 20.0574 13.0617 19.9613 12.666 19.9613C12.2703 19.9613 11.8806 20.0574 11.5302 20.2414L6.21462 23.0368C6.11369 23.0902 5.99978 23.1142 5.88587 23.1062C5.77195 23.0981 5.66259 23.0582 5.57023 22.991C5.47786 22.9238 5.40621 22.8321 5.36341 22.7262C5.3206 22.6203 5.30837 22.5045 5.32811 22.392L6.34242 16.4754C6.40942 16.0848 6.38039 15.6838 6.25784 15.3069C6.13529 14.93 5.92289 14.5886 5.63897 14.3121L1.33765 10.1248C1.25544 10.0454 1.19718 9.94447 1.16951 9.83358C1.14185 9.72268 1.14588 9.60624 1.18116 9.49753C1.21644 9.38881 1.28154 9.29219 1.36905 9.21867C1.45657 9.14515 1.56297 9.09768 1.67614 9.08168L7.62268 8.21244C8.01443 8.15545 8.38645 8.00412 8.70674 7.77147C9.02703 7.53882 9.28599 7.23183 9.46133 6.87691L12.1197 1.48991Z" stroke="white" stroke-width="2.30263" stroke-linecap="round" stroke-linejoin="round"/>
</svg>
