<svg width="40" height="40" viewBox="0 0 40 40" fill="none" xmlns="http://www.w3.org/2000/svg">
<path d="M9.86816 29.605H23.0261" stroke="#223F7F" stroke-width="3.28947" stroke-linecap="round" stroke-linejoin="round"/>
<path d="M4.93433 36.1841H34.5396" stroke="#223F7F" stroke-width="3.28947" stroke-linecap="round" stroke-linejoin="round"/>
<path d="M23.0266 36.184C26.0801 36.184 29.0085 34.971 31.1676 32.8119C33.3267 30.6528 34.5397 27.7244 34.5397 24.6709C34.5397 21.6174 33.3267 18.689 31.1676 16.5298C29.0085 14.3707 26.0801 13.1577 23.0266 13.1577H21.3818" stroke="#223F7F" stroke-width="3.28947" stroke-linecap="round" stroke-linejoin="round"/>
<path d="M14.8032 23.0259H18.0927" stroke="#223F7F" stroke-width="3.28947" stroke-linecap="round" stroke-linejoin="round"/>
<path d="M14.8034 19.7366C13.931 19.7366 13.0943 19.39 12.4774 18.7731C11.8605 18.1562 11.5139 17.3195 11.5139 16.4471V9.86816H21.3823V16.4471C21.3823 17.3195 21.0358 18.1562 20.4189 18.7731C19.802 19.39 18.9653 19.7366 18.0929 19.7366H14.8034Z" stroke="#223F7F" stroke-width="3.28947" stroke-linecap="round" stroke-linejoin="round"/>
<path d="M19.7374 9.86801V4.9338C19.7374 4.49759 19.5641 4.07924 19.2557 3.77079C18.9472 3.46235 18.5289 3.28906 18.0927 3.28906H14.8032C14.367 3.28906 13.9486 3.46235 13.6402 3.77079C13.3317 4.07924 13.1584 4.49759 13.1584 4.9338V9.86801" stroke="#223F7F" stroke-width="3.28947" stroke-linecap="round" stroke-linejoin="round"/>
</svg>
