<svg width="28" height="28" viewBox="0 0 28 28" fill="none" xmlns="http://www.w3.org/2000/svg">
<path d="M17.8194 14.8398L19.5637 24.656C19.5832 24.7715 19.567 24.8903 19.5172 24.9965C19.4674 25.1026 19.3864 25.191 19.285 25.2498C19.1836 25.3086 19.0666 25.3351 18.9498 25.3257C18.8329 25.3163 18.7218 25.2714 18.6311 25.1971L14.5094 22.1035C14.3104 21.9548 14.0687 21.8745 13.8203 21.8745C13.572 21.8745 13.3302 21.9548 13.1313 22.1035L9.00265 25.1959C8.91206 25.2701 8.80101 25.3149 8.6843 25.3243C8.5676 25.3338 8.45079 25.3074 8.34946 25.2487C8.24814 25.1901 8.16711 25.1019 8.11719 24.996C8.06728 24.8901 8.05084 24.7715 8.07008 24.656L9.81317 14.8398" stroke="white" stroke-width="2.30263" stroke-linecap="round" stroke-linejoin="round"/>
<path d="M13.8161 16.1185C17.6312 16.1185 20.724 13.0258 20.724 9.21063C20.724 5.3955 17.6312 2.30273 13.8161 2.30273C10.001 2.30273 6.9082 5.3955 6.9082 9.21063C6.9082 13.0258 10.001 16.1185 13.8161 16.1185Z" stroke="white" stroke-width="2.30263" stroke-linecap="round" stroke-linejoin="round"/>
</svg>
