<svg width="28" height="28" viewBox="0 0 28 28" fill="none" xmlns="http://www.w3.org/2000/svg">
<path d="M11.5129 13.8164H16.1182" stroke="white" stroke-width="2.30263" stroke-linecap="round" stroke-linejoin="round"/>
<path d="M11.5129 9.21094H16.1182" stroke="white" stroke-width="2.30263" stroke-linecap="round" stroke-linejoin="round"/>
<path d="M16.1182 24.1785V20.7245C16.1182 20.1138 15.8756 19.5281 15.4438 19.0963C15.0119 18.6645 14.4263 18.4219 13.8156 18.4219C13.2049 18.4219 12.6192 18.6645 12.1874 19.0963C11.7555 19.5281 11.5129 20.1138 11.5129 20.7245V24.1785" stroke="white" stroke-width="2.30263" stroke-linecap="round" stroke-linejoin="round"/>
<path d="M6.90775 11.5145H4.60512C3.99443 11.5145 3.40874 11.7571 2.97692 12.1889C2.54509 12.6207 2.30249 13.2064 2.30249 13.8171V21.8763C2.30249 22.487 2.54509 23.0727 2.97692 23.5045C3.40874 23.9364 3.99443 24.179 4.60512 24.179H23.0262C23.6369 24.179 24.2226 23.9364 24.6544 23.5045C25.0862 23.0727 25.3288 22.487 25.3288 21.8763V10.3632C25.3288 9.75248 25.0862 9.1668 24.6544 8.73497C24.2226 8.30314 23.6369 8.06055 23.0262 8.06055H20.7235" stroke="white" stroke-width="2.30263" stroke-linecap="round" stroke-linejoin="round"/>
<path d="M6.90796 24.1768V5.75576C6.90796 5.14506 7.15056 4.55938 7.58238 4.12755C8.01421 3.69572 8.59989 3.45313 9.21059 3.45312H18.4211C19.0318 3.45313 19.6175 3.69572 20.0493 4.12755C20.4812 4.55938 20.7237 5.14506 20.7237 5.75576V24.1768" stroke="white" stroke-width="2.30263" stroke-linecap="round" stroke-linejoin="round"/>
</svg>
