<svg width="28" height="28" viewBox="0 0 28 28" fill="none" xmlns="http://www.w3.org/2000/svg">
<path d="M18.4209 24.1774V21.8748C18.4209 20.6534 17.9357 19.482 17.0721 18.6184C16.2084 17.7547 15.037 17.2695 13.8156 17.2695H6.90775C5.68636 17.2695 4.51499 17.7547 3.65134 18.6184C2.78769 19.482 2.30249 20.6534 2.30249 21.8748V24.1774" stroke="white" stroke-width="2.30263" stroke-linecap="round" stroke-linejoin="round"/>
<path d="M18.4211 3.60156C19.4087 3.85758 20.2833 4.43427 20.9076 5.24111C21.532 6.04795 21.8707 7.03926 21.8707 8.05946C21.8707 9.07965 21.532 10.071 20.9076 10.8778C20.2833 11.6846 19.4087 12.2613 18.4211 12.5174" stroke="white" stroke-width="2.30263" stroke-linecap="round" stroke-linejoin="round"/>
<path d="M25.3292 24.1781V21.8755C25.3284 20.8551 24.9888 19.8639 24.3637 19.0575C23.7385 18.251 22.8632 17.675 21.8752 17.4199" stroke="white" stroke-width="2.30263" stroke-linecap="round" stroke-linejoin="round"/>
<path d="M10.3619 12.6637C12.9053 12.6637 14.9671 10.6018 14.9671 8.05839C14.9671 5.51497 12.9053 3.45312 10.3619 3.45312C7.81844 3.45312 5.75659 5.51497 5.75659 8.05839C5.75659 10.6018 7.81844 12.6637 10.3619 12.6637Z" stroke="white" stroke-width="2.30263" stroke-linecap="round" stroke-linejoin="round"/>
</svg>
