<svg width="28" height="28" viewBox="0 0 28 28" fill="none" xmlns="http://www.w3.org/2000/svg">
<path d="M17.8194 14.8408L19.5637 24.6569C19.5832 24.7725 19.567 24.8913 19.5172 24.9974C19.4674 25.1036 19.3864 25.1919 19.285 25.2508C19.1836 25.3096 19.0666 25.3361 18.9498 25.3267C18.8329 25.3172 18.7218 25.2724 18.6311 25.1981L14.5094 22.1045C14.3104 21.9558 14.0687 21.8755 13.8203 21.8755C13.572 21.8755 13.3302 21.9558 13.1313 22.1045L9.00265 25.1969C8.91206 25.2711 8.80101 25.3159 8.6843 25.3253C8.5676 25.3348 8.45079 25.3084 8.34946 25.2497C8.24814 25.191 8.16711 25.1029 8.11719 24.997C8.06728 24.891 8.05084 24.7724 8.07008 24.6569L9.81317 14.8408" stroke="white" stroke-width="2.30263" stroke-linecap="round" stroke-linejoin="round"/>
<path d="M13.8161 16.1185C17.6312 16.1185 20.724 13.0258 20.724 9.21063C20.724 5.3955 17.6312 2.30273 13.8161 2.30273C10.001 2.30273 6.9082 5.3955 6.9082 9.21063C6.9082 13.0258 10.001 16.1185 13.8161 16.1185Z" stroke="white" stroke-width="2.30263" stroke-linecap="round" stroke-linejoin="round"/>
</svg>
