<svg width="40" height="40" viewBox="0 0 40 40" fill="none" xmlns="http://www.w3.org/2000/svg">
<path d="M19.7368 29.6057V8.22412" stroke="#223F7F" stroke-width="3.28947" stroke-linecap="round" stroke-linejoin="round"/>
<path d="M24.6714 21.3822C23.2484 20.9662 21.9984 20.1003 21.1089 18.9142C20.2194 17.7282 19.7381 16.2858 19.7372 14.8032C19.7363 16.2858 19.255 17.7282 18.3655 18.9142C17.4759 20.1003 16.226 20.9662 14.803 21.3822" stroke="#223F7F" stroke-width="3.28947" stroke-linecap="round" stroke-linejoin="round"/>
<path d="M28.9441 10.6911C29.3225 10.0356 29.5451 9.30191 29.5947 8.54667C29.6442 7.79142 29.5193 7.03491 29.2297 6.33564C28.9401 5.63638 28.4935 5.01312 27.9244 4.51408C27.3554 4.01503 26.6792 3.65358 25.9481 3.45768C25.217 3.26179 24.4507 3.2367 23.7084 3.38437C22.9661 3.53203 22.2677 3.84849 21.6672 4.30925C21.0667 4.77001 20.5803 5.36273 20.2456 6.04156C19.9109 6.72038 19.7368 7.46711 19.7368 8.22398C19.7369 7.46711 19.5628 6.72038 19.228 6.04156C18.8933 5.36273 18.4069 4.77001 17.8065 4.30925C17.206 3.84849 16.5076 3.53203 15.7653 3.38437C15.023 3.2367 14.2566 3.26179 13.5255 3.45768C12.7945 3.65358 12.1182 4.01503 11.5492 4.51408C10.9802 5.01312 10.5336 5.63638 10.244 6.33564C9.95433 7.03491 9.82946 7.79142 9.87899 8.54667C9.92852 9.30191 10.1511 10.0356 10.5296 10.6911" stroke="#223F7F" stroke-width="3.28947" stroke-linecap="round" stroke-linejoin="round"/>
<path d="M29.6006 8.42969C30.5674 8.67827 31.4649 9.14359 32.2252 9.7904C32.9855 10.4372 33.5887 11.2486 33.989 12.163C34.3893 13.0774 34.5763 14.071 34.5358 15.0684C34.4953 16.0658 34.2284 17.0409 33.7552 17.9198" stroke="#223F7F" stroke-width="3.28947" stroke-linecap="round" stroke-linejoin="round"/>
<path d="M29.6052 29.6054C31.0534 29.6054 32.4611 29.1274 33.6101 28.2458C34.759 27.3642 35.5849 26.1281 35.9597 24.7292C36.3345 23.3304 36.2373 21.847 35.6832 20.509C35.129 19.171 34.1488 18.0533 32.8947 17.3291" stroke="#223F7F" stroke-width="3.28947" stroke-linecap="round" stroke-linejoin="round"/>
<path d="M32.8406 28.7554C32.9559 29.6472 32.8871 30.5532 32.6385 31.4174C32.3899 32.2816 31.9668 33.0857 31.3952 33.78C30.8237 34.4742 30.1159 35.044 29.3156 35.454C28.5152 35.864 27.6393 36.1056 26.742 36.1638C25.8446 36.222 24.9448 36.0957 24.0982 35.7926C23.2516 35.4894 22.4761 35.0159 21.8196 34.4014C21.1632 33.7868 20.6397 33.0441 20.2815 32.2193C19.9233 31.3945 19.738 30.505 19.737 29.6057C19.736 30.505 19.5507 31.3945 19.1925 32.2193C18.8343 33.0441 18.3108 33.7868 17.6544 34.4014C16.9979 35.0159 16.2224 35.4894 15.3758 35.7926C14.5292 36.0957 13.6294 36.222 12.732 36.1638C11.8347 36.1056 10.9587 35.864 10.1584 35.454C9.35806 35.044 8.65027 34.4742 8.07874 33.78C7.50722 33.0857 7.08409 32.2816 6.83549 31.4174C6.58689 30.5532 6.51811 29.6472 6.63337 28.7554" stroke="#223F7F" stroke-width="3.28947" stroke-linecap="round" stroke-linejoin="round"/>
<path d="M9.86845 29.6054C8.42026 29.6054 7.01254 29.1274 5.86363 28.2458C4.71471 27.3642 3.8888 26.1281 3.51398 24.7292C3.13915 23.3304 3.23636 21.847 3.79052 20.509C4.34469 19.171 5.32484 18.0533 6.57898 17.3291" stroke="#223F7F" stroke-width="3.28947" stroke-linecap="round" stroke-linejoin="round"/>
<path d="M9.87374 8.42969C8.90697 8.67827 8.00943 9.14359 7.24912 9.7904C6.48881 10.4372 5.88565 11.2486 5.48533 12.163C5.085 13.0774 4.89802 14.071 4.93853 15.0684C4.97903 16.0658 5.24598 17.0409 5.71914 17.9198" stroke="#223F7F" stroke-width="3.28947" stroke-linecap="round" stroke-linejoin="round"/>
</svg>
