<svg width="24" height="24" viewBox="0 0 24 24" fill="none" xmlns="http://www.w3.org/2000/svg">
<path d="M10.8717 2.77636C10.9139 2.54998 11.0341 2.34552 11.2112 2.19838C11.3884 2.05125 11.6114 1.9707 11.8417 1.9707C12.072 1.9707 12.2951 2.05125 12.4722 2.19838C12.6494 2.34552 12.7695 2.54998 12.8118 2.77636L13.849 8.26122C13.9226 8.65117 14.1121 9.00986 14.3927 9.29047C14.6734 9.57108 15.032 9.76059 15.422 9.83425L20.9069 10.8714C21.1332 10.9137 21.3377 11.0338 21.4848 11.211C21.632 11.3882 21.7125 11.6112 21.7125 11.8415C21.7125 12.0718 21.632 12.2948 21.4848 12.472C21.3377 12.6491 21.1332 12.7693 20.9069 12.8116L15.422 13.8487C15.032 13.9224 14.6734 14.1119 14.3927 14.3925C14.1121 14.6731 13.9226 15.0318 13.849 15.4217L12.8118 20.9066C12.7695 21.133 12.6494 21.3375 12.4722 21.4846C12.2951 21.6317 12.072 21.7123 11.8417 21.7123C11.6114 21.7123 11.3884 21.6317 11.2112 21.4846C11.0341 21.3375 10.9139 21.133 10.8717 20.9066L9.83449 15.4217C9.76083 15.0318 9.57133 14.6731 9.29071 14.3925C9.0101 14.1119 8.65142 13.9224 8.26147 13.8487L2.7766 12.8116C2.55022 12.7693 2.34576 12.6491 2.19862 12.472C2.05149 12.2948 1.97095 12.0718 1.97095 11.8415C1.97095 11.6112 2.05149 11.3882 2.19862 11.211C2.34576 11.0338 2.55022 10.9137 2.7766 10.8714L8.26147 9.83425C8.65142 9.76059 9.0101 9.57108 9.29071 9.29047C9.57133 9.00986 9.76083 8.65117 9.83449 8.26122L10.8717 2.77636Z" stroke="white" stroke-width="1.97368" stroke-linecap="round" stroke-linejoin="round"/>
<path d="M19.7368 1.97266V5.92002" stroke="white" stroke-width="1.97368" stroke-linecap="round" stroke-linejoin="round"/>
<path d="M21.7106 3.94727H17.7632" stroke="white" stroke-width="1.97368" stroke-linecap="round" stroke-linejoin="round"/>
<path d="M3.94732 21.7091C5.03735 21.7091 5.921 20.8254 5.921 19.7354C5.921 18.6454 5.03735 17.7617 3.94732 17.7617C2.85728 17.7617 1.97363 18.6454 1.97363 19.7354C1.97363 20.8254 2.85728 21.7091 3.94732 21.7091Z" stroke="white" stroke-width="1.97368" stroke-linecap="round" stroke-linejoin="round"/>
</svg>
