<svg width="24" height="24" viewBox="0 0 24 24" fill="none" xmlns="http://www.w3.org/2000/svg">
<path d="M10.8555 1.97266V3.94634" stroke="white" stroke-width="1.97368" stroke-linecap="round" stroke-linejoin="round"/>
<path d="M4.93433 1.97266V3.94634" stroke="white" stroke-width="1.97368" stroke-linecap="round" stroke-linejoin="round"/>
<path d="M4.93416 2.96094H3.94732C3.42386 2.96094 2.92185 3.16888 2.55171 3.53902C2.18157 3.90915 1.97363 4.41117 1.97363 4.93462V8.88199C1.97363 10.4524 2.59746 11.9584 3.70787 13.0688C4.81828 14.1792 6.32432 14.803 7.89469 14.803C9.46505 14.803 10.9711 14.1792 12.0815 13.0688C13.1919 11.9584 13.8157 10.4524 13.8157 8.88199V4.93462C13.8157 4.41117 13.6078 3.90915 13.2377 3.53902C12.8675 3.16888 12.3655 2.96094 11.8421 2.96094H10.8552" stroke="white" stroke-width="1.97368" stroke-linecap="round" stroke-linejoin="round"/>
<path d="M7.89453 14.8023C7.89453 16.3727 8.51835 17.8787 9.62877 18.9891C10.7392 20.0996 12.2452 20.7234 13.8156 20.7234C15.3859 20.7234 16.892 20.0996 18.0024 18.9891C19.1128 17.8787 19.7366 16.3727 19.7366 14.8023V11.8418" stroke="white" stroke-width="1.97368" stroke-linecap="round" stroke-linejoin="round"/>
<path d="M19.7366 11.8419C20.8267 11.8419 21.7103 10.9583 21.7103 9.86822C21.7103 8.77818 20.8267 7.89453 19.7366 7.89453C18.6466 7.89453 17.7629 8.77818 17.7629 9.86822C17.7629 10.9583 18.6466 11.8419 19.7366 11.8419Z" stroke="white" stroke-width="1.97368" stroke-linecap="round" stroke-linejoin="round"/>
</svg>
