<svg width="22" height="19" viewBox="0 0 22 19" fill="none" xmlns="http://www.w3.org/2000/svg">
<path d="M0.986816 6.4299C0.986837 5.33174 1.31997 4.25942 1.94221 3.35457C2.56445 2.44971 3.44654 1.75489 4.47196 1.36187C5.49738 0.968855 6.61789 0.896129 7.68551 1.1533C8.75313 1.41047 9.71763 1.98544 10.4516 2.80227C10.5033 2.85755 10.5658 2.90161 10.6352 2.93174C10.7047 2.96187 10.7796 2.97742 10.8552 2.97742C10.9309 2.97742 11.0058 2.96187 11.0752 2.93174C11.1447 2.90161 11.2072 2.85755 11.2589 2.80227C11.9905 1.98013 12.9553 1.40033 14.0246 1.14003C15.094 0.879738 16.2172 0.951295 17.2449 1.34518C18.2726 1.73907 19.1559 2.4366 19.7774 3.34494C20.3988 4.25327 20.7289 5.32934 20.7237 6.4299C20.7237 8.68977 19.2434 10.3773 17.7631 11.8575L12.3434 17.1006C12.1595 17.3118 11.9328 17.4815 11.6783 17.5983C11.4238 17.7151 11.1474 17.7765 10.8674 17.7782C10.5873 17.78 10.3102 17.7222 10.0542 17.6086C9.79826 17.495 9.56941 17.3282 9.38287 17.1194L3.94734 11.8575C2.46708 10.3773 0.986816 8.69964 0.986816 6.4299Z" stroke="white" stroke-width="1.97368" stroke-linecap="round" stroke-linejoin="round"/>
</svg>
