<svg width="24" height="24" viewBox="0 0 24 24" fill="none" xmlns="http://www.w3.org/2000/svg">
<path d="M15.7894 20.7238V18.7501C15.7894 17.7032 15.3735 16.6992 14.6333 15.9589C13.893 15.2186 12.889 14.8027 11.8421 14.8027H5.921C4.87409 14.8027 3.87007 15.2186 3.12979 15.9589C2.38952 16.6992 1.97363 17.7032 1.97363 18.7501V20.7238" stroke="white" stroke-width="1.97368" stroke-linecap="round" stroke-linejoin="round"/>
<path d="M15.7896 3.08594C16.636 3.30538 17.3857 3.79969 17.9208 4.49126C18.456 5.18284 18.7463 6.03254 18.7463 6.90699C18.7463 7.78144 18.456 8.63114 17.9208 9.32272C17.3857 10.0143 16.636 10.5086 15.7896 10.728" stroke="white" stroke-width="1.97368" stroke-linecap="round" stroke-linejoin="round"/>
<path d="M21.7108 20.7225V18.7488C21.7101 17.8742 21.419 17.0245 20.8832 16.3333C20.3473 15.642 19.5971 15.1483 18.7502 14.9297" stroke="white" stroke-width="1.97368" stroke-linecap="round" stroke-linejoin="round"/>
<path d="M8.88169 10.8557C11.0618 10.8557 12.8291 9.08838 12.8291 6.90831C12.8291 4.72823 11.0618 2.96094 8.88169 2.96094C6.70162 2.96094 4.93433 4.72823 4.93433 6.90831C4.93433 9.08838 6.70162 10.8557 8.88169 10.8557Z" stroke="white" stroke-width="1.97368" stroke-linecap="round" stroke-linejoin="round"/>
</svg>
