<svg width="38" height="38" viewBox="0 0 38 38" fill="none" xmlns="http://www.w3.org/2000/svg">
<path d="M9.49976 28.5H22.1664" stroke="#008C8C" stroke-width="3.28947" stroke-linecap="round" stroke-linejoin="round"/>
<path d="M4.75 34.834H33.25" stroke="#008C8C" stroke-width="3.28947" stroke-linecap="round" stroke-linejoin="round"/>
<path d="M22.1668 34.8327C25.1063 34.8327 27.9254 33.665 30.0039 31.5864C32.0825 29.5079 33.2502 26.6888 33.2502 23.7493C33.2502 20.8099 32.0825 17.9908 30.0039 15.9122C27.9254 13.8337 25.1063 12.666 22.1668 12.666H20.5835" stroke="#008C8C" stroke-width="3.28947" stroke-linecap="round" stroke-linejoin="round"/>
<path d="M14.2505 22.166H17.4172" stroke="#008C8C" stroke-width="3.28947" stroke-linecap="round" stroke-linejoin="round"/>
<path d="M14.2507 19C13.4108 19 12.6053 18.6664 12.0115 18.0725C11.4176 17.4786 11.084 16.6732 11.084 15.8333V9.5H20.584V15.8333C20.584 16.6732 20.2504 17.4786 19.6565 18.0725C19.0626 18.6664 18.2572 19 17.4173 19H14.2507Z" stroke="#008C8C" stroke-width="3.28947" stroke-linecap="round" stroke-linejoin="round"/>
<path d="M19.0006 9.49935V4.74935C19.0006 4.32942 18.8338 3.9267 18.5368 3.62976C18.2399 3.33283 17.8372 3.16602 17.4172 3.16602H14.2506C13.8306 3.16602 13.4279 3.33283 13.131 3.62976C12.8341 3.9267 12.6672 4.32942 12.6672 4.74935V9.49935" stroke="#008C8C" stroke-width="3.28947" stroke-linecap="round" stroke-linejoin="round"/>
</svg>
