<svg width="32" height="32" viewBox="0 0 32 32" fill="none" xmlns="http://www.w3.org/2000/svg">
<path d="M2.66699 12.6713C2.66702 11.1875 3.11712 9.73872 3.95784 8.51616C4.79856 7.2936 5.99035 6.35482 7.3758 5.82381C8.76126 5.2928 10.2752 5.19454 11.7177 5.542C13.1601 5.88947 14.4633 6.66632 15.455 7.76994C15.5248 7.84463 15.6093 7.90417 15.7031 7.94488C15.7969 7.98558 15.8981 8.00659 16.0003 8.00659C16.1026 8.00659 16.2038 7.98558 16.2976 7.94488C16.3914 7.90417 16.4758 7.84463 16.5457 7.76994C17.5342 6.65914 18.8377 5.87577 20.2825 5.52408C21.7273 5.17239 23.245 5.26907 24.6335 5.80126C26.022 6.33344 27.2155 7.27588 28.0551 8.50315C28.8948 9.73041 29.3407 11.1843 29.3337 12.6713C29.3337 15.7246 27.3337 18.0046 25.3337 20.0046L18.011 27.0886C17.7625 27.374 17.4562 27.6032 17.1124 27.761C16.7685 27.9189 16.395 28.0017 16.0167 28.0041C15.6384 28.0065 15.2639 27.9284 14.918 27.7749C14.5722 27.6214 14.263 27.3961 14.011 27.1139L6.66699 20.0046C4.66699 18.0046 2.66699 15.7379 2.66699 12.6713Z" stroke="#6A1B9A" stroke-width="2.66667" stroke-linecap="round" stroke-linejoin="round"/>
</svg>
