<svg width="16" height="16" viewBox="0 0 16 16" fill="none" xmlns="http://www.w3.org/2000/svg">
<g clip-path="url(#clip0_825_99)">
<path d="M2.66675 6.66634C2.66675 4.15234 2.66675 2.89501 3.44808 2.11434C4.22941 1.33367 5.48608 1.33301 8.00008 1.33301H9.00008C11.5141 1.33301 12.7714 1.33301 13.5521 2.11434C14.3327 2.89567 14.3334 4.15234 14.3334 6.66634V9.33301C14.3334 11.847 14.3334 13.1043 13.5521 13.885C12.7707 14.6657 11.5141 14.6663 9.00008 14.6663H8.00008C5.48608 14.6663 4.22875 14.6663 3.44808 13.885C2.66741 13.1037 2.66675 11.847 2.66675 9.33301V6.66634Z" stroke="white" stroke-width="1.5"/>
<path d="M6.53347 7.98286C6.24881 7.48686 6.11147 7.08219 6.02881 6.67153C5.90614 6.06486 6.18681 5.47153 6.65081 5.09286C6.84747 4.93286 7.07214 4.98753 7.18814 5.19619L7.45014 5.66619C7.65747 6.03819 7.76147 6.22486 7.74081 6.42219C7.72081 6.61953 7.58081 6.78019 7.30081 7.10219L6.53347 7.98286ZM6.53347 7.98286C7.13354 9.01111 7.98922 9.86679 9.01747 10.4669M9.01747 10.4669C9.51347 10.7515 9.91814 10.8889 10.3288 10.9715C10.9355 11.0942 11.5288 10.8135 11.9075 10.3495C12.0675 10.1529 12.0128 9.92819 11.8041 9.81219L11.3348 9.55019C10.9615 9.34286 10.7755 9.23886 10.5781 9.25953C10.3808 9.27953 10.2201 9.41952 9.89814 9.69952L9.01747 10.4669Z" stroke="white" stroke-width="1.6" stroke-linejoin="round"/>
<path d="M3.33341 4H1.66675M3.33341 8H1.66675M3.33341 12H1.66675" stroke="white" stroke-width="1.6" stroke-linecap="round" stroke-linejoin="round"/>
</g>
<defs>
<clipPath id="clip0_825_99">
<rect width="16" height="16" fill="white"/>
</clipPath>
</defs>
</svg>
