<svg width="28" height="28" viewBox="0 0 28 28" fill="none" xmlns="http://www.w3.org/2000/svg">
<path d="M22.3522 16.5932C24.1782 14.7672 25.3295 13.2383 25.3295 10.9356C25.3295 9.65445 24.9409 8.40341 24.2149 7.34775C23.489 6.29209 22.4599 5.48146 21.2635 5.02294C20.0672 4.56442 18.7599 4.47957 17.5144 4.7796C16.2688 5.07964 15.1436 5.75043 14.2873 6.7034C14.1595 6.82268 13.9914 6.88913 13.8166 6.88934C13.6418 6.88955 13.4735 6.82352 13.3455 6.70455C12.4892 5.75166 11.3641 5.08089 10.1186 4.78082C8.8732 4.48075 7.56603 4.56551 6.36976 5.02388C5.17348 5.48226 4.14438 6.29271 3.41834 7.34819C2.6923 8.40367 2.30348 9.65455 2.30322 10.9356C2.30322 13.5837 4.0302 15.5409 5.75717 17.2679L12.1297 23.4412C12.3404 23.6678 12.5947 23.8496 12.8772 23.9758C13.1598 24.1019 13.4649 24.1698 13.7743 24.1754C14.0837 24.181 14.391 24.1242 14.678 24.0083C14.9649 23.8924 15.2256 23.7199 15.4443 23.5011C15.671 23.2741 15.8507 23.0047 15.9732 22.7082C16.0956 22.4117 16.1584 22.094 16.158 21.7732C16.1576 21.4524 16.0939 21.1348 15.9707 20.8387C15.8474 20.5425 15.667 20.2735 15.4397 20.0471C15.6621 20.293 15.932 20.4911 16.2333 20.6294C16.5345 20.7677 16.8608 20.8433 17.1921 20.8516C17.5235 20.86 17.8531 20.8008 18.1609 20.6778C18.4687 20.5548 18.7483 20.3706 18.9827 20.1362C19.2171 19.9018 19.4014 19.6222 19.5244 19.3144C19.6474 19.0066 19.7065 18.677 19.6982 18.3456C19.6898 18.0142 19.6142 17.688 19.4759 17.3868C19.3376 17.0855 19.1395 16.8155 18.8937 16.5932C19.1208 16.8203 19.3904 17.0005 19.6871 17.1234C19.9838 17.2463 20.3018 17.3096 20.623 17.3096C20.9441 17.3096 21.2621 17.2463 21.5588 17.1234C21.8556 17.0005 22.1252 16.8203 22.3522 16.5932C22.7839 16.1614 23.0264 15.5758 23.0264 14.9652C23.0264 14.3547 22.7839 13.7691 22.3522 13.3373L20.1866 11.1705C19.9289 10.9127 19.623 10.7082 19.2863 10.5687C18.9496 10.4292 18.5887 10.3574 18.2242 10.3574C17.8597 10.3574 17.4988 10.4292 17.1621 10.5687C16.8254 10.7082 16.5194 10.9127 16.2618 11.1705L14.293 13.1393C13.8612 13.5709 13.2756 13.8134 12.6651 13.8134C12.0545 13.8134 11.4689 13.5709 11.0371 13.1393C10.6054 12.7074 10.3629 12.1219 10.3629 11.5113C10.3629 10.9007 10.6054 10.3151 11.0371 9.88334L14.2873 6.7034" fill="#223F7F"/>
<path d="M22.3522 16.5932C24.1782 14.7672 25.3295 13.2383 25.3295 10.9356C25.3295 9.65445 24.9409 8.40341 24.2149 7.34775C23.489 6.29209 22.4599 5.48146 21.2635 5.02294C20.0672 4.56442 18.7599 4.47957 17.5144 4.7796C16.2688 5.07964 15.1436 5.75043 14.2873 6.7034M22.3522 16.5932C22.1252 16.8203 21.8556 17.0005 21.5588 17.1234C21.2621 17.2463 20.9441 17.3096 20.623 17.3096C20.3018 17.3096 19.9838 17.2463 19.6871 17.1234C19.3904 17.0005 19.1208 16.8203 18.8937 16.5932C19.1395 16.8155 19.3376 17.0855 19.4759 17.3868C19.6142 17.688 19.6898 18.0142 19.6982 18.3456C19.7065 18.677 19.6474 19.0066 19.5244 19.3144C19.4014 19.6222 19.2171 19.9018 18.9827 20.1362C18.7483 20.3706 18.4687 20.5548 18.1609 20.6778C17.8531 20.8008 17.5235 20.86 17.1921 20.8516C16.8608 20.8433 16.5345 20.7677 16.2333 20.6294C15.932 20.4911 15.6621 20.293 15.4397 20.0472C15.667 20.2735 15.8474 20.5425 15.9707 20.8387C16.0939 21.1348 16.1576 21.4524 16.158 21.7732C16.1584 22.094 16.0956 22.4117 15.9732 22.7082C15.8507 23.0047 15.671 23.2741 15.4443 23.5011C15.2256 23.7199 14.9649 23.8924 14.678 24.0083C14.391 24.1242 14.0837 24.181 13.7743 24.1754C13.4649 24.1698 13.1598 24.1019 12.8772 23.9758C12.5947 23.8496 12.3404 23.6678 12.1297 23.4412L5.75717 17.2679C4.0302 15.5409 2.30322 13.5837 2.30322 10.9356C2.30348 9.65455 2.6923 8.40367 3.41834 7.34819C4.14438 6.29271 5.17348 5.48226 6.36976 5.02388C7.56603 4.56551 8.8732 4.48075 10.1186 4.78082C11.3641 5.08089 12.4892 5.75166 13.3455 6.70455C13.4735 6.82352 13.6418 6.88955 13.8166 6.88934C13.9914 6.88913 14.1595 6.82268 14.2873 6.7034M22.3522 16.5932C22.7839 16.1614 23.0264 15.5758 23.0264 14.9652C23.0264 14.3547 22.7839 13.7691 22.3522 13.3373L20.1866 11.1705C19.9289 10.9127 19.623 10.7082 19.2863 10.5687C18.9496 10.4292 18.5887 10.3574 18.2242 10.3574C17.8597 10.3574 17.4988 10.4292 17.1621 10.5687C16.8254 10.7082 16.5194 10.9127 16.2618 11.1705L14.293 13.1393C13.8612 13.5709 13.2756 13.8134 12.6651 13.8134C12.0545 13.8134 11.4689 13.5709 11.0371 13.1393C10.6054 12.7074 10.3629 12.1219 10.3629 11.5113C10.3629 10.9007 10.6054 10.3151 11.0371 9.88334L14.2873 6.7034" stroke="#223F7F" stroke-width="2.30263" stroke-linecap="round" stroke-linejoin="round"/>
</svg>
