<svg width="28" height="28" viewBox="0 0 28 28" fill="none" xmlns="http://www.w3.org/2000/svg">
<path d="M17.8182 14.8398L19.5624 24.656C19.582 24.7715 19.5658 24.8903 19.516 24.9965C19.4662 25.1026 19.3851 25.191 19.2837 25.2498C19.1824 25.3086 19.0654 25.3351 18.9486 25.3257C18.8317 25.3163 18.7205 25.2714 18.6299 25.1971L14.5082 22.1035C14.3092 21.9548 14.0675 21.8745 13.8191 21.8745C13.5707 21.8745 13.329 21.9548 13.13 22.1035L9.00143 25.1959C8.91084 25.2701 8.79979 25.3149 8.68308 25.3243C8.56638 25.3338 8.44957 25.3074 8.34824 25.2487C8.24692 25.1901 8.16589 25.1019 8.11597 24.996C8.06605 24.8901 8.04962 24.7715 8.06886 24.656L9.81195 14.8398" stroke="white" stroke-width="2.30263" stroke-linecap="round" stroke-linejoin="round"/>
<path d="M13.8146 16.1185C17.6298 16.1185 20.7225 13.0258 20.7225 9.21063C20.7225 5.3955 17.6298 2.30273 13.8146 2.30273C9.99951 2.30273 6.90674 5.3955 6.90674 9.21063C6.90674 13.0258 9.99951 16.1185 13.8146 16.1185Z" stroke="white" stroke-width="2.30263" stroke-linecap="round" stroke-linejoin="round"/>
</svg>
