<svg width="32" height="32" viewBox="0 0 32 32" fill="none" xmlns="http://www.w3.org/2000/svg">
<path d="M21.0534 27.632V25.0005C21.0534 23.6046 20.4989 22.2659 19.5118 21.2788C18.5248 20.2918 17.1861 19.7373 15.7902 19.7373H7.89548C6.49961 19.7373 5.1609 20.2918 4.17387 21.2788C3.18683 22.2659 2.63232 23.6046 2.63232 25.0005V27.632" stroke="#223F7F" stroke-width="2.63158" stroke-linecap="round" stroke-linejoin="round"/>
<path d="M21.0518 4.11621C22.1804 4.4088 23.1799 5.06787 23.8934 5.98998C24.607 6.91208 24.9941 8.04501 24.9941 9.21095C24.9941 10.3769 24.607 11.5098 23.8934 12.4319C23.1799 13.354 22.1804 14.0131 21.0518 14.3057" stroke="#223F7F" stroke-width="2.63158" stroke-linecap="round" stroke-linejoin="round"/>
<path d="M28.9469 27.6319V25.0003C28.946 23.8342 28.5579 22.7013 27.8434 21.7797C27.129 20.858 26.1286 20.1997 24.9995 19.9082" stroke="#223F7F" stroke-width="2.63158" stroke-linecap="round" stroke-linejoin="round"/>
<path d="M11.8427 14.4736C14.7495 14.4736 17.1059 12.1172 17.1059 9.21042C17.1059 6.30366 14.7495 3.94727 11.8427 3.94727C8.93599 3.94727 6.57959 6.30366 6.57959 9.21042C6.57959 12.1172 8.93599 14.4736 11.8427 14.4736Z" stroke="#223F7F" stroke-width="2.63158" stroke-linecap="round" stroke-linejoin="round"/>
</svg>
