<svg width="32" height="32" viewBox="0 0 32 32" fill="none" xmlns="http://www.w3.org/2000/svg">
<path d="M19.7374 2.63086H11.8426C11.116 2.63086 10.5269 3.21996 10.5269 3.94665V6.57823C10.5269 7.30492 11.116 7.89402 11.8426 7.89402H19.7374C20.4641 7.89402 21.0532 7.30492 21.0532 6.57823V3.94665C21.0532 3.21996 20.4641 2.63086 19.7374 2.63086Z" stroke="#008C8C" stroke-width="2.63158" stroke-linecap="round" stroke-linejoin="round"/>
<path d="M21.0531 5.26367H23.6847C24.3827 5.26367 25.052 5.54093 25.5455 6.03444C26.039 6.52796 26.3163 7.19731 26.3163 7.89525V26.3163C26.3163 27.0142 26.039 27.6836 25.5455 28.1771C25.052 28.6706 24.3827 28.9479 23.6847 28.9479H7.89525C7.19731 28.9479 6.52796 28.6706 6.03444 28.1771C5.54093 27.6836 5.26367 27.0142 5.26367 26.3163V7.89525C5.26367 7.19731 5.54093 6.52796 6.03444 6.03444C6.52796 5.54093 7.19731 5.26367 7.89525 5.26367H10.5268" stroke="#008C8C" stroke-width="2.63158" stroke-linecap="round" stroke-linejoin="round"/>
<path d="M11.8423 18.4206L14.4739 21.0522L19.737 15.7891" stroke="#008C8C" stroke-width="2.63158" stroke-linecap="round" stroke-linejoin="round"/>
</svg>
