<svg width="28" height="28" viewBox="0 0 28 28" fill="none" xmlns="http://www.w3.org/2000/svg">
<path d="M13.8164 8.05859V24.177" stroke="white" stroke-width="2.30263" stroke-linecap="round" stroke-linejoin="round"/>
<path d="M3.45405 20.7229C3.1487 20.7229 2.85586 20.6016 2.63995 20.3857C2.42403 20.1697 2.30273 19.8769 2.30273 19.5715V4.60444C2.30273 4.29909 2.42403 4.00625 2.63995 3.79034C2.85586 3.57442 3.1487 3.45313 3.45405 3.45312H9.21063C10.432 3.45313 11.6034 3.93832 12.467 4.80198C13.3307 5.66563 13.8159 6.837 13.8159 8.05839C13.8159 6.837 14.3011 5.66563 15.1647 4.80198C16.0284 3.93832 17.1998 3.45313 18.4212 3.45312H24.1777C24.4831 3.45313 24.7759 3.57442 24.9918 3.79034C25.2078 4.00625 25.329 4.29909 25.329 4.60444V19.5715C25.329 19.8769 25.2078 20.1697 24.9918 20.3857C24.7759 20.6016 24.4831 20.7229 24.1777 20.7229H17.2698C16.3538 20.7229 15.4753 21.0868 14.8275 21.7345C14.1798 22.3822 13.8159 23.2608 13.8159 24.1768C13.8159 23.2608 13.452 22.3822 12.8043 21.7345C12.1565 21.0868 11.278 20.7229 10.3619 20.7229H3.45405Z" stroke="white" stroke-width="2.30263" stroke-linecap="round" stroke-linejoin="round"/>
</svg>
