<svg width="24" height="24" viewBox="0 0 24 24" fill="none" xmlns="http://www.w3.org/2000/svg">
<path d="M11.8416 21.7095C17.2917 21.7095 21.71 17.2913 21.71 11.8411C21.71 6.3909 17.2917 1.97266 11.8416 1.97266C6.39139 1.97266 1.97314 6.3909 1.97314 11.8411C1.97314 17.2913 6.39139 21.7095 11.8416 21.7095Z" stroke="#191919" stroke-width="1.97368" stroke-linecap="round" stroke-linejoin="round"/>
<path d="M8.96973 8.88044C9.20174 8.22091 9.65968 7.66476 10.2624 7.31051C10.8652 6.95626 11.5739 6.82677 12.263 6.94496C12.9521 7.06316 13.5771 7.42142 14.0274 7.95629C14.4776 8.49117 14.7241 9.16813 14.723 9.86729C14.723 11.841 11.7625 12.8278 11.7625 12.8278" stroke="#191919" stroke-width="1.97368" stroke-linecap="round" stroke-linejoin="round"/>
<path d="M11.8418 16.7754H11.8518" stroke="#191919" stroke-width="1.97368" stroke-linecap="round" stroke-linejoin="round"/>
</svg>
