<svg width="28" height="28" viewBox="0 0 28 28" fill="none" xmlns="http://www.w3.org/2000/svg">
<path d="M13.8159 25.329C20.1744 25.329 25.329 20.1744 25.329 13.8159C25.329 7.45735 20.1744 2.30273 13.8159 2.30273C7.45735 2.30273 2.30273 7.45735 2.30273 13.8159C2.30273 20.1744 7.45735 25.329 13.8159 25.329Z" stroke="white" stroke-width="2.30263" stroke-linecap="round" stroke-linejoin="round"/>
<path d="M13.8161 20.724C17.6312 20.724 20.724 17.6312 20.724 13.8161C20.724 10.001 17.6312 6.9082 13.8161 6.9082C10.001 6.9082 6.9082 10.001 6.9082 13.8161C6.9082 17.6312 10.001 20.724 13.8161 20.724Z" stroke="white" stroke-width="2.30263" stroke-linecap="round" stroke-linejoin="round"/>
<path d="M13.8163 16.1189C15.088 16.1189 16.1189 15.088 16.1189 13.8163C16.1189 12.5446 15.088 11.5137 13.8163 11.5137C12.5446 11.5137 11.5137 12.5446 11.5137 13.8163C11.5137 15.088 12.5446 16.1189 13.8163 16.1189Z" stroke="white" stroke-width="2.30263" stroke-linecap="round" stroke-linejoin="round"/>
</svg>
