<svg width="24" height="24" viewBox="0 0 24 24" fill="none" xmlns="http://www.w3.org/2000/svg">
<path d="M5.92095 21.7095C5.3975 21.7095 4.89548 21.5016 4.52534 21.1314C4.15521 20.7613 3.94727 20.2593 3.94727 19.7358V3.94634C3.94727 3.42289 4.15521 2.92088 4.52534 2.55074C4.89548 2.1806 5.3975 1.97266 5.92095 1.97266H13.8157C14.1281 1.97215 14.4375 2.03345 14.7261 2.15302C15.0147 2.2726 15.2768 2.44808 15.4973 2.66937L19.0381 6.21016C19.2599 6.43072 19.4359 6.69307 19.5558 6.98203C19.6758 7.27099 19.7372 7.58085 19.7367 7.89371V19.7358C19.7367 20.2593 19.5288 20.7613 19.1587 21.1314C18.7885 21.5016 18.2865 21.7095 17.7631 21.7095H5.92095Z" stroke="white" stroke-width="1.97368" stroke-linecap="round" stroke-linejoin="round"/>
<path d="M13.8154 1.97266V6.90687C13.8154 7.16859 13.9194 7.4196 14.1045 7.60467C14.2895 7.78974 14.5405 7.89371 14.8023 7.89371H19.7365" stroke="white" stroke-width="1.97368" stroke-linecap="round" stroke-linejoin="round"/>
<path d="M9.86822 8.88086H7.89453" stroke="white" stroke-width="1.97368" stroke-linecap="round" stroke-linejoin="round"/>
<path d="M15.7893 12.8281H7.89453" stroke="white" stroke-width="1.97368" stroke-linecap="round" stroke-linejoin="round"/>
<path d="M15.7893 16.7754H7.89453" stroke="white" stroke-width="1.97368" stroke-linecap="round" stroke-linejoin="round"/>
</svg>
