<svg width="32" height="32" viewBox="0 0 32 32" fill="none" xmlns="http://www.w3.org/2000/svg">
<path d="M20.3639 16.9609L22.3574 28.1794C22.3797 28.3115 22.3612 28.4472 22.3042 28.5685C22.2473 28.6898 22.1547 28.7908 22.0389 28.858C21.923 28.9253 21.7893 28.9555 21.6558 28.9448C21.5222 28.934 21.3952 28.8827 21.2916 28.7978L16.581 25.2623C16.3536 25.0924 16.0774 25.0006 15.7935 25.0006C15.5097 25.0006 15.2334 25.0924 15.006 25.2623L10.2876 28.7965C10.1841 28.8812 10.0572 28.9324 9.9238 28.9432C9.79043 28.954 9.65693 28.9239 9.54113 28.8568C9.42533 28.7898 9.33272 28.689 9.27568 28.568C9.21863 28.4469 9.19985 28.3114 9.22184 28.1794L11.2139 16.9609" stroke="#223F7F" stroke-width="2.63158" stroke-linecap="round" stroke-linejoin="round"/>
<path d="M15.7893 18.4213C20.1494 18.4213 23.684 14.8867 23.684 10.5266C23.684 6.16643 20.1494 2.63184 15.7893 2.63184C11.4291 2.63184 7.89453 6.16643 7.89453 10.5266C7.89453 14.8867 11.4291 18.4213 15.7893 18.4213Z" stroke="#223F7F" stroke-width="2.63158" stroke-linecap="round" stroke-linejoin="round"/>
</svg>
