<svg width="28" height="28" viewBox="0 0 28 28" fill="none" xmlns="http://www.w3.org/2000/svg">
<path d="M12.684 3.24071C12.7333 2.9766 12.8735 2.73806 13.0801 2.5664C13.2868 2.39475 13.547 2.30078 13.8157 2.30078C14.0844 2.30078 14.3446 2.39475 14.5513 2.5664C14.758 2.73806 14.8981 2.9766 14.9475 3.24071L16.1575 9.63972C16.2434 10.0947 16.4645 10.5131 16.7919 10.8405C17.1193 11.1679 17.5378 11.389 17.9927 11.4749L24.3917 12.685C24.6558 12.7343 24.8944 12.8744 25.066 13.0811C25.2377 13.2878 25.3316 13.548 25.3316 13.8167C25.3316 14.0854 25.2377 14.3456 25.066 14.5523C24.8944 14.759 24.6558 14.8991 24.3917 14.9484L17.9927 16.1585C17.5378 16.2444 17.1193 16.4655 16.7919 16.7929C16.4645 17.1203 16.2434 17.5387 16.1575 17.9937L14.9475 24.3927C14.8981 24.6568 14.758 24.8953 14.5513 25.067C14.3446 25.2386 14.0844 25.3326 13.8157 25.3326C13.547 25.3326 13.2868 25.2386 13.0801 25.067C12.8735 24.8953 12.7333 24.6568 12.684 24.3927L11.4739 17.9937C11.388 17.5387 11.1669 17.1203 10.8395 16.7929C10.5122 16.4655 10.0937 16.2444 9.63875 16.1585L3.23973 14.9484C2.97562 14.8991 2.73709 14.759 2.56543 14.5523C2.39377 14.3456 2.2998 14.0854 2.2998 13.8167C2.2998 13.548 2.39377 13.2878 2.56543 13.0811C2.73709 12.8744 2.97562 12.7343 3.23973 12.685L9.63875 11.4749C10.0937 11.389 10.5122 11.1679 10.8395 10.8405C11.1669 10.5131 11.388 10.0947 11.4739 9.63972L12.684 3.24071Z" stroke="white" stroke-width="2.30263" stroke-linecap="round" stroke-linejoin="round"/>
<path d="M23.0264 2.30273V6.908" stroke="white" stroke-width="2.30263" stroke-linecap="round" stroke-linejoin="round"/>
<path d="M25.3299 4.60547H20.7246" stroke="white" stroke-width="2.30263" stroke-linecap="round" stroke-linejoin="round"/>
<path d="M4.60537 25.3299C5.87707 25.3299 6.908 24.2989 6.908 23.0272C6.908 21.7555 5.87707 20.7246 4.60537 20.7246C3.33366 20.7246 2.30273 21.7555 2.30273 23.0272C2.30273 24.2989 3.33366 25.3299 4.60537 25.3299Z" stroke="white" stroke-width="2.30263" stroke-linecap="round" stroke-linejoin="round"/>
</svg>
