<svg width="28" height="28" viewBox="0 0 28 28" fill="none" xmlns="http://www.w3.org/2000/svg">
<path d="M13.8149 8.05859V12.6639" stroke="white" stroke-width="2.30263" stroke-linecap="round" stroke-linejoin="round"/>
<path d="M16.1184 24.1785V20.7245C16.1184 20.1138 15.8758 19.5281 15.444 19.0963C15.0122 18.6645 14.4265 18.4219 13.8158 18.4219C13.2051 18.4219 12.6194 18.6645 12.1876 19.0963C11.7558 19.5281 11.5132 20.1138 11.5132 20.7245V24.1785" stroke="white" stroke-width="2.30263" stroke-linecap="round" stroke-linejoin="round"/>
<path d="M16.1184 10.3613H11.5132" stroke="white" stroke-width="2.30263" stroke-linecap="round" stroke-linejoin="round"/>
<path d="M20.7223 12.6649H23.025C23.6356 12.6649 24.2213 12.9075 24.6532 13.3393C25.085 13.7711 25.3276 14.3568 25.3276 14.9675V21.8754C25.3276 22.4861 25.085 23.0718 24.6532 23.5036C24.2213 23.9354 23.6356 24.178 23.025 24.178H4.6039C3.99321 24.178 3.40752 23.9354 2.97569 23.5036C2.54387 23.0718 2.30127 22.4861 2.30127 21.8754V11.5136C2.30127 10.9029 2.54387 10.3172 2.97569 9.88536C3.40752 9.45354 3.99321 9.21094 4.6039 9.21094H6.90653" stroke="white" stroke-width="2.30263" stroke-linecap="round" stroke-linejoin="round"/>
<path d="M20.7225 24.1768V5.75576C20.7225 5.14506 20.4799 4.55938 20.0481 4.12755C19.6163 3.69572 19.0306 3.45313 18.4199 3.45312H9.20937C8.59867 3.45313 8.01299 3.69572 7.58116 4.12755C7.14934 4.55938 6.90674 5.14506 6.90674 5.75576V24.1768" stroke="white" stroke-width="2.30263" stroke-linecap="round" stroke-linejoin="round"/>
</svg>
