<svg width="27" height="17" viewBox="0 0 27 17" fill="none" xmlns="http://www.w3.org/2000/svg">
<path d="M20.625 16.875C22.1153 16.8701 23.5432 16.2758 24.597 15.222C25.6508 14.1682 26.2451 12.7403 26.25 11.25C26.25 9.89062 25.9631 8.625 25.2375 7.5825C24.7238 6.83812 23.8387 6.40125 22.995 5.9325C22.9856 4.45125 23.0044 4.0875 24.1744 2.13937C24.9375 0.868124 23.4675 -0.56625 22.215 0.226875C19.5563 1.91813 17.745 3.43125 16.5787 5.21438C15.4125 6.99375 15 8.985 15 11.25C15.0025 12.7411 15.5959 14.1704 16.6503 15.2247C17.7046 16.2791 19.1339 16.8725 20.625 16.875ZM5.625 16.875C7.11532 16.8701 8.54319 16.2758 9.59702 15.222C10.6508 14.1682 11.2451 12.7403 11.25 11.25C11.25 9.89062 10.9631 8.625 10.2375 7.5825C9.72375 6.83812 8.83875 6.40125 7.995 5.9325C7.98562 4.45125 8.0025 4.0875 9.17437 2.13937C9.9375 0.868124 8.4675 -0.56625 7.215 0.226875C4.55625 1.91813 2.745 3.43125 1.57875 5.21438C0.4125 6.99375 0 8.985 0 11.25C0.00247955 12.7411 0.595907 14.1704 1.65026 15.2247C2.70462 16.2791 4.13392 16.8725 5.625 16.875Z" fill="#223F7F"/>
</svg>
