<svg width="24" height="24" viewBox="0 0 24 24" fill="none" xmlns="http://www.w3.org/2000/svg">
<path d="M19.7367 9.86739C19.7367 14.7947 14.2706 19.9263 12.4351 21.5111C12.2641 21.6397 12.0559 21.7093 11.842 21.7093C11.6281 21.7093 11.4199 21.6397 11.2489 21.5111C9.41338 19.9263 3.94727 14.7947 3.94727 9.86739C3.94727 7.77358 4.77903 5.76552 6.25958 4.28497C7.74013 2.80442 9.74819 1.97266 11.842 1.97266C13.9358 1.97266 15.9439 2.80442 17.4244 4.28497C18.905 5.76552 19.7367 7.77358 19.7367 9.86739Z" stroke="white" stroke-width="1.97368" stroke-linecap="round" stroke-linejoin="round"/>
<path d="M11.8419 12.8273C13.4769 12.8273 14.8024 11.5018 14.8024 9.86678C14.8024 8.23172 13.4769 6.90625 11.8419 6.90625C10.2068 6.90625 8.88135 8.23172 8.88135 9.86678C8.88135 11.5018 10.2068 12.8273 11.8419 12.8273Z" stroke="white" stroke-width="1.97368" stroke-linecap="round" stroke-linejoin="round"/>
</svg>
