<svg width="28" height="28" viewBox="0 0 28 28" fill="none" xmlns="http://www.w3.org/2000/svg">
<path d="M18.4212 24.1774V21.8748C18.4212 20.6534 17.936 19.482 17.0723 18.6184C16.2086 17.7547 15.0373 17.2695 13.8159 17.2695H6.908C5.68661 17.2695 4.51524 17.7547 3.65158 18.6184C2.78793 19.482 2.30273 20.6534 2.30273 21.8748V24.1774" stroke="white" stroke-width="2.30263" stroke-linecap="round" stroke-linejoin="round"/>
<path d="M18.4219 3.60156C19.4094 3.85758 20.284 4.43427 20.9083 5.24111C21.5327 6.04795 21.8714 7.03926 21.8714 8.05946C21.8714 9.07965 21.5327 10.071 20.9083 10.8778C20.284 11.6846 19.4094 12.2613 18.4219 12.5174" stroke="white" stroke-width="2.30263" stroke-linecap="round" stroke-linejoin="round"/>
<path d="M25.3294 24.1781V21.8755C25.3287 20.8551 24.9891 19.8639 24.3639 19.0575C23.7387 18.251 22.8635 17.675 21.8755 17.4199" stroke="white" stroke-width="2.30263" stroke-linecap="round" stroke-linejoin="round"/>
<path d="M10.3616 12.6637C12.905 12.6637 14.9669 10.6018 14.9669 8.05839C14.9669 5.51497 12.905 3.45312 10.3616 3.45312C7.81819 3.45312 5.75635 5.51497 5.75635 8.05839C5.75635 10.6018 7.81819 12.6637 10.3616 12.6637Z" stroke="white" stroke-width="2.30263" stroke-linecap="round" stroke-linejoin="round"/>
</svg>
