<svg width="24" height="24" viewBox="0 0 24 24" fill="none" xmlns="http://www.w3.org/2000/svg">
<path d="M15.2734 12.7188L16.7685 21.1326C16.7853 21.2316 16.7714 21.3335 16.7287 21.4244C16.686 21.5154 16.6165 21.5911 16.5296 21.6416C16.4427 21.692 16.3425 21.7147 16.2423 21.7066C16.1422 21.6985 16.0469 21.6601 15.9692 21.5964L12.4363 18.9447C12.2657 18.8173 12.0585 18.7485 11.8456 18.7485C11.6328 18.7485 11.4256 18.8173 11.255 18.9447L7.71621 21.5954C7.63856 21.659 7.54337 21.6974 7.44334 21.7055C7.34331 21.7136 7.24319 21.6909 7.15634 21.6407C7.06948 21.5904 7.00003 21.5148 6.95725 21.424C6.91446 21.3332 6.90037 21.2316 6.91686 21.1326L8.41094 12.7188" stroke="white" stroke-width="1.97368" stroke-linecap="round" stroke-linejoin="round"/>
<path d="M11.8424 13.8148C15.1125 13.8148 17.7635 11.1638 17.7635 7.89371C17.7635 4.6236 15.1125 1.97266 11.8424 1.97266C8.57233 1.97266 5.92139 4.6236 5.92139 7.89371C5.92139 11.1638 8.57233 13.8148 11.8424 13.8148Z" stroke="white" stroke-width="1.97368" stroke-linecap="round" stroke-linejoin="round"/>
</svg>
