<svg width="24" height="24" viewBox="0 0 24 24" fill="none" xmlns="http://www.w3.org/2000/svg">
<path d="M13.6495 16.349C13.8533 16.4426 14.0829 16.464 14.3005 16.4096C14.5181 16.3553 14.7106 16.2284 14.8465 16.05L15.1968 15.5911C15.3807 15.346 15.6191 15.147 15.8931 15.01C16.1672 14.8729 16.4694 14.8016 16.7758 14.8016H19.7363C20.2598 14.8016 20.7618 15.0095 21.1319 15.3797C21.502 15.7498 21.71 16.2518 21.71 16.7753V19.7358C21.71 20.2593 21.502 20.7613 21.1319 21.1314C20.7618 21.5016 20.2598 21.7095 19.7363 21.7095C15.0252 21.7095 10.5071 19.838 7.17585 16.5068C3.84462 13.1756 1.97314 8.65742 1.97314 3.94634C1.97314 3.42289 2.18109 2.92087 2.55122 2.55073C2.92136 2.1806 3.42338 1.97266 3.94683 1.97266H6.90736C7.43081 1.97266 7.93282 2.1806 8.30296 2.55073C8.6731 2.92087 8.88104 3.42289 8.88104 3.94634V6.90687C8.88104 7.21327 8.8097 7.51547 8.67267 7.78953C8.53564 8.06358 8.33669 8.30197 8.09157 8.48581L7.62972 8.8322C7.44856 8.97053 7.32086 9.16731 7.26833 9.38912C7.2158 9.61093 7.24168 9.84408 7.34157 10.049C8.69026 12.7883 10.9084 15.0037 13.6495 16.349Z" stroke="white" stroke-width="1.97368" stroke-linecap="round" stroke-linejoin="round"/>
</svg>
