<svg width="40" height="40" viewBox="0 0 40 40" fill="none" xmlns="http://www.w3.org/2000/svg">
<path d="M26.3158 4.93359C25.4434 4.93359 24.6067 5.28016 23.9898 5.89706C23.3729 6.51395 23.0264 7.35064 23.0264 8.22307V18.0915C23.0264 18.9639 23.3729 19.8006 23.9898 20.4175C24.6067 21.0344 25.4434 21.381 26.3158 21.381C26.7521 21.381 27.1704 21.5542 27.4788 21.8627C27.7873 22.1711 27.9606 22.5895 27.9606 23.0257V24.6704C27.9606 25.5429 27.614 26.3795 26.9971 26.9964C26.3802 27.6133 25.5435 27.9599 24.6711 27.9599C24.2349 27.9599 23.8165 28.1332 23.5081 28.4416C23.1997 28.7501 23.0264 29.1684 23.0264 29.6046V32.8941C23.0264 33.3303 23.1997 33.7487 23.5081 34.0571C23.8165 34.3656 24.2349 34.5389 24.6711 34.5389C27.2884 34.5389 29.7984 33.4992 31.6491 31.6485C33.4998 29.7978 34.5395 27.2877 34.5395 24.6704V8.22307C34.5395 7.35064 34.193 6.51395 33.5761 5.89706C32.9592 5.28016 32.1225 4.93359 31.2501 4.93359H26.3158Z" stroke="#223F7F" stroke-opacity="0.2" stroke-width="3.28947" stroke-linecap="round" stroke-linejoin="round"/>
<path d="M8.22453 4.93359C7.35211 4.93359 6.51542 5.28016 5.89852 5.89706C5.28163 6.51395 4.93506 7.35064 4.93506 8.22307V18.0915C4.93506 18.9639 5.28163 19.8006 5.89852 20.4175C6.51542 21.0344 7.35211 21.381 8.22453 21.381C8.66074 21.381 9.07909 21.5542 9.38754 21.8627C9.69598 22.1711 9.86927 22.5895 9.86927 23.0257V24.6704C9.86927 25.5429 9.5227 26.3795 8.9058 26.9964C8.28891 27.6133 7.45222 27.9599 6.5798 27.9599C6.14358 27.9599 5.72524 28.1332 5.41679 28.4416C5.10834 28.7501 4.93506 29.1684 4.93506 29.6046V32.8941C4.93506 33.3303 5.10834 33.7487 5.41679 34.0571C5.72524 34.3656 6.14358 34.5389 6.5798 34.5389C9.19706 34.5389 11.7071 33.4992 13.5578 31.6485C15.4085 29.7978 16.4482 27.2877 16.4482 24.6704V8.22307C16.4482 7.35064 16.1016 6.51395 15.4848 5.89706C14.8679 5.28016 14.0312 4.93359 13.1587 4.93359H8.22453Z" stroke="#223F7F" stroke-opacity="0.2" stroke-width="3.28947" stroke-linecap="round" stroke-linejoin="round"/>
</svg>
