<svg width="24" height="24" viewBox="0 0 24 24" fill="none" xmlns="http://www.w3.org/2000/svg">
<path d="M15.7889 20.7238V18.7501C15.7889 17.7032 15.3731 16.6992 14.6328 15.9589C13.8925 15.2186 12.8885 14.8027 11.8416 14.8027H5.92051C4.87361 14.8027 3.86958 15.2186 3.1293 15.9589C2.38903 16.6992 1.97314 17.7032 1.97314 18.7501V20.7238" stroke="white" stroke-width="1.97368" stroke-linecap="round" stroke-linejoin="round"/>
<path d="M15.7891 3.08594C16.6355 3.30538 17.3852 3.79969 17.9203 4.49126C18.4555 5.18284 18.7458 6.03254 18.7458 6.90699C18.7458 7.78144 18.4555 8.63114 17.9203 9.32272C17.3852 10.0143 16.6355 10.5086 15.7891 10.728" stroke="white" stroke-width="1.97368" stroke-linecap="round" stroke-linejoin="round"/>
<path d="M21.71 20.7225V18.7488C21.7094 17.8742 21.4183 17.0245 20.8824 16.3333C20.3466 15.642 19.5964 15.1483 18.7495 14.9297" stroke="white" stroke-width="1.97368" stroke-linecap="round" stroke-linejoin="round"/>
<path d="M8.88145 10.8557C11.0615 10.8557 12.8288 9.08838 12.8288 6.90831C12.8288 4.72823 11.0615 2.96094 8.88145 2.96094C6.70138 2.96094 4.93408 4.72823 4.93408 6.90831C4.93408 9.08838 6.70138 10.8557 8.88145 10.8557Z" stroke="white" stroke-width="1.97368" stroke-linecap="round" stroke-linejoin="round"/>
</svg>
