<svg width="18" height="18" viewBox="0 0 18 18" fill="none" xmlns="http://www.w3.org/2000/svg">
<g clip-path="url(#clip0_752_1599)">
<path d="M16.136 7.40209C16.474 9.06095 16.2332 10.7855 15.4535 12.2883C14.6739 13.791 13.4026 14.9811 11.8518 15.66C10.3009 16.3389 8.56421 16.4656 6.93124 16.019C5.29827 15.5724 3.86775 14.5794 2.87826 13.2058C1.88877 11.8321 1.4001 10.1607 1.49376 8.47039C1.58742 6.78004 2.25774 5.17288 3.39293 3.91694C4.52812 2.66099 6.05957 1.83218 7.73189 1.56871C9.4042 1.30524 11.1163 1.62304 12.5827 2.46911" stroke="#008C8C" stroke-width="1.48026" stroke-linecap="round" stroke-linejoin="round"/>
<path d="M6.66162 8.14186L8.88202 10.3623L16.2833 2.96094" stroke="#008C8C" stroke-width="1.48026" stroke-linecap="round" stroke-linejoin="round"/>
</g>
<defs>
<clipPath id="clip0_752_1599">
<rect width="17.7632" height="17.7632" fill="white"/>
</clipPath>
</defs>
</svg>
