<svg width="32" height="32" viewBox="0 0 32 32" fill="none" xmlns="http://www.w3.org/2000/svg">
<path d="M7.89476 28.9467C7.19682 28.9467 6.52747 28.6694 6.03396 28.1759C5.54044 27.6824 5.26318 27.013 5.26318 26.3151V5.26244C5.26318 4.5645 5.54044 3.89515 6.03396 3.40164C6.52747 2.90812 7.19682 2.63086 7.89476 2.63086H18.4211C18.8376 2.63019 19.2501 2.71192 19.6349 2.87135C20.0197 3.03078 20.3692 3.26476 20.6632 3.55981L25.3842 8.28086C25.6801 8.57495 25.9147 8.92474 26.0746 9.31002C26.2345 9.69531 26.3165 10.1085 26.3158 10.5256V26.3151C26.3158 27.013 26.0386 27.6824 25.545 28.1759C25.0515 28.6694 24.3822 28.9467 23.6842 28.9467H7.89476Z" stroke="#008C8C" stroke-width="2.63158" stroke-linecap="round" stroke-linejoin="round"/>
<path d="M18.4214 2.63086V9.20981C18.4214 9.55878 18.56 9.89345 18.8068 10.1402C19.0535 10.387 19.3882 10.5256 19.7372 10.5256H26.3161" stroke="#008C8C" stroke-width="2.63158" stroke-linecap="round" stroke-linejoin="round"/>
<path d="M13.1584 11.8418H10.5269" stroke="#008C8C" stroke-width="2.63158" stroke-linecap="round" stroke-linejoin="round"/>
<path d="M21.0532 17.1055H10.5269" stroke="#008C8C" stroke-width="2.63158" stroke-linecap="round" stroke-linejoin="round"/>
<path d="M21.0532 22.3691H10.5269" stroke="#008C8C" stroke-width="2.63158" stroke-linecap="round" stroke-linejoin="round"/>
</svg>
