<svg width="31" height="31" viewBox="0 0 31 31" fill="none" xmlns="http://www.w3.org/2000/svg">
<path d="M0 6.0536C0 2.71029 2.71029 0 6.0536 0H24.2144C27.5577 0 30.268 2.71029 30.268 6.0536V24.2144C30.268 27.5577 27.5577 30.268 24.2144 30.268H6.0536C2.71029 30.268 0 27.5577 0 24.2144V6.0536Z" fill="white"/>
<g clip-path="url(#clip0_752_2221)">
<path d="M20.1787 13.8728C20.1787 17.0213 16.6859 20.3003 15.513 21.313C15.4037 21.3952 15.2707 21.4396 15.134 21.4396C14.9973 21.4396 14.8643 21.3952 14.755 21.313C13.5822 20.3003 10.0894 17.0213 10.0894 13.8728C10.0894 12.5349 10.6208 11.2517 11.5669 10.3057C12.513 9.35962 13.7961 8.82813 15.134 8.82812C16.472 8.82812 17.7551 9.35962 18.7011 10.3057C19.6472 11.2517 20.1787 12.5349 20.1787 13.8728Z" stroke="#223F7F" stroke-width="1.26117" stroke-linecap="round" stroke-linejoin="round"/>
<path d="M15.1341 15.764C16.1788 15.764 17.0258 14.917 17.0258 13.8722C17.0258 12.8274 16.1788 11.9805 15.1341 11.9805C14.0893 11.9805 13.2423 12.8274 13.2423 13.8722C13.2423 14.917 14.0893 15.764 15.1341 15.764Z" stroke="#223F7F" stroke-width="1.26117" stroke-linecap="round" stroke-linejoin="round"/>
</g>
<defs>
<clipPath id="clip0_752_2221">
<rect width="15.134" height="15.134" fill="white" transform="translate(7.56702 7.56641)"/>
</clipPath>
</defs>
</svg>
