<svg width="28" height="28" viewBox="0 0 28 28" fill="none" xmlns="http://www.w3.org/2000/svg">
    <path d="M18.421 24.1772V21.8746C18.421 20.6532 17.9358 19.4818 17.0722 18.6181C16.2085 17.7545 15.0372 17.2693 13.8158 17.2693H6.90788C5.68648 17.2693 4.51512 17.7545 3.65146 18.6181C2.78781 19.4818 2.30261 20.6532 2.30261 21.8746V24.1772" stroke="white" stroke-width="2.3" stroke-linecap="round" stroke-linejoin="round" />
    <path d="M18.4211 3.60181C19.4086 3.85782 20.2832 4.43451 20.9076 5.24135C21.5319 6.04819 21.8707 7.03951 21.8707 8.0597C21.8707 9.0799 21.5319 10.0712 20.9076 10.8781C20.2832 11.6849 19.4086 12.2616 18.4211 12.5176" stroke="white" stroke-width="2.3" stroke-linecap="round" stroke-linejoin="round" />
    <path d="M25.3291 24.1774V21.8748C25.3283 20.8544 24.9887 19.8632 24.3636 19.0567C23.7384 18.2503 22.8631 17.6743 21.8752 17.4192" stroke="white" stroke-width="2.3" stroke-linecap="round" stroke-linejoin="round" />
    <path d="M10.3619 12.6646C12.9053 12.6646 14.9672 10.6028 14.9672 8.05936C14.9672 5.51595 12.9053 3.4541 10.3619 3.4541C7.8185 3.4541 5.75665 5.51595 5.75665 8.05936C5.75665 10.6028 7.8185 12.6646 10.3619 12.6646Z" stroke="white" stroke-width="2.3" stroke-linecap="round" stroke-linejoin="round" />
</svg>
