<svg width="24" height="24" viewBox="0 0 24 24" fill="none" xmlns="http://www.w3.org/2000/svg">
    <path d="M11 17L13 19C13.2 19.2 13.43 19.36 13.69 19.46C13.95 19.57 14.23 19.62 14.51 19.62C14.79 19.62 15.07 19.57 15.33 19.46C15.59 19.36 15.82 19.2 16.02 19.01C16.22 18.81 16.38 18.57 16.48 18.31C16.59 18.05 16.64 17.77 16.64 17.49C16.64 17.21 16.59 16.93 16.48 16.67C16.38 16.41 16.22 16.17 16.02 15.98C15.82 15.78 15.58 15.62 15.32 15.52" stroke="#223F7F" stroke-width="2" stroke-linecap="round" stroke-linejoin="round" />
    <path d="M14 14L16.5 16.5C16.9 16.9 17.44 17.12 18 17.12C18.56 17.12 19.1 16.9 19.5 16.5C19.9 16.1 20.12 15.56 20.12 15C20.12 14.44 19.9 13.9 19.5 13.5L15.63 9.63C15.07 9.07 14.31 8.75 13.52 8.75C12.73 8.75 11.97 9.07 11.41 9.63L10.53 10.51C10.13 10.91 9.59 11.13 9.03 11.13C8.47 11.13 7.93 10.91 7.53 10.51C7.13 10.11 6.91 9.57 6.91 9.01C6.91 8.45 7.13 7.91 7.53 7.51L10.33 4.71C11.24 3.8 12.43 3.22 13.7 3.06C14.97 2.9 16.26 3.17 17.36 3.83L17.83 4.11C18.25 4.37 18.75 4.46 19.24 4.36L20.97 4.01" stroke="#223F7F" stroke-width="2" stroke-linecap="round" stroke-linejoin="round" />
    <path d="M20.97 3L21.97 14H20" stroke="#223F7F" stroke-width="2" stroke-linecap="round" stroke-linejoin="round" />
    <path d="M3 3L2 14L8.5 20.5C8.9 20.9 9.44 21.12 10 21.12C10.56 21.12 11.1 20.9 11.5 20.5C11.9 20.1 12.12 19.56 12.12 19C12.12 18.44 11.9 17.9 11.5 17.5" stroke="#223F7F" stroke-width="2" stroke-linecap="round" stroke-linejoin="round" />
    <path d="M3 4H11" stroke="#223F7F" stroke-width="2" stroke-linecap="round" stroke-linejoin="round" />
</svg>
