<svg width="24" height="24" viewBox="0 0 24 24" fill="none" xmlns="http://www.w3.org/2000/svg">
    <path d="M11.9998 8C16.9703 8 20.9998 6.65685 20.9998 5C20.9998 3.34315 16.9703 2 11.9998 2C7.02919 2 2.99976 3.34315 2.99976 5C2.99976 6.65685 7.02919 8 11.9998 8Z" stroke="white" stroke-width="2" stroke-linecap="round" stroke-linejoin="round" />
    <path d="M2.99976 5V19C2.99976 19.7956 3.94797 20.5587 5.63579 21.1213C7.32362 21.6839 9.61281 22 11.9998 22C14.3867 22 16.6759 21.6839 18.3637 21.1213C20.0515 20.5587 20.9998 19.7956 20.9998 19V5" stroke="white" stroke-width="2" stroke-linecap="round" stroke-linejoin="round" />
    <path d="M2.99976 12C2.99976 12.7956 3.94797 13.5587 5.63579 14.1213C7.32362 14.6839 9.61281 15 11.9998 15C14.3867 15 16.6759 14.6839 18.3637 14.1213C20.0515 13.5587 20.9998 12.7956 20.9998 12" stroke="white" stroke-width="2" stroke-linecap="round" stroke-linejoin="round" />
</svg>
