<svg width="23" height="23" viewBox="0 0 23 23" fill="none" xmlns="http://www.w3.org/2000/svg">
    <path d="M11.2646 16.8987V4.69531" stroke="#223F7F" stroke-width="1.40808" stroke-linecap="round" stroke-linejoin="round" />
    <path d="M14.0806 12.208C13.2684 11.9706 12.555 11.4764 12.0473 10.7995C11.5396 10.1225 11.2649 9.2993 11.2644 8.45312C11.2639 9.2993 10.9892 10.1225 10.4815 10.7995C9.97381 11.4764 9.26043 11.9706 8.44824 12.208" stroke="#223F7F" stroke-width="1.40808" stroke-linecap="round" stroke-linejoin="round" />
    <path d="M16.5201 6.10719C16.7361 5.7331 16.8632 5.31433 16.8914 4.88328C16.9197 4.45222 16.8484 4.02045 16.6831 3.62135C16.5178 3.22225 16.2629 2.86653 15.9382 2.5817C15.6134 2.29687 15.2275 2.09058 14.8102 1.97877C14.3929 1.86697 13.9556 1.85265 13.5319 1.93693C13.1082 2.02121 12.7096 2.20182 12.3669 2.4648C12.0242 2.72778 11.7466 3.06607 11.5555 3.4535C11.3645 3.84094 11.2651 4.26713 11.2651 4.6991C11.2652 4.26713 11.1658 3.84094 10.9748 3.4535C10.7837 3.06607 10.5061 2.72778 10.1634 2.4648C9.82069 2.20182 9.42209 2.02121 8.99841 1.93693C8.57473 1.85265 8.13735 1.86697 7.72009 1.97877C7.30284 2.09058 6.91689 2.29687 6.59212 2.5817C6.26735 2.86653 6.01245 3.22225 5.84715 3.62135C5.68185 4.02045 5.61058 4.45222 5.63885 4.88328C5.66712 5.31433 5.79417 5.7331 6.01018 6.10719" stroke="#223F7F" stroke-width="1.40808" stroke-linecap="round" stroke-linejoin="round" />
    <path d="M16.8945 4.8125C17.4463 4.95438 17.9586 5.21995 18.3925 5.58912C18.8265 5.95828 19.1707 6.42135 19.3992 6.94326C19.6277 7.46516 19.7344 8.03222 19.7113 8.60148C19.6882 9.17074 19.5358 9.72727 19.2657 10.2289" stroke="#223F7F" stroke-width="1.40808" stroke-linecap="round" stroke-linejoin="round" />
    <path d="M16.8975 16.9051C17.724 16.905 18.5275 16.6323 19.1832 16.1291C19.8389 15.6259 20.3103 14.9204 20.5242 14.122C20.7382 13.3236 20.6827 12.477 20.3664 11.7133C20.0501 10.9497 19.4907 10.3117 18.7749 9.89844" stroke="#223F7F" stroke-width="1.40808" stroke-linecap="round" stroke-linejoin="round" />
    <path d="M18.7435 16.4141C18.8092 16.9231 18.77 17.4402 18.6281 17.9334C18.4862 18.4266 18.2447 18.8856 17.9185 19.2818C17.5923 19.6781 17.1884 20.0032 16.7316 20.2373C16.2748 20.4713 15.7749 20.6091 15.2627 20.6424C14.7505 20.6756 14.237 20.6035 13.7538 20.4305C13.2706 20.2575 12.828 19.9872 12.4533 19.6365C12.0786 19.2857 11.7799 18.8618 11.5754 18.3911C11.371 17.9203 11.2652 17.4126 11.2647 16.8994C11.2641 17.4126 11.1584 17.9203 10.9539 18.3911C10.7495 18.8618 10.4507 19.2857 10.076 19.6365C9.70134 19.9872 9.25873 20.2575 8.77553 20.4305C8.29233 20.6035 7.77879 20.6756 7.26662 20.6424C6.75445 20.6091 6.25454 20.4713 5.79775 20.2373C5.34096 20.0032 4.93699 19.6781 4.61079 19.2818C4.2846 18.8856 4.0431 18.4266 3.90122 17.9334C3.75933 17.4402 3.72007 16.9231 3.78586 16.4141" stroke="#223F7F" stroke-width="1.40808" stroke-linecap="round" stroke-linejoin="round" />
    <path d="M5.63266 16.9051C4.80611 16.905 4.00266 16.6323 3.34693 16.1291C2.69119 15.6259 2.21981 14.9204 2.00588 14.122C1.79195 13.3236 1.84743 12.477 2.16372 11.7133C2.48 10.9497 3.03942 10.3117 3.75521 9.89844" stroke="#223F7F" stroke-width="1.40808" stroke-linecap="round" stroke-linejoin="round" />
    <path d="M5.63526 4.8125C5.08348 4.95438 4.57122 5.21995 4.13728 5.58912C3.70334 5.95828 3.35909 6.42135 3.13061 6.94326C2.90212 7.46516 2.7954 8.03222 2.81852 8.60148C2.84164 9.17074 2.994 9.72727 3.26405 10.2289" stroke="#223F7F" stroke-width="1.40808" stroke-linecap="round" stroke-linejoin="round" />
</svg>
