<svg width="23" height="23" viewBox="0 0 23 23" fill="none" xmlns="http://www.w3.org/2000/svg">
    <path d="M9.3877 15.0234C9.85706 15.3051 10.5142 15.4928 11.2651 15.4928C12.0161 15.4928 12.6732 15.3051 13.1426 15.0234" stroke="#223F7F" stroke-width="1.40808" stroke-linecap="round" stroke-linejoin="round" />
    <path d="M14.0811 11.2656H14.0911" stroke="#223F7F" stroke-width="1.40808" stroke-linecap="round" stroke-linejoin="round" />
    <path d="M18.1929 6.39966C18.8511 7.35659 19.3048 8.43894 19.5259 9.57911C19.8433 9.73285 20.111 9.97288 20.2983 10.2717C20.4857 10.5706 20.585 10.9161 20.585 11.2688C20.585 11.6215 20.4857 11.9671 20.2983 12.2659C20.111 12.5647 19.8433 12.8048 19.5259 12.9585C19.1207 14.8486 18.0795 16.5426 16.5762 17.7578C15.0728 18.9729 13.1982 19.6358 11.2652 19.6358C9.3321 19.6358 7.4575 18.9729 5.95416 17.7578C4.45081 16.5426 3.40965 14.8486 3.0044 12.9585C2.68698 12.8048 2.41928 12.5647 2.23197 12.2659C2.04466 11.9671 1.94531 11.6215 1.94531 11.2688C1.94531 10.9161 2.04466 10.5706 2.23197 10.2717C2.41928 9.97288 2.68698 9.73285 3.0044 9.57911C3.39328 7.67398 4.4274 5.9613 5.9323 4.73002C7.43719 3.49874 9.32074 2.82424 11.2652 2.82031C13.1426 2.82031 14.5507 3.85291 14.5507 5.16712C14.5507 6.48133 13.7058 7.51392 12.6732 7.51392C11.9223 7.51392 11.2652 7.13844 11.2652 6.5752" stroke="#223F7F" stroke-width="1.40808" stroke-linecap="round" stroke-linejoin="round" />
    <path d="M8.44824 11.2656H8.45824" stroke="#223F7F" stroke-width="1.40808" stroke-linecap="round" stroke-linejoin="round" />
</svg>
