<svg width="23" height="23" viewBox="0 0 23 23" fill="none" xmlns="http://www.w3.org/2000/svg">
    <path d="M9.85602 19.2432L19.2432 9.85602C19.6819 9.42615 20.031 8.91359 20.2703 8.34798C20.5096 7.78237 20.6344 7.17492 20.6375 6.56077C20.6406 5.94662 20.5219 5.33794 20.2883 4.76994C20.0548 4.20194 19.7109 3.68588 19.2766 3.2516C18.8423 2.81733 18.3263 2.47345 17.7583 2.23986C17.1903 2.00626 16.5816 1.88758 15.9674 1.89068C15.3533 1.89379 14.7458 2.01861 14.1802 2.25793C13.6146 2.49725 13.1021 2.84632 12.6722 3.28496L3.28496 12.6722C2.84632 13.1021 2.49725 13.6146 2.25793 14.1802C2.01861 14.7458 1.89379 15.3533 1.89068 15.9674C1.88758 16.5816 2.00626 17.1903 2.23986 17.7583C2.47345 18.3263 2.81733 18.8423 3.2516 19.2766C3.68588 19.7109 4.20194 20.0548 4.76994 20.2883C5.33794 20.5219 5.94662 20.6406 6.56077 20.6375C7.17492 20.6344 7.78237 20.5096 8.34798 20.2703C8.91359 20.031 9.42615 19.6819 9.85602 19.2432Z" stroke="#223F7F" stroke-width="1.40808" stroke-linecap="round" stroke-linejoin="round" />
    <path d="M7.97949 7.97656L14.5505 14.5476" stroke="#223F7F" stroke-width="1.40808" stroke-linecap="round" stroke-linejoin="round" />
</svg>
