<svg width="32" height="32" viewBox="0 0 32 32" fill="none" xmlns="http://www.w3.org/2000/svg">
    <path d="M19.7375 2.63177H11.8428C11.1161 2.63177 10.527 3.22087 10.527 3.94756V6.57914C10.527 7.30583 11.1161 7.89493 11.8428 7.89493H19.7375C20.4642 7.89493 21.0533 7.30583 21.0533 6.57914V3.94756C21.0533 3.22087 20.4642 2.63177 19.7375 2.63177Z" stroke="#008C8C" stroke-width="2.63158" stroke-linecap="round" stroke-linejoin="round" />
    <path d="M21.053 5.26352H23.6846C24.3825 5.26352 25.0519 5.54077 25.5454 6.03429C26.0389 6.52781 26.3162 7.19716 26.3162 7.8951V26.3162C26.3162 27.0141 26.0389 27.6834 25.5454 28.177C25.0519 28.6705 24.3825 28.9477 23.6846 28.9477H7.89513C7.19719 28.9477 6.52784 28.6705 6.03432 28.177C5.5408 27.6834 5.26355 27.0141 5.26355 26.3162V7.8951C5.26355 7.19716 5.5408 6.52781 6.03432 6.03429C6.52784 5.54077 7.19719 5.26352 7.89513 5.26352H10.5267" stroke="#008C8C" stroke-width="2.63158" stroke-linecap="round" stroke-linejoin="round" />
    <path d="M11.842 18.4216L14.4736 21.0531L19.7368 15.79" stroke="#008C8C" stroke-width="2.63158" stroke-linecap="round" stroke-linejoin="round" />
</svg>
