<svg width="32" height="32" viewBox="0 0 32 32" fill="none" xmlns="http://www.w3.org/2000/svg">
    <path d="M14.666 22.6654L17.3327 25.332C17.5953 25.5947 17.9071 25.803 18.2503 25.9452C18.5935 26.0873 18.9612 26.1605 19.3327 26.1605C19.7041 26.1605 20.0719 26.0873 20.4151 25.9452C20.7582 25.803 21.07 25.5947 21.3327 25.332C21.5953 25.0694 21.8037 24.7576 21.9458 24.4144C22.088 24.0713 22.1611 23.7035 22.1611 23.332C22.1611 22.9606 22.088 22.5928 21.9458 22.2496C21.8037 21.9065 21.5953 21.5947 21.3327 21.332" stroke="white" stroke-width="2" stroke-linecap="round" stroke-linejoin="round" />
    <path d="M18.667 18.6673L22.0003 22.0007C22.5307 22.5311 23.2502 22.8291 24.0003 22.8291C24.7504 22.8291 25.4699 22.5311 26.0003 22.0007C26.5307 21.4702 26.8287 20.7508 26.8287 20.0007C26.8287 19.2505 26.5307 18.5311 26.0003 18.0007L20.827 12.8273C20.077 12.0783 19.0603 11.6575 18.0003 11.6575C16.9403 11.6575 15.9236 12.0783 15.1736 12.8273L14.0003 14.0007C13.4699 14.5311 12.7504 14.8291 12.0003 14.8291C11.2502 14.8291 10.5307 14.5311 10.0003 14.0007C9.46987 13.4702 9.17188 12.7508 9.17188 12.0007C9.17188 11.2505 9.46987 10.5311 10.0003 10.0007L13.747 6.254C14.9633 5.04086 16.5495 4.26807 18.2545 4.05797C19.9595 3.84786 21.6859 4.21245 23.1603 5.094L23.787 5.46734C24.3547 5.80999 25.0297 5.92883 25.6803 5.80067L28.0003 5.334" stroke="white" stroke-width="2" stroke-linecap="round" stroke-linejoin="round" />
    <path d="M27.9993 4L29.3327 18.6667H26.666" stroke="white" stroke-width="2" stroke-linecap="round" stroke-linejoin="round" />
    <path d="M3.99935 4L2.66602 18.6667L11.3327 27.3333C11.8631 27.8638 12.5825 28.1618 13.3327 28.1618C14.0828 28.1618 14.8022 27.8638 15.3327 27.3333C15.8631 26.8029 16.1611 26.0835 16.1611 25.3333C16.1611 24.5832 15.8631 23.8638 15.3327 23.3333" stroke="white" stroke-width="2" stroke-linecap="round" stroke-linejoin="round" />
    <path d="M4 5.33203H14.6667" stroke="white" stroke-width="2" stroke-linecap="round" stroke-linejoin="round" />
</svg>
