<svg width="23" height="23" viewBox="0 0 23 23" fill="none" xmlns="http://www.w3.org/2000/svg">
    <path d="M9.3877 9.38281H5.63281" stroke="#223F7F" stroke-width="1.40808" stroke-linecap="round" stroke-linejoin="round" />
    <path d="M13.1426 16.8921V5.62744C13.1426 5.12952 12.9448 4.65198 12.5927 4.29989C12.2406 3.9478 11.7631 3.75 11.2652 3.75H3.75537C3.25745 3.75 2.77991 3.9478 2.42782 4.29989C2.07573 4.65198 1.87793 5.12952 1.87793 5.62744V15.9534C1.87793 16.2024 1.97683 16.4411 2.15288 16.6172C2.32892 16.7932 2.56769 16.8921 2.81665 16.8921H4.6941" stroke="#223F7F" stroke-width="1.40808" stroke-linecap="round" stroke-linejoin="round" />
    <path d="M17.8362 16.895H19.7136C19.9626 16.895 20.2014 16.7961 20.3774 16.6201C20.5535 16.444 20.6524 16.2053 20.6524 15.9563V12.8773C20.6522 12.6804 20.5901 12.4885 20.4749 12.3288C20.3597 12.169 20.1971 12.0496 20.0103 11.9874L18.2051 11.3857C18.0881 11.3466 17.98 11.2849 17.8869 11.204C17.7938 11.1232 17.7176 11.0248 17.6625 10.9144L16.2178 8.02693C16.1399 7.87102 16.0202 7.73988 15.8719 7.6482C15.7237 7.55652 15.5529 7.50791 15.3786 7.50781H13.1426" stroke="#223F7F" stroke-width="1.40808" stroke-linecap="round" stroke-linejoin="round" />
    <path d="M7.50977 7.50781V11.2627" stroke="#223F7F" stroke-width="1.40808" stroke-linecap="round" stroke-linejoin="round" />
    <path d="M8.44824 16.8906H14.0806" stroke="#223F7F" stroke-width="1.40808" stroke-linecap="round" stroke-linejoin="round" />
    <circle cx="15.9585" cy="16.8931" r="1.87745" stroke="#223F7F" stroke-width="1.40808" stroke-linecap="round" stroke-linejoin="round" />
    <circle cx="6.5708" cy="16.8931" r="1.87745" stroke="#223F7F" stroke-width="1.40808" stroke-linecap="round" stroke-linejoin="round" />
</svg>
