<svg width="28" height="28" viewBox="0 0 28 28" fill="none" xmlns="http://www.w3.org/2000/svg">
    <path d="M13.8159 8.0603V12.6656" stroke="white" stroke-width="2.3" stroke-linecap="round" stroke-linejoin="round" />
    <path d="M16.1184 24.1785V20.7245C16.1184 20.1138 15.8758 19.5281 15.444 19.0963C15.0122 18.6645 14.4265 18.4219 13.8158 18.4219C13.2051 18.4219 12.6194 18.6645 12.1876 19.0963C11.7558 19.5281 11.5132 20.1138 11.5132 20.7245V24.1785" stroke="white" stroke-width="2.3" stroke-linecap="round" stroke-linejoin="round" />
    <path d="M16.1184 10.3621H11.5132" stroke="white" stroke-width="2.3" stroke-linecap="round" stroke-linejoin="round" />
    <path d="M20.7239 12.6639H23.0265C23.6372 12.6639 24.2229 12.9065 24.6547 13.3383C25.0866 13.7702 25.3292 14.3558 25.3292 14.9665V21.8744C25.3292 22.4851 25.0866 23.0708 24.6547 23.5026C24.2229 23.9345 23.6372 24.1771 23.0265 24.1771H4.60549C3.99479 24.1771 3.40911 23.9345 2.97728 23.5026C2.54545 23.0708 2.30286 22.4851 2.30286 21.8744V11.5126C2.30286 10.9019 2.54545 10.3162 2.97728 9.88439C3.40911 9.45256 3.99479 9.20996 4.60549 9.20996H6.90812" stroke="white" stroke-width="2.3" stroke-linecap="round" stroke-linejoin="round" />
    <path d="M20.7241 24.1775V5.75649C20.7241 5.14579 20.4815 4.56011 20.0496 4.12828C19.6178 3.69646 19.0321 3.45386 18.4214 3.45386H9.2109C8.6002 3.45386 8.01452 3.69646 7.58269 4.12828C7.15086 4.56011 6.90826 5.14579 6.90826 5.75649V24.1775" stroke="white" stroke-width="2.3" stroke-linecap="round" stroke-linejoin="round" />
</svg>
