<svg width="25" height="25" viewBox="0 0 25 25" fill="none" xmlns="http://www.w3.org/2000/svg">
    <path d="M12.5 7.29297V21.8763" stroke="white" stroke-width="2.08333" stroke-linecap="round" stroke-linejoin="round" />
    <path d="M3.12565 18.75C2.84938 18.75 2.58443 18.6403 2.38908 18.4449C2.19373 18.2496 2.08398 17.9846 2.08398 17.7083V4.16667C2.08398 3.8904 2.19373 3.62545 2.38908 3.4301C2.58443 3.23475 2.84938 3.125 3.12565 3.125H8.33398C9.43905 3.125 10.4989 3.56399 11.2803 4.34539C12.0617 5.12679 12.5007 6.1866 12.5007 7.29167C12.5007 6.1866 12.9396 5.12679 13.721 4.34539C14.5024 3.56399 15.5622 3.125 16.6673 3.125H21.8757C22.1519 3.125 22.4169 3.23475 22.6122 3.4301C22.8076 3.62545 22.9173 3.8904 22.9173 4.16667V17.7083C22.9173 17.9846 22.8076 18.2496 22.6122 18.4449C22.4169 18.6403 22.1519 18.75 21.8757 18.75H15.6257C14.7969 18.75 14.002 19.0792 13.4159 19.6653C12.8299 20.2513 12.5007 21.0462 12.5007 21.875C12.5007 21.0462 12.1714 20.2513 11.5854 19.6653C10.9993 19.0792 10.2045 18.75 9.37565 18.75H3.12565Z" stroke="white" stroke-width="2.08333" stroke-linecap="round" stroke-linejoin="round" />
</svg>
