<svg width="23" height="23" viewBox="0 0 23 23" fill="none" xmlns="http://www.w3.org/2000/svg">
    <path d="M13.6448 20.357C13.6805 20.4459 13.7425 20.5218 13.8225 20.5744C13.9025 20.627 13.9967 20.6539 14.0925 20.6515C14.1882 20.649 14.2809 20.6173 14.3581 20.5607C14.4353 20.504 14.4934 20.4251 14.5244 20.3345L20.6261 2.49878C20.6562 2.4156 20.6619 2.32559 20.6426 2.23927C20.6234 2.15296 20.58 2.07391 20.5174 2.01137C20.4549 1.94884 20.3758 1.90541 20.2895 1.88616C20.2032 1.86691 20.1132 1.87265 20.03 1.90269L2.1943 8.00439C2.10371 8.03545 2.02479 8.09349 1.96814 8.1707C1.91148 8.24791 1.8798 8.34061 1.87735 8.43635C1.8749 8.53208 1.90179 8.62628 1.95442 8.70629C2.00705 8.78631 2.08289 8.8483 2.17177 8.88397L9.61584 11.8691C9.85117 11.9633 10.065 12.1042 10.2444 12.2833C10.4238 12.4624 10.5651 12.6759 10.6597 12.9111L13.6448 20.357Z" stroke="white" stroke-width="1.87744" stroke-linecap="round" stroke-linejoin="round" />
    <path d="M20.5147 2.01367L10.2451 12.2824" stroke="white" stroke-width="1.87744" stroke-linecap="round" stroke-linejoin="round" />
</svg>
