<svg width="25" height="25" viewBox="0 0 25 25" fill="none" xmlns="http://www.w3.org/2000/svg">
    <path d="M20.8327 13.5408C20.8327 18.7492 17.1868 21.3533 12.8535 22.8638C12.6266 22.9406 12.3801 22.937 12.1556 22.8533C7.81185 21.3533 4.16602 18.7492 4.16602 13.5408V6.24917C4.16602 5.9729 4.27576 5.70795 4.47111 5.5126C4.66646 5.31725 4.93142 5.2075 5.20768 5.2075C7.29102 5.2075 9.89518 3.9575 11.7077 2.37417C11.9284 2.18562 12.2091 2.08203 12.4993 2.08203C12.7896 2.08203 13.0703 2.18562 13.291 2.37417C15.1139 3.96792 17.7077 5.2075 19.791 5.2075C20.0673 5.2075 20.3322 5.31725 20.5276 5.5126C20.7229 5.70795 20.8327 5.9729 20.8327 6.24917V13.5408Z" stroke="white" stroke-width="2.08333" stroke-linecap="round" stroke-linejoin="round" />
</svg>
