<svg width="28" height="28" viewBox="0 0 28 28" fill="none" xmlns="http://www.w3.org/2000/svg">
    <path d="M13.8161 25.3289C20.1747 25.3289 25.3293 20.1743 25.3293 13.8158C25.3293 7.45723 20.1747 2.30261 13.8161 2.30261C7.45759 2.30261 2.30298 7.45723 2.30298 13.8158C2.30298 20.1743 7.45759 25.3289 13.8161 25.3289Z" stroke="white" stroke-width="2.30263" stroke-linecap="round" stroke-linejoin="round"/>
    <path d="M13.8163 20.7237C17.6315 20.7237 20.7242 17.631 20.7242 13.8159C20.7242 10.0007 17.6315 6.90796 13.8163 6.90796C10.0012 6.90796 6.90845 10.0007 6.90845 13.8159C6.90845 17.631 10.0012 20.7237 13.8163 20.7237Z" stroke="white" stroke-width="2.30263" stroke-linecap="round" stroke-linejoin="round"/>
    <path d="M13.8164 16.1187C15.0881 16.1187 16.1191 15.0878 16.1191 13.8161C16.1191 12.5444 15.0881 11.5134 13.8164 11.5134C12.5447 11.5134 11.5138 12.5444 11.5138 13.8161C11.5138 15.0878 12.5447 16.1187 13.8164 16.1187Z" stroke="white" stroke-width="2.30263" stroke-linecap="round" stroke-linejoin="round"/>
</svg>
