<svg width="24" height="24" viewBox="0 0 24 24" fill="none" xmlns="http://www.w3.org/2000/svg">
    <path d="M9.86894 14.467V16.0716C9.86522 16.4097 9.77468 16.7412 9.60603 17.0343C9.43737 17.3274 9.19625 17.5722 8.90579 17.7453C8.28915 18.202 7.78753 18.7963 7.4408 19.4808C7.09407 20.1654 6.91178 20.9214 6.90842 21.6887" stroke="white" stroke-width="2" stroke-linecap="round" stroke-linejoin="round"/>
    <path d="M13.8166 14.467V16.0716C13.8203 16.4097 13.9108 16.7412 14.0795 17.0343C14.2481 17.3274 14.4892 17.5722 14.7797 17.7453C15.3964 18.202 15.898 18.7963 16.2447 19.4808C16.5914 20.1654 16.7737 20.9214 16.7771 21.6887" stroke="white" stroke-width="2" stroke-linecap="round" stroke-linejoin="round"/>
    <path d="M17.7639 8.88143H19.2442C19.8985 8.88143 20.526 8.6215 20.9887 8.15883C21.4514 7.69616 21.7113 7.06864 21.7113 6.41433C21.7113 5.76001 21.4514 5.13249 20.9887 4.66982C20.526 4.20715 19.8985 3.94722 19.2442 3.94722H17.7639" stroke="white" stroke-width="2" stroke-linecap="round" stroke-linejoin="round"/>
    <path d="M3.94763 21.7103H19.7371" stroke="white" stroke-width="2" stroke-linecap="round" stroke-linejoin="round"/>
    <path d="M5.92081 8.88144C5.92081 10.4518 6.54463 11.9578 7.65504 13.0683C8.76546 14.1787 10.2715 14.8025 11.8419 14.8025C13.4122 14.8025 14.9183 14.1787 16.0287 13.0683C17.1391 11.9578 17.7629 10.4518 17.7629 8.88144V2.96038C17.7629 2.69866 17.6589 2.44765 17.4739 2.26258C17.2888 2.07751 17.0378 1.97354 16.7761 1.97354H6.90765C6.64592 1.97354 6.39492 2.07751 6.20985 2.26258C6.02478 2.44765 5.92081 2.69866 5.92081 2.96038V8.88144Z" stroke="white" stroke-width="2" stroke-linecap="round" stroke-linejoin="round"/>
    <path d="M5.92082 8.88143H4.44055C3.78624 8.88143 3.15872 8.6215 2.69605 8.15883C2.23338 7.69616 1.97345 7.06864 1.97345 6.41433C1.97345 5.76001 2.23338 5.13249 2.69605 4.66982C3.15872 4.20715 3.78624 3.94722 4.44055 3.94722H5.92082" stroke="white" stroke-width="2" stroke-linecap="round" stroke-linejoin="round"/>
</svg>
