<svg width="23" height="23" viewBox="0 0 23 23" fill="none" xmlns="http://www.w3.org/2000/svg">
    <g clip-path="url(#clip0_27_1174)">
        <path d="M18.7744 9.38673C18.7744 14.0738 13.5749 18.9551 11.8288 20.4627C11.6662 20.585 11.4682 20.6512 11.2647 20.6512C11.0611 20.6512 10.8631 20.585 10.7005 20.4627C8.95447 18.9551 3.75488 14.0738 3.75488 9.38673C3.75488 7.39501 4.54609 5.48487 5.95445 4.07652C7.3628 2.66816 9.27294 1.87695 11.2647 1.87695C13.2564 1.87695 15.1665 2.66816 16.5749 4.07652C17.9832 5.48487 18.7744 7.39501 18.7744 9.38673Z" stroke="white" stroke-width="1.87744" stroke-linecap="round" stroke-linejoin="round" />
        <path d="M11.2647 12.2026C12.82 12.2026 14.0808 10.9418 14.0808 9.38648C14.0808 7.83115 12.82 6.57031 11.2647 6.57031C9.70933 6.57031 8.44849 7.83115 8.44849 9.38648C8.44849 10.9418 9.70933 12.2026 11.2647 12.2026Z" stroke="white" stroke-width="1.87744" stroke-linecap="round" stroke-linejoin="round" />
    </g>
    <defs>
        <clipPath id="clip0_27_1174">
            <rect width="22.5293" height="22.5293" fill="white" />
        </clipPath>
    </defs>
</svg>
