<svg width="28" height="28" viewBox="0 0 28 28" fill="none" xmlns="http://www.w3.org/2000/svg">
    <path d="M17.8194 14.8401L19.5636 24.6562C19.5832 24.7718 19.567 24.8906 19.5172 24.9967C19.4673 25.1028 19.3863 25.1912 19.2849 25.2501C19.1835 25.3089 19.0666 25.3354 18.9498 25.3259C18.8329 25.3165 18.7217 25.2716 18.6311 25.1973L14.5094 22.1037C14.3104 21.9551 14.0687 21.8748 13.8203 21.8748C13.5719 21.8748 13.3302 21.9551 13.1312 22.1037L9.00262 25.1962C8.91203 25.2704 8.80098 25.3152 8.68427 25.3246C8.56757 25.334 8.45076 25.3077 8.34943 25.249C8.24811 25.1903 8.16708 25.1021 8.11716 24.9962C8.06725 24.8903 8.05081 24.7717 8.07005 24.6562L9.81314 14.8401" stroke="white" stroke-width="2.3" stroke-linecap="round" stroke-linejoin="round" />
    <path d="M13.8162 16.1188C17.6313 16.1188 20.7241 13.026 20.7241 9.21087C20.7241 5.39575 17.6313 2.30298 13.8162 2.30298C10.0011 2.30298 6.9083 5.39575 6.9083 9.21087C6.9083 13.026 10.0011 16.1188 13.8162 16.1188Z" stroke="white" stroke-width="2.3" stroke-linecap="round" stroke-linejoin="round" />
</svg>
