<svg width="24" height="24" viewBox="0 0 24 24" fill="none" xmlns="http://www.w3.org/2000/svg">
    <path d="M20.0005 13.0044C20.0005 18.0044 16.5005 20.5044 12.3405 21.9544C12.1227 22.0282 11.886 22.0246 11.6705 21.9444C7.50049 20.5044 4.00049 18.0044 4.00049 13.0044V6.00436C4.00049 5.73914 4.10585 5.48479 4.29338 5.29725C4.48092 5.10971 4.73527 5.00436 5.00049 5.00436C7.00049 5.00436 9.50049 3.80436 11.2405 2.28436C11.4523 2.10335 11.7218 2.00391 12.0005 2.00391C12.2791 2.00391 12.5486 2.10335 12.7605 2.28436C14.5105 3.81436 17.0005 5.00436 19.0005 5.00436C19.2657 5.00436 19.5201 5.10971 19.7076 5.29725C19.8951 5.48479 20.0005 5.73914 20.0005 6.00436V13.0044Z" stroke="#223F7F" stroke-width="2" stroke-linecap="round" stroke-linejoin="round"/>
</svg>
