<svg width="27" height="27" viewBox="0 0 27 27" fill="none" xmlns="http://www.w3.org/2000/svg">
  <path d="M13.1421 7.66602V22.9985" stroke="white" stroke-width="2.19035" stroke-linecap="round" stroke-linejoin="round" />
  <path d="M3.28561 19.7128C2.99515 19.7128 2.71658 19.5974 2.5112 19.392C2.30581 19.1866 2.19043 18.9081 2.19043 18.6176V4.38033C2.19043 4.08987 2.30581 3.81131 2.5112 3.60593C2.71658 3.40054 2.99515 3.28516 3.28561 3.28516H8.76149C9.92332 3.28516 11.0376 3.74669 11.8591 4.56823C12.6807 5.38978 13.1422 6.50403 13.1422 7.66586C13.1422 6.50403 13.6037 5.38978 14.4253 4.56823C15.2468 3.74669 16.3611 3.28516 17.5229 3.28516H22.9988C23.2892 3.28516 23.5678 3.40054 23.7732 3.60593C23.9786 3.81131 24.0939 4.08987 24.0939 4.38033V18.6176C24.0939 18.9081 23.9786 19.1866 23.7732 19.392C23.5678 19.5974 23.2892 19.7128 22.9988 19.7128H16.4277C15.5563 19.7128 14.7207 20.059 14.1045 20.6751C13.4883 21.2913 13.1422 22.1269 13.1422 22.9983C13.1422 22.1269 12.796 21.2913 12.1799 20.6751C11.5637 20.059 10.728 19.7128 9.85666 19.7128H3.28561Z" stroke="white" stroke-width="2.19035" stroke-linecap="round" stroke-linejoin="round" />
</svg>
