<svg width="32" height="32" viewBox="0 0 32 32" fill="none" xmlns="http://www.w3.org/2000/svg">
    <path d="M13.334 16H18.6673" stroke="white" stroke-width="2" stroke-linecap="round" stroke-linejoin="round" />
    <path d="M13.334 10.668H18.6673" stroke="white" stroke-width="2" stroke-linecap="round" stroke-linejoin="round" />
    <path d="M18.6673 27.9987V23.9987C18.6673 23.2915 18.3864 22.6132 17.8863 22.1131C17.3862 21.613 16.7079 21.332 16.0007 21.332C15.2934 21.332 14.6151 21.613 14.115 22.1131C13.6149 22.6132 13.334 23.2915 13.334 23.9987V27.9987" stroke="white" stroke-width="2" stroke-linecap="round" stroke-linejoin="round" />
    <path d="M7.99935 13.332H5.33268C4.62544 13.332 3.94716 13.613 3.44706 14.1131C2.94697 14.6132 2.66602 15.2915 2.66602 15.9987V25.332C2.66602 26.0393 2.94697 26.7176 3.44706 27.2176C3.94716 27.7177 4.62544 27.9987 5.33268 27.9987H26.666C27.3733 27.9987 28.0515 27.7177 28.5516 27.2176C29.0517 26.7176 29.3327 26.0393 29.3327 25.332V11.9987C29.3327 11.2915 29.0517 10.6132 28.5516 10.1131C28.0515 9.61298 27.3733 9.33203 26.666 9.33203H23.9993" stroke="white" stroke-width="2" stroke-linecap="round" stroke-linejoin="round" />
    <path d="M8 28V6.66667C8 5.95942 8.28095 5.28115 8.78105 4.78105C9.28115 4.28095 9.95942 4 10.6667 4H21.3333C22.0406 4 22.7189 4.28095 23.219 4.78105C23.719 5.28115 24 5.95942 24 6.66667V28" stroke="white" stroke-width="2" stroke-linecap="round" stroke-linejoin="round" />
</svg>
