<svg width="23" height="23" viewBox="0 0 23 23" fill="none" xmlns="http://www.w3.org/2000/svg">
    <path d="M5.63281 16.8984H13.1426" stroke="#223F7F" stroke-width="1.40808" stroke-linecap="round" stroke-linejoin="round" />
    <path d="M2.81641 20.6484H19.7134" stroke="#223F7F" stroke-width="1.40808" stroke-linecap="round" stroke-linejoin="round" />
    <path d="M13.1418 20.6499C14.8846 20.6499 16.556 19.9576 17.7883 18.7253C19.0206 17.493 19.7129 15.8216 19.7129 14.0789C19.7129 12.3361 19.0206 10.6647 17.7883 9.43243C16.556 8.20012 14.8846 7.50781 13.1418 7.50781H12.2031" stroke="#223F7F" stroke-width="1.40808" stroke-linecap="round" stroke-linejoin="round" />
    <path d="M8.44824 13.1406H10.3257" stroke="#223F7F" stroke-width="1.40808" stroke-linecap="round" stroke-linejoin="round" />
    <path d="M8.44873 11.2651C7.9508 11.2651 7.47327 11.0673 7.12118 10.7153C6.76909 10.3632 6.57129 9.88563 6.57129 9.3877V5.63281H12.2036V9.3877C12.2036 9.88563 12.0058 10.3632 11.6537 10.7153C11.3016 11.0673 10.8241 11.2651 10.3262 11.2651H8.44873Z" stroke="#223F7F" stroke-width="1.40808" stroke-linecap="round" stroke-linejoin="round" />
    <path d="M11.2647 5.62989V2.81372C11.2647 2.56476 11.1658 2.32599 10.9897 2.14995C10.8137 1.9739 10.5749 1.875 10.3259 1.875H8.44849C8.19952 1.875 7.96076 1.9739 7.78471 2.14995C7.60867 2.32599 7.50977 2.56476 7.50977 2.81372V5.62989" stroke="#223F7F" stroke-width="1.40808" stroke-linecap="round" stroke-linejoin="round" />
</svg>
