<svg width="50" height="50" viewBox="0 0 50 50" fill="none" xmlns="http://www.w3.org/2000/svg">
    <path d="M12.4999 45.8346C11.3948 45.8346 10.335 45.3957 9.55364 44.6143C8.77224 43.8329 8.33325 42.773 8.33325 41.668V8.33464C8.33325 7.22957 8.77224 6.16977 9.55364 5.38836C10.335 4.60696 11.3948 4.16798 12.4999 4.16798H29.1666C29.8261 4.16691 30.4793 4.29631 31.0885 4.54874C31.6978 4.80117 32.2511 5.17164 32.7166 5.63881L40.1916 13.1138C40.66 13.5794 41.0315 14.1333 41.2847 14.7433C41.5379 15.3533 41.6677 16.0075 41.6666 16.668V41.668C41.6666 42.773 41.2276 43.8329 40.4462 44.6143C39.6648 45.3957 38.605 45.8346 37.4999 45.8346H12.4999Z" stroke="#191919" stroke-width="4.16667" stroke-linecap="round" stroke-linejoin="round" />
    <path d="M29.1667 4.16797V14.5846C29.1667 15.1372 29.3862 15.6671 29.7769 16.0578C30.1676 16.4485 30.6975 16.668 31.2501 16.668H41.6667" stroke="#191919" stroke-width="4.16667" stroke-linecap="round" stroke-linejoin="round" />
    <path d="M20.8334 18.752H16.6667" stroke="#191919" stroke-width="4.16667" stroke-linecap="round" stroke-linejoin="round" />
    <path d="M33.3334 27.0859H16.6667" stroke="#191919" stroke-width="4.16667" stroke-linecap="round" stroke-linejoin="round" />
    <path d="M33.3334 35.418H16.6667" stroke="#191919" stroke-width="4.16667" stroke-linecap="round" stroke-linejoin="round" />
</svg>
