<svg width="28" height="28" viewBox="0 0 28 28" fill="none" xmlns="http://www.w3.org/2000/svg">
    <path d="M13.8163 8.0592V24.1776" stroke="white" stroke-width="2.30263" stroke-linecap="round" stroke-linejoin="round"/>
    <path d="M3.45405 20.7236C3.1487 20.7236 2.85586 20.6023 2.63995 20.3864C2.42403 20.1705 2.30273 19.8776 2.30273 19.5723V4.60517C2.30273 4.29983 2.42403 4.00698 2.63995 3.79107C2.85586 3.57516 3.1487 3.45386 3.45405 3.45386H9.21063C10.432 3.45386 11.6034 3.93905 12.467 4.80271C13.3307 5.66636 13.8159 6.83773 13.8159 8.05912C13.8159 6.83773 14.3011 5.66636 15.1647 4.80271C16.0284 3.93905 17.1998 3.45386 18.4212 3.45386H24.1777C24.4831 3.45386 24.7759 3.57516 24.9918 3.79107C25.2078 4.00698 25.329 4.29983 25.329 4.60517V19.5723C25.329 19.8776 25.2078 20.1705 24.9918 20.3864C24.7759 20.6023 24.4831 20.7236 24.1777 20.7236H17.2698C16.3538 20.7236 15.4753 21.0875 14.8275 21.7352C14.1798 22.383 13.8159 23.2615 13.8159 24.1775C13.8159 23.2615 13.452 22.383 12.8043 21.7352C12.1565 21.0875 11.278 20.7236 10.3619 20.7236H3.45405Z" stroke="white" stroke-width="2.30263" stroke-linecap="round" stroke-linejoin="round"/>
</svg>
