<svg width="24" height="24" viewBox="0 0 24 24" fill="none" xmlns="http://www.w3.org/2000/svg">
    <path d="M12.001 22C17.5238 22 22.001 17.5228 22.001 12C22.001 6.47715 17.5238 2 12.001 2C6.47813 2 2.00098 6.47715 2.00098 12C2.00098 17.5228 6.47813 22 12.001 22Z" stroke="#223F7F" stroke-width="1.5" stroke-linecap="round" stroke-linejoin="round" />
    <path d="M9.08984 8.98885C9.32495 8.32052 9.789 7.75696 10.3998 7.39798C11.0106 7.03901 11.7287 6.90779 12.427 7.02756C13.1253 7.14734 13.7587 7.51038 14.2149 8.05238C14.6712 8.59438 14.9209 9.28037 14.9198 9.98885C14.9198 11.9889 11.9198 12.9889 11.9198 12.9889" stroke="#223F7F" stroke-width="1.5" stroke-linecap="round" stroke-linejoin="round" />
    <path d="M12 16.9922H12.01" stroke="#223F7F" stroke-width="1.5" stroke-linecap="round" stroke-linejoin="round" />
</svg>
