<svg width="31" height="31" viewBox="0 0 31 31" fill="none" xmlns="http://www.w3.org/2000/svg">
<path d="M0 15.134C0 6.77572 6.77572 0 15.134 0C23.4923 0 30.268 6.77572 30.268 15.134C30.268 23.4923 23.4923 30.268 15.134 30.268C6.77572 30.268 0 23.4923 0 15.134Z" fill="#223F7F"/>
<g clip-path="url(#clip0_752_2098)">
<path d="M17.9716 9.46094H12.2964C10.7292 9.46094 9.45874 10.7314 9.45874 12.2986V17.9738C9.45874 19.541 10.7292 20.8114 12.2964 20.8114H17.9716C19.5388 20.8114 20.8092 19.541 20.8092 17.9738V12.2986C20.8092 10.7314 19.5388 9.46094 17.9716 9.46094Z" stroke="white" stroke-linecap="round" stroke-linejoin="round"/>
<path d="M17.4041 14.7789C17.4741 15.2512 17.3934 15.7336 17.1735 16.1574C16.9536 16.5813 16.6057 16.925 16.1791 17.1396C15.7526 17.3543 15.2693 17.429 14.7979 17.3532C14.3265 17.2773 13.891 17.0547 13.5533 16.7171C13.2157 16.3795 12.9931 15.944 12.9173 15.4725C12.8414 15.0011 12.9161 14.5178 13.1308 14.0913C13.3455 13.6648 13.6892 13.3168 14.113 13.0969C14.5368 12.877 15.0192 12.7963 15.4915 12.8664C15.9733 12.9378 16.4193 13.1623 16.7637 13.5067C17.1081 13.8511 17.3326 14.2971 17.4041 14.7789Z" stroke="white" stroke-linecap="round" stroke-linejoin="round"/>
<path d="M18.2554 12.0137H18.261" stroke="white" stroke-linecap="round" stroke-linejoin="round"/>
</g>
<defs>
<clipPath id="clip0_752_2098">
<rect width="13.6206" height="13.6206" fill="white" transform="translate(8.32373 8.32422)"/>
</clipPath>
</defs>
</svg>
