<svg width="20" height="20" viewBox="0 0 20 20" fill="none" xmlns="http://www.w3.org/2000/svg">
    <path d="M16.4476 8.22397C16.4476 12.3301 11.8925 16.6064 10.3629 17.9271C10.2204 18.0342 10.0469 18.0922 9.86865 18.0922C9.69036 18.0922 9.5169 18.0342 9.3744 17.9271C7.8448 16.6064 3.2897 12.3301 3.2897 8.22397C3.2897 6.47912 3.98284 4.80574 5.21663 3.57195C6.45042 2.33816 8.1238 1.64502 9.86865 1.64502C11.6135 1.64502 13.2869 2.33816 14.5207 3.57195C15.7545 4.80574 16.4476 6.47912 16.4476 8.22397Z" stroke="#191919" stroke-width="1.64474" stroke-linecap="round" stroke-linejoin="round"/>
    <path d="M9.86842 10.6906C11.231 10.6906 12.3355 9.586 12.3355 8.22345C12.3355 6.86091 11.231 5.75635 9.86842 5.75635C8.50588 5.75635 7.40132 6.86091 7.40132 8.22345C7.40132 9.586 8.50588 10.6906 9.86842 10.6906Z" stroke="#191919" stroke-width="1.64474" stroke-linecap="round" stroke-linejoin="round"/>
</svg>
