<svg width="31" height="31" viewBox="0 0 31 31" fill="none" xmlns="http://www.w3.org/2000/svg">
<path d="M0 6.0536C0 2.71029 2.71029 0 6.0536 0H24.2144C27.5577 0 30.268 2.71029 30.268 6.0536V24.2144C30.268 27.5577 27.5577 30.268 24.2144 30.268H6.0536C2.71029 30.268 0 27.5577 0 24.2144V6.0536Z" fill="white"/>
<g clip-path="url(#clip0_752_2195)">
<path d="M16.2893 18.0145C16.4195 18.0743 16.5663 18.0879 16.7053 18.0532C16.8443 18.0185 16.9674 17.9374 17.0542 17.8234L17.2781 17.5302C17.3955 17.3735 17.5479 17.2464 17.723 17.1589C17.8981 17.0713 18.0912 17.0257 18.287 17.0257H20.1787C20.5132 17.0257 20.834 17.1586 21.0705 17.3951C21.307 17.6316 21.4399 17.9524 21.4399 18.2869V20.1786C21.4399 20.5131 21.307 20.8339 21.0705 21.0704C20.834 21.3069 20.5132 21.4398 20.1787 21.4398C17.1684 21.4398 14.2814 20.2439 12.1527 18.1153C10.0241 15.9867 8.82825 13.0996 8.82825 10.0893C8.82825 9.75481 8.96112 9.43403 9.19763 9.19751C9.43415 8.961 9.75493 8.82812 10.0894 8.82812H11.9812C12.3156 8.82812 12.6364 8.961 12.8729 9.19751C13.1095 9.43403 13.2423 9.75481 13.2423 10.0893V11.981C13.2423 12.1768 13.1967 12.3699 13.1092 12.5451C13.0216 12.7202 12.8945 12.8725 12.7379 12.99L12.4428 13.2113C12.327 13.2997 12.2454 13.4254 12.2118 13.5672C12.1783 13.7089 12.1948 13.8579 12.2586 13.9888C13.1204 15.7392 14.5378 17.1548 16.2893 18.0145Z" stroke="#223F7F" stroke-width="1.26117" stroke-linecap="round" stroke-linejoin="round"/>
</g>
<defs>
<clipPath id="clip0_752_2195">
<rect width="15.134" height="15.134" fill="white" transform="translate(7.56702 7.56641)"/>
</clipPath>
</defs>
</svg>
