<svg width="28" height="28" viewBox="0 0 28 28" fill="none" xmlns="http://www.w3.org/2000/svg">
<path d="M13.8152 8.05859V24.177V8.05859Z" fill="#223F7F"/>
<path d="M13.8152 8.05859V24.177" stroke="#223F7F" stroke-width="2.30263" stroke-linecap="round" stroke-linejoin="round"/>
<path d="M3.45295 20.7229C3.1476 20.7229 2.85476 20.6016 2.63885 20.3857C2.42293 20.1697 2.30164 19.8769 2.30164 19.5715V4.60444C2.30164 4.29909 2.42293 4.00625 2.63885 3.79034C2.85476 3.57442 3.1476 3.45313 3.45295 3.45312H9.20953C10.4309 3.45313 11.6023 3.93832 12.4659 4.80198C13.3296 5.66563 13.8148 6.837 13.8148 8.05839C13.8148 6.837 14.3 5.66563 15.1636 4.80198C16.0273 3.93832 17.1987 3.45313 18.4201 3.45312H24.1766C24.482 3.45313 24.7748 3.57442 24.9907 3.79034C25.2067 4.00625 25.3279 4.29909 25.3279 4.60444V19.5715C25.3279 19.8769 25.2067 20.1697 24.9907 20.3857C24.7748 20.6016 24.482 20.7229 24.1766 20.7229H17.2687C16.3527 20.7229 15.4742 21.0868 14.8264 21.7345C14.1787 22.3822 13.8148 23.2608 13.8148 24.1768C13.8148 23.2608 13.4509 22.3822 12.8032 21.7345C12.1554 21.0868 11.2769 20.7229 10.3608 20.7229H3.45295Z" fill="#223F7F" stroke="#223F7F" stroke-width="2.30263" stroke-linecap="round" stroke-linejoin="round"/>
</svg>
