<svg width="28" height="28" viewBox="0 0 28 28" fill="none" xmlns="http://www.w3.org/2000/svg">
<path d="M18.4203 24.1774V21.8748C18.4203 20.6534 17.9351 19.482 17.0714 18.6184C16.2078 17.7547 15.0364 17.2695 13.815 17.2695H6.90714C5.68575 17.2695 4.51438 17.7547 3.65073 18.6184C2.78708 19.482 2.30188 20.6534 2.30188 21.8748V24.1774" fill="#223F7F"/>
<path d="M18.4203 24.1774V21.8748C18.4203 20.6534 17.9351 19.482 17.0714 18.6184C16.2078 17.7547 15.0364 17.2695 13.815 17.2695H6.90714C5.68575 17.2695 4.51438 17.7547 3.65073 18.6184C2.78708 19.482 2.30188 20.6534 2.30188 21.8748V24.1774" stroke="#223F7F" stroke-width="2.30263" stroke-linecap="round" stroke-linejoin="round"/>
<path d="M18.4209 3.59961C19.4084 3.85563 20.283 4.43231 20.9074 5.23916C21.5317 6.046 21.8705 7.03731 21.8705 8.0575C21.8705 9.0777 21.5317 10.069 20.9074 10.8759C20.283 11.6827 19.4084 12.2594 18.4209 12.5154" fill="#223F7F"/>
<path d="M18.4209 3.59961C19.4084 3.85563 20.283 4.43231 20.9074 5.23916C21.5317 6.046 21.8705 7.03731 21.8705 8.0575C21.8705 9.0777 21.5317 10.069 20.9074 10.8759C20.283 11.6827 19.4084 12.2594 18.4209 12.5154" stroke="#223F7F" stroke-width="2.30263" stroke-linecap="round" stroke-linejoin="round"/>
<path d="M25.3294 24.1781V21.8755C25.3287 20.8551 24.9891 19.8639 24.3639 19.0575C23.7387 18.251 22.8635 17.675 21.8755 17.4199" fill="#223F7F"/>
<path d="M25.3294 24.1781V21.8755C25.3287 20.8551 24.9891 19.8639 24.3639 19.0575C23.7387 18.251 22.8635 17.675 21.8755 17.4199" stroke="#223F7F" stroke-width="2.30263" stroke-linecap="round" stroke-linejoin="round"/>
<path d="M10.3617 12.6637C12.9051 12.6637 14.967 10.6018 14.967 8.05839C14.967 5.51497 12.9051 3.45312 10.3617 3.45312C7.81832 3.45312 5.75647 5.51497 5.75647 8.05839C5.75647 10.6018 7.81832 12.6637 10.3617 12.6637Z" fill="#223F7F" stroke="#223F7F" stroke-width="2.30263" stroke-linecap="round" stroke-linejoin="round"/>
</svg>
