<svg width="31" height="31" viewBox="0 0 31 31" fill="none" xmlns="http://www.w3.org/2000/svg">
<path d="M0 15.134C0 6.77572 6.77572 0 15.134 0C23.4923 0 30.268 6.77572 30.268 15.134C30.268 23.4923 23.4923 30.268 15.134 30.268C6.77572 30.268 0 23.4923 0 15.134Z" fill="#223F7F"/>
<path d="M18.5392 9.46094H16.8366C16.084 9.46094 15.3622 9.7599 14.8301 10.2921C14.2979 10.8242 13.999 11.546 13.999 12.2986V14.0011H12.2964V16.2712H13.999V20.8114H16.2691V16.2712H17.9716L18.5392 14.0011H16.2691V12.2986C16.2691 12.148 16.3289 12.0037 16.4353 11.8973C16.5417 11.7908 16.6861 11.731 16.8366 11.731H18.5392V9.46094Z" stroke="white" stroke-linecap="round" stroke-linejoin="round"/>
</svg>
