<svg width="16" height="16" viewBox="0 0 16 16" fill="none" xmlns="http://www.w3.org/2000/svg">
<path d="M8.00024 4.6709V14.0042" stroke="white" stroke-width="1.5" stroke-linecap="round" stroke-linejoin="round"/>
<path d="M2.00041 12.0029C1.8236 12.0029 1.65403 11.9327 1.529 11.8077C1.40398 11.6826 1.33374 11.5131 1.33374 11.3363V2.6696C1.33374 2.49279 1.40398 2.32322 1.529 2.19819C1.65403 2.07317 1.8236 2.00293 2.00041 2.00293H5.33374C6.04098 2.00293 6.71926 2.28388 7.21936 2.78398C7.71946 3.28408 8.00041 3.96235 8.00041 4.6696C8.00041 3.96235 8.28136 3.28408 8.78146 2.78398C9.28155 2.28388 9.95983 2.00293 10.6671 2.00293H14.0004C14.1772 2.00293 14.3468 2.07317 14.4718 2.19819C14.5968 2.32322 14.6671 2.49279 14.6671 2.6696V11.3363C14.6671 11.5131 14.5968 11.6826 14.4718 11.8077C14.3468 11.9327 14.1772 12.0029 14.0004 12.0029H10.0004C9.46997 12.0029 8.96127 12.2136 8.58619 12.5887C8.21112 12.9638 8.00041 13.4725 8.00041 14.0029C8.00041 13.4725 7.78969 12.9638 7.41462 12.5887C7.03955 12.2136 6.53084 12.0029 6.00041 12.0029H2.00041Z" stroke="white" stroke-width="1.5" stroke-linecap="round" stroke-linejoin="round"/>
</svg>
