<svg width="32" height="32" viewBox="0 0 32 32" fill="none" xmlns="http://www.w3.org/2000/svg">
<path d="M2.66699 12.6703C2.66702 11.1866 3.11712 9.73775 3.95784 8.51519C4.79856 7.29263 5.99035 6.35385 7.3758 5.82283C8.76126 5.29182 10.2752 5.19356 11.7177 5.54103C13.1601 5.88849 14.4633 6.66534 15.455 7.76897C15.5248 7.84365 15.6093 7.90319 15.7031 7.9439C15.7969 7.98461 15.8981 8.00561 16.0003 8.00561C16.1026 8.00561 16.2038 7.98461 16.2976 7.9439C16.3914 7.90319 16.4758 7.84365 16.5457 7.76897C17.5342 6.65817 18.8377 5.87479 20.2825 5.5231C21.7273 5.17141 23.245 5.2681 24.6335 5.80028C26.022 6.33246 27.2155 7.2749 28.0551 8.50217C28.8948 9.72944 29.3407 11.1833 29.3337 12.6703C29.3337 15.7236 27.3337 18.0036 25.3337 20.0036L18.011 27.0876C17.7625 27.373 17.4562 27.6022 17.1124 27.76C16.7685 27.9179 16.395 28.0008 16.0167 28.0032C15.6384 28.0056 15.2639 27.9274 14.918 27.7739C14.5722 27.6205 14.263 27.3951 14.011 27.113L6.66699 20.0036C4.66699 18.0036 2.66699 15.737 2.66699 12.6703Z" stroke="#008C8C" stroke-width="2.66667" stroke-linecap="round" stroke-linejoin="round"/>
</svg>
