<svg width="31" height="31" viewBox="0 0 31 31" fill="none" xmlns="http://www.w3.org/2000/svg">
<path d="M0 15.134C0 6.77572 6.77572 0 15.134 0C23.4923 0 30.268 6.77572 30.268 15.134C30.268 23.4923 23.4923 30.268 15.134 30.268C6.77572 30.268 0 23.4923 0 15.134Z" fill="#223F7F"/>
<path d="M9.74241 17.973C9.34595 16.102 9.34595 14.1687 9.74241 12.2977C9.79451 12.1077 9.89516 11.9346 10.0345 11.7953C10.1738 11.6559 10.3469 11.5553 10.5369 11.5032C13.5808 10.9989 16.687 10.9989 19.7309 11.5032C19.9209 11.5553 20.094 11.6559 20.2333 11.7953C20.3726 11.9346 20.4733 12.1077 20.5254 12.2977C20.9218 14.1687 20.9218 16.102 20.5254 17.973C20.4733 18.163 20.3726 18.3362 20.2333 18.4755C20.094 18.6148 19.9209 18.7154 19.7309 18.7675C16.687 19.2719 13.5808 19.2719 10.5369 18.7675C10.3469 18.7154 10.1738 18.6148 10.0345 18.4755C9.89516 18.3362 9.79451 18.163 9.74241 17.973Z" stroke="white" stroke-linecap="round" stroke-linejoin="round"/>
<path d="M13.9989 16.8387L16.8365 15.1362L13.9989 13.4336V16.8387Z" stroke="white" stroke-linecap="round" stroke-linejoin="round"/>
</svg>
