<svg width="212" height="46" viewBox="0 0 212 46" fill="none" xmlns="http://www.w3.org/2000/svg">
<rect width="46.4259" height="46"/>
<path d="M50.2158 38L63.4458 8.6H68.8218L82.0938 38H76.3818L64.9998 11.498H67.1838L55.8438 38H50.2158ZM56.3058 31.196L57.7758 26.912H73.6518L75.1218 31.196H56.3058ZM94.9468 38.42C92.6508 38.42 90.4528 38.098 88.3528 37.454C86.2528 36.782 84.5868 35.928 83.3548 34.892L85.2448 30.65C86.4208 31.574 87.8768 32.344 89.6128 32.96C91.3488 33.576 93.1268 33.884 94.9468 33.884C96.4868 33.884 97.7328 33.716 98.6848 33.38C99.6368 33.044 100.337 32.596 100.785 32.036C101.233 31.448 101.457 30.79 101.457 30.062C101.457 29.166 101.135 28.452 100.491 27.92C99.8468 27.36 99.0068 26.926 97.9708 26.618C96.9628 26.282 95.8288 25.974 94.5688 25.694C93.3368 25.414 92.0908 25.092 90.8308 24.728C89.5988 24.336 88.4648 23.846 87.4288 23.258C86.4208 22.642 85.5948 21.83 84.9508 20.822C84.3068 19.814 83.9848 18.526 83.9848 16.958C83.9848 15.362 84.4048 13.906 85.2448 12.59C86.1128 11.246 87.4148 10.182 89.1508 9.398C90.9148 8.586 93.1408 8.18 95.8288 8.18C97.5928 8.18 99.3428 8.404 101.079 8.852C102.815 9.3 104.327 9.944 105.615 10.784L103.893 15.026C102.577 14.242 101.219 13.668 99.8188 13.304C98.4188 12.912 97.0748 12.716 95.7868 12.716C94.2748 12.716 93.0428 12.898 92.0908 13.262C91.1668 13.626 90.4808 14.102 90.0328 14.69C89.6128 15.278 89.4028 15.95 89.4028 16.706C89.4028 17.602 89.7108 18.33 90.3268 18.89C90.9708 19.422 91.7968 19.842 92.8048 20.15C93.8408 20.458 94.9888 20.766 96.2488 21.074C97.5088 21.354 98.7548 21.676 99.9868 22.04C101.247 22.404 102.381 22.88 103.389 23.468C104.425 24.056 105.251 24.854 105.867 25.862C106.511 26.87 106.833 28.144 106.833 29.684C106.833 31.252 106.399 32.708 105.531 34.052C104.691 35.368 103.389 36.432 101.625 37.244C99.8608 38.028 97.6348 38.42 94.9468 38.42ZM112.247 38V8.6H124.301C128.221 8.6 131.287 9.524 133.499 11.372C135.739 13.22 136.859 15.782 136.859 19.058C136.859 21.214 136.355 23.076 135.347 24.644C134.339 26.184 132.897 27.374 131.021 28.214C129.173 29.026 126.947 29.432 124.343 29.432H115.271L117.707 26.954V38H112.247ZM131.483 38L124.049 27.332H129.887L137.363 38H131.483ZM117.707 27.542L115.271 24.938H124.091C126.499 24.938 128.305 24.42 129.509 23.384C130.741 22.348 131.357 20.906 131.357 19.058C131.357 17.182 130.741 15.74 129.509 14.732C128.305 13.724 126.499 13.22 124.091 13.22H115.271L117.707 10.532V27.542ZM138.81 38L152.04 8.6H157.416L170.688 38H164.976L153.594 11.498H155.778L144.438 38H138.81ZM144.9 31.196L146.37 26.912H162.246L163.716 31.196H144.9ZM174.427 38V8.6H178.921L191.773 30.062H189.421L202.063 8.6H206.557L206.599 38H201.433L201.391 16.706H202.483L191.731 34.64H189.295L178.375 16.706H179.635V38H174.427Z" fill="#223F7F"/>
</svg>
