<svg width="661" height="213" viewBox="0 0 661 213" fill="none" xmlns="http://www.w3.org/2000/svg">
<path d="M639.19 68.377C640.603 67.4235 642.289 67.182 644.226 67.3154C648.606 67.6173 652.948 67.3857 657.665 67.3857H659.165V180.361H637.669V98.7598C637.508 99.1389 637.348 99.5188 637.192 99.9023C626.956 125.16 616.713 150.412 606.534 175.69C606.088 176.797 605.557 178.246 604.582 179.269C603.456 180.449 601.912 180.941 599.847 180.691C599.111 180.602 598.477 180.58 597.688 180.515C596.953 180.454 596.144 180.359 595.347 180.108C593.614 179.563 592.2 178.368 591.151 176.015L589.207 171.664C579.459 149.923 569.363 128.34 559.378 106.679C559.354 106.627 559.33 106.576 559.306 106.524V180.615H557.806C555.581 180.615 553.967 180.615 551.9 180.613V180.612C550.706 180.627 549.671 180.442 548.856 179.941C547.972 179.398 547.533 178.599 547.357 177.804C547.197 177.076 547.251 176.334 547.307 175.791C547.356 175.309 547.402 174.988 547.422 174.71L547.432 174.442C547.36 146.785 547.382 119.127 547.382 91.4736V67.3936H548.882C553.284 67.3936 557.807 67.08 562.146 67.5781C563.385 67.7204 564.465 68.5708 565.211 69.3369C566.008 70.1553 566.702 71.166 567.137 72.0859C579.2 97.6413 591.131 123.261 603.094 148.856C603.477 149.676 603.869 150.485 604.314 151.395C608.116 142.057 611.722 133.214 615.314 124.363C622.318 107.107 629.41 89.9161 636.196 72.5996C636.904 70.7949 637.796 69.3177 639.19 68.377Z" fill="#223F7F" stroke="#223F7F" stroke-width="3"/>
<path d="M343.887 66.9336C358.872 67.0955 373.937 67.1051 388.938 67.9297C394.814 68.2527 400.957 70.594 405.98 73.5029C422.707 83.1882 422.041 108.955 405.346 118.547C403.836 119.414 402.215 120.182 400.498 121.023C409.894 139.98 419.226 158.807 428.854 178.23L429.873 180.285L427.581 180.395C425.518 180.493 424.255 180.553 422.524 180.613L422.482 180.614L422.44 180.613C420.986 180.582 419.474 180.662 417.924 180.767C416.395 180.869 414.801 180.998 413.279 181.049C410.278 181.15 407.146 180.979 404.654 179.461C402.234 177.987 400.776 175.257 399.659 172.604C399.089 171.251 398.568 169.812 398.062 168.459C397.547 167.085 397.043 165.786 396.48 164.617C390.571 152.342 384.6 140.067 378.869 127.684C378.262 126.372 377.735 125.648 377.15 125.229C376.607 124.84 375.829 124.587 374.427 124.651C368.547 124.921 362.609 124.765 356.271 124.741V180.372H334.717V67.9326L335.589 67.5303C335.603 67.524 335.64 67.5048 335.736 67.4473C335.811 67.4028 335.952 67.3166 336.085 67.2432C336.329 67.1082 336.839 66.8421 337.47 66.8516L343.887 66.9336ZM382.634 79.3359C374.111 78.3532 365.52 79.0548 356.574 79.1318V112.627C364.907 112.68 372.757 113.136 380.6 112.474C384.728 112.125 388.319 111.014 391.142 108.887C393.917 106.795 396.073 103.625 397.224 98.9062C397.627 92.5081 396.73 88.0096 394.512 84.9561C392.314 81.9306 388.594 80.0232 382.634 79.3359Z" fill="#223F7F" stroke="#223F7F" stroke-width="3"/>
<path d="M261.165 67.2734C277.455 65.5174 292.677 66.0433 305.936 77.334C306.353 77.6891 306.753 77.9724 307.242 78.3213C307.724 78.6652 308.269 79.0575 308.881 79.585C310.115 80.6492 311.548 82.1963 313.5 85.0098L314.485 86.4307L312.939 87.2061C308.473 89.4469 305.92 90.7276 303.187 92.0986L302.157 92.6152L301.393 91.7549C294.334 83.816 285.828 79.1838 275.48 78.166C269.246 77.5528 263.371 78.3729 258.191 81.6494C254.188 84.1817 251.611 87.3921 251.943 92.1309C252.28 96.9285 255.003 100.095 259.321 101.613C263.881 103.216 268.596 104.176 273.723 105.402L275.945 105.947L275.96 105.95L275.974 105.954C282.815 107.819 289.707 109.239 296.145 111.62C302.993 114.153 308.545 117.96 312.436 123.053C316.333 128.154 318.496 134.459 318.698 141.865C319.091 156.249 311.389 166.987 299.325 173.559C277.759 185.307 256.735 181.677 236.86 169.365C232.76 166.825 228.954 163.597 225.099 160.746L223.521 159.58L225.06 158.363C226.764 157.015 228.118 155.945 229.258 155.202C230.402 154.456 231.496 153.926 232.693 153.819C233.916 153.711 235.027 154.062 236.167 154.624C237.279 155.173 238.582 156.01 240.179 157.025C251.051 163.94 262.451 168.538 275.403 167.656C290.798 166.608 300.278 153.701 296.358 139.859C294.703 134.013 290.782 130.445 285.211 128.73C279.528 126.981 273.782 125.439 268.006 123.841C262.242 122.246 256.46 120.6 250.769 118.656C245.352 116.807 240.096 113.617 235.777 109.911C230.344 105.25 227.554 99.5927 227.575 93.7637C227.597 87.9468 230.416 82.2131 235.693 77.373C242.971 70.6981 251.948 68.267 261.165 67.2734Z" fill="#223F7F" stroke="#223F7F" stroke-width="3"/>
<mask id="path-4-outside-1_592_1853" maskUnits="userSpaceOnUse" x="-0.537109" y="0" width="235" height="213" fill="black">
<rect fill="white" x="-0.537109" width="235" height="213"/>
<path d="M26.1621 3.12988C50.2622 2.43973 74.0711 4.42032 97.3252 11.2266C125.158 19.373 149.082 33.7355 168.63 56.4033C176.51 46.3542 184.245 36.4894 192.558 25.8877C185.77 24.5917 179.706 23.4334 172.316 22.0225C185.829 16.99 198.042 12.4418 211.042 7.60059C209.144 21.362 207.355 34.3372 205.343 48.9258C202.516 41.8245 200.228 36.0778 197.531 29.3037C189.49 41.13 181.91 52.2779 174.263 63.5244C198.261 96.3697 206.641 134.108 210.806 173.245C211.245 177.377 211.747 181.522 212.576 185.589C214.779 196.386 218.852 199.895 229.904 200.66C230.279 203.325 230.664 206.054 231.048 208.779C222.122 210.083 214.769 206.652 210.683 198.991C208.989 195.816 207.608 192.249 207.083 188.712C203.229 162.739 188.213 144.347 167.017 130.608C159.297 125.605 150.267 122.627 141.855 118.682C138.934 117.311 137.213 118.143 135.342 120.843C122.158 139.863 109.068 158.962 95.29 177.549C90.6115 183.86 84.0362 188.766 78.0381 194.533C66.134 202.132 53.6338 206.277 39.8115 203.603C22.6115 200.275 13.9991 187.009 17.1455 169.717C20.684 150.27 31.6463 135.518 47.0566 124.061C71.3318 106.012 98.7415 98.7464 128.9 101.912C130.595 102.09 133.134 101.609 134.071 100.454C142.143 90.5089 149.936 80.3383 158.027 69.959C147.167 58.402 134.548 49.6987 120.255 43.4297C94.7646 32.2496 67.9228 29.752 40.5146 31.71C30.7299 32.409 21.004 33.9263 11.248 35.042C10.3048 35.1499 9.33825 35.0566 8.12402 35.0566C6.5808 24.8372 5.07334 14.8531 3.46289 4.18848C11.295 3.81546 18.7249 3.34287 26.1621 3.12988ZM98.3643 113.05C75.4536 114.449 55.3386 121.927 40.8213 140.601C32.8799 150.816 28.4998 162.338 31.8301 175.573C33.9916 184.163 40.159 188.597 49.001 188.38C61.5568 188.071 70.7412 181.149 78.3145 172.274C88.9002 159.87 98.7636 146.844 108.822 133.995C113.7 127.764 118.32 121.33 123.95 113.792C114.842 113.507 107.088 113.264 98.3643 113.05ZM164.816 77.582C161.578 82.3423 158.699 86.574 155.635 91.1123C152.305 96.0468 149.16 100.675 145.839 105.562H145.84L145.839 105.564C163.617 111.425 178.476 120.941 192.688 131.946C192.688 131.945 192.688 131.944 192.688 131.943L192.688 131.944C191.983 129.644 191.242 127.364 190.466 125.104C190.25 124.476 190.031 123.848 189.809 123.223C189.355 121.946 188.891 120.675 188.412 119.411C188.327 119.185 188.239 118.96 188.152 118.734C182.526 104.053 175.11 90.2835 164.816 77.582Z"/>
</mask>
<path d="M26.1621 3.12988C50.2622 2.43973 74.0711 4.42032 97.3252 11.2266C125.158 19.373 149.082 33.7355 168.63 56.4033C176.51 46.3542 184.245 36.4894 192.558 25.8877C185.77 24.5917 179.706 23.4334 172.316 22.0225C185.829 16.99 198.042 12.4418 211.042 7.60059C209.144 21.362 207.355 34.3372 205.343 48.9258C202.516 41.8245 200.228 36.0778 197.531 29.3037C189.49 41.13 181.91 52.2779 174.263 63.5244C198.261 96.3697 206.641 134.108 210.806 173.245C211.245 177.377 211.747 181.522 212.576 185.589C214.779 196.386 218.852 199.895 229.904 200.66C230.279 203.325 230.664 206.054 231.048 208.779C222.122 210.083 214.769 206.652 210.683 198.991C208.989 195.816 207.608 192.249 207.083 188.712C203.229 162.739 188.213 144.347 167.017 130.608C159.297 125.605 150.267 122.627 141.855 118.682C138.934 117.311 137.213 118.143 135.342 120.843C122.158 139.863 109.068 158.962 95.29 177.549C90.6115 183.86 84.0362 188.766 78.0381 194.533C66.134 202.132 53.6338 206.277 39.8115 203.603C22.6115 200.275 13.9991 187.009 17.1455 169.717C20.684 150.27 31.6463 135.518 47.0566 124.061C71.3318 106.012 98.7415 98.7464 128.9 101.912C130.595 102.09 133.134 101.609 134.071 100.454C142.143 90.5089 149.936 80.3383 158.027 69.959C147.167 58.402 134.548 49.6987 120.255 43.4297C94.7646 32.2496 67.9228 29.752 40.5146 31.71C30.7299 32.409 21.004 33.9263 11.248 35.042C10.3048 35.1499 9.33825 35.0566 8.12402 35.0566C6.5808 24.8372 5.07334 14.8531 3.46289 4.18848C11.295 3.81546 18.7249 3.34287 26.1621 3.12988ZM98.3643 113.05C75.4536 114.449 55.3386 121.927 40.8213 140.601C32.8799 150.816 28.4998 162.338 31.8301 175.573C33.9916 184.163 40.159 188.597 49.001 188.38C61.5568 188.071 70.7412 181.149 78.3145 172.274C88.9002 159.87 98.7636 146.844 108.822 133.995C113.7 127.764 118.32 121.33 123.95 113.792C114.842 113.507 107.088 113.264 98.3643 113.05ZM164.816 77.582C161.578 82.3423 158.699 86.574 155.635 91.1123C152.305 96.0468 149.16 100.675 145.839 105.562H145.84L145.839 105.564C163.617 111.425 178.476 120.941 192.688 131.946C192.688 131.945 192.688 131.944 192.688 131.943L192.688 131.944C191.983 129.644 191.242 127.364 190.466 125.104C190.25 124.476 190.031 123.848 189.809 123.223C189.355 121.946 188.891 120.675 188.412 119.411C188.327 119.185 188.239 118.96 188.152 118.734C182.526 104.053 175.11 90.2835 164.816 77.582Z" fill="#223F7F"/>
<path d="M26.1621 3.12988L26.0762 0.131112L26.0762 0.131112L26.1621 3.12988ZM97.3252 11.2266L98.1679 8.34736L98.1679 8.34736L97.3252 11.2266ZM168.63 56.4033L166.358 58.3625L168.74 61.1247L170.991 58.2545L168.63 56.4033ZM192.558 25.8877L194.918 27.7388L197.956 23.8644L193.12 22.9409L192.558 25.8877ZM172.316 22.0225L171.269 19.2111L161.212 22.9564L171.754 24.9692L172.316 22.0225ZM211.042 7.60059L214.014 8.01041L214.7 3.03712L209.995 4.78922L211.042 7.60059ZM205.343 48.9258L202.556 50.0354L206.761 60.5998L208.315 49.3356L205.343 48.9258ZM197.531 29.3037L200.318 28.1941L198.228 22.9434L195.05 27.6169L197.531 29.3037ZM174.263 63.5244L171.782 61.8376L170.593 63.5866L171.84 65.2943L174.263 63.5244ZM210.806 173.245L207.823 173.563L207.823 173.563L210.806 173.245ZM212.576 185.589L209.637 186.189L209.637 186.189L212.576 185.589ZM229.904 200.66L232.875 200.242L232.536 197.835L230.111 197.667L229.904 200.66ZM231.048 208.779L231.481 211.748L234.435 211.317L234.019 208.361L231.048 208.779ZM210.683 198.991L208.036 200.403L208.036 200.403L210.683 198.991ZM207.083 188.712L204.115 189.152L204.116 189.152L207.083 188.712ZM167.017 130.608L168.648 128.091L168.648 128.091L167.017 130.608ZM141.855 118.682L143.129 115.966L143.129 115.966L141.855 118.682ZM135.342 120.843L137.807 122.552L137.807 122.552L135.342 120.843ZM95.29 177.549L92.88 175.762L92.88 175.762L95.29 177.549ZM78.0381 194.533L79.6523 197.062L79.903 196.902L80.1173 196.696L78.0381 194.533ZM39.8115 203.603L39.2417 206.548L39.2417 206.548L39.8115 203.603ZM17.1455 169.717L14.194 169.18L14.194 169.18L17.1455 169.717ZM47.0566 124.061L45.2666 121.653L45.2666 121.653L47.0566 124.061ZM128.9 101.912L128.587 104.896L128.587 104.896L128.9 101.912ZM134.071 100.454L136.401 102.345L136.401 102.345L134.071 100.454ZM158.027 69.959L160.393 71.8034L161.973 69.777L160.214 67.9046L158.027 69.959ZM120.255 43.4297L121.46 40.6823L121.46 40.6823L120.255 43.4297ZM40.5146 31.71L40.3009 28.7176L40.3009 28.7176L40.5146 31.71ZM11.248 35.042L11.5889 38.0226L11.5889 38.0226L11.248 35.042ZM8.12402 35.0566L5.15765 35.5046L5.54304 38.0566H8.12402V35.0566ZM3.46289 4.18848L3.32017 1.19187L0.000240863 1.34999L0.496522 4.63642L3.46289 4.18848ZM98.3643 113.05L98.4379 110.051L98.3096 110.048L98.1814 110.055L98.3643 113.05ZM40.8213 140.601L38.4528 138.759L38.4528 138.759L40.8213 140.601ZM31.8301 175.573L28.9208 176.305L28.9208 176.305L31.8301 175.573ZM49.001 188.38L49.0747 191.379L49.0747 191.379L49.001 188.38ZM78.3145 172.274L80.5965 174.222L80.5965 174.222L78.3145 172.274ZM108.822 133.995L111.185 135.844L111.185 135.844L108.822 133.995ZM123.95 113.792L126.354 115.587L129.8 110.974L124.044 110.793L123.95 113.792ZM164.816 77.582L167.147 75.6931L164.606 72.5577L162.336 75.8946L164.816 77.582ZM155.635 91.1123L153.148 89.4336L153.148 89.4341L155.635 91.1123ZM145.839 105.562L143.358 103.876L140.173 108.562H145.839V105.562ZM145.84 105.562L148.523 106.904L150.694 102.562H145.84V105.562ZM145.839 105.564L143.156 104.223L141.603 107.327L144.9 108.414L145.839 105.564ZM192.688 131.946L190.852 134.318L198.33 140.109L195.557 131.067L192.688 131.946ZM192.688 131.943L194.809 129.822L189.819 132.823L192.688 131.943ZM192.688 131.944L190.567 134.066L195.557 131.065L192.688 131.944ZM190.466 125.104L193.303 124.129L193.303 124.129L190.466 125.104ZM189.809 123.223L186.981 124.226L186.981 124.226L189.809 123.223ZM188.412 119.411L191.218 118.349L191.218 118.348L188.412 119.411ZM188.152 118.734L185.351 119.808L185.351 119.808L188.152 118.734ZM26.1621 3.12988L26.248 6.12865C50.131 5.44471 73.6105 7.41135 96.4825 14.1058L97.3252 11.2266L98.1679 8.34736C74.5318 1.42929 50.3934 -0.565259 26.0762 0.131112L26.1621 3.12988ZM97.3252 11.2266L96.4825 14.1058C123.814 22.1055 147.223 36.1735 166.358 58.3625L168.63 56.4033L170.902 54.4441C150.941 31.2975 126.502 16.6404 98.1679 8.34736L97.3252 11.2266ZM168.63 56.4033L170.991 58.2545C178.871 48.2051 186.605 38.3407 194.918 27.7388L192.558 25.8877L190.197 24.0366C181.884 34.638 174.149 44.5034 166.269 54.5522L168.63 56.4033ZM192.558 25.8877L193.12 22.9409C186.329 21.6443 180.272 20.4873 172.879 19.0757L172.316 22.0225L171.754 24.9692C179.14 26.3795 185.211 27.539 191.995 28.8345L192.558 25.8877ZM172.316 22.0225L173.363 24.8338C186.877 19.8014 199.089 15.2532 212.089 10.412L211.042 7.60059L209.995 4.78922C196.995 9.63042 184.782 14.1787 171.269 19.2111L172.316 22.0225ZM211.042 7.60059L208.07 7.19076C206.173 20.9499 204.382 33.9295 202.371 48.516L205.343 48.9258L208.315 49.3356C210.327 34.745 212.116 21.774 214.014 8.01041L211.042 7.60059ZM205.343 48.9258L208.13 47.8162C205.303 40.7159 203.015 34.9673 200.318 28.1941L197.531 29.3037L194.744 30.4133C197.441 37.1884 199.728 42.9331 202.556 50.0354L205.343 48.9258ZM197.531 29.3037L195.05 27.6169C187.009 39.4432 179.429 50.591 171.782 61.8376L174.263 63.5244L176.744 65.2113C184.391 53.9648 191.971 42.8169 200.012 30.9906L197.531 29.3037ZM174.263 63.5244L171.84 65.2943C195.374 97.5029 203.677 134.61 207.823 173.563L210.806 173.245L213.789 172.928C209.604 133.605 201.149 95.2364 176.685 61.7545L174.263 63.5244ZM210.806 173.245L207.823 173.563C208.264 177.711 208.777 181.975 209.637 186.189L212.576 185.589L215.516 184.989C214.716 181.07 214.227 177.043 213.789 172.928L210.806 173.245ZM212.576 185.589L209.637 186.189C210.781 191.795 212.524 196.174 215.955 199.152C219.379 202.125 223.972 203.257 229.697 203.653L229.904 200.66L230.111 197.667C224.785 197.299 221.814 196.294 219.888 194.621C217.969 192.955 216.575 190.18 215.516 184.989L212.576 185.589ZM229.904 200.66L226.934 201.078C227.308 203.741 227.694 206.475 228.077 209.198L231.048 208.779L234.019 208.361C233.634 205.633 233.25 202.909 232.875 200.242L229.904 200.66ZM231.048 208.779L230.614 205.811C222.828 206.948 216.768 204.026 213.33 197.579L210.683 198.991L208.036 200.403C212.769 209.278 221.415 213.218 231.481 211.748L231.048 208.779ZM210.683 198.991L213.33 197.579C211.743 194.604 210.51 191.37 210.051 188.272L207.083 188.712L204.116 189.152C204.705 193.128 206.235 197.028 208.036 200.403L210.683 198.991ZM207.083 188.712L210.051 188.272C206.038 161.231 190.363 142.166 168.648 128.091L167.017 130.608L165.385 133.126C186.063 146.529 200.42 164.246 204.115 189.152L207.083 188.712ZM167.017 130.608L168.648 128.091C164.58 125.454 160.215 123.381 155.894 121.498C151.485 119.576 147.298 117.921 143.129 115.966L141.855 118.682L140.582 121.398C144.824 123.388 149.358 125.194 153.497 126.998C157.724 128.841 161.733 130.759 165.385 133.126L167.017 130.608ZM141.855 118.682L143.129 115.966C141.267 115.092 139.237 114.669 137.18 115.416C135.259 116.115 133.916 117.633 132.876 119.134L135.342 120.843L137.807 122.552C138.639 121.352 139.092 121.105 139.23 121.055C139.231 121.055 139.522 120.901 140.582 121.398L141.855 118.682ZM135.342 120.843L132.876 119.134C119.678 138.174 106.622 157.224 92.88 175.762L95.29 177.549L97.7001 179.335C111.513 160.701 124.637 141.552 137.807 122.552L135.342 120.843ZM95.29 177.549L92.88 175.762C90.7107 178.689 88.0621 181.342 85.1293 184.036C82.2916 186.643 78.966 189.479 75.9589 192.371L78.0381 194.533L80.1173 196.696C83.1083 193.82 86.0695 191.32 89.1886 188.454C92.2126 185.676 95.1909 182.72 97.7001 179.335L95.29 177.549ZM78.0381 194.533L76.4239 192.005C64.9071 199.356 53.1922 203.136 40.3813 200.657L39.8115 203.603L39.2417 206.548C54.0753 209.418 67.3609 204.908 79.6523 197.062L78.0381 194.533ZM39.8115 203.603L40.3814 200.657C32.4373 199.12 26.7435 195.356 23.3486 190.238C19.9459 185.109 18.6349 178.29 20.097 170.254L17.1455 169.717L14.194 169.18C12.5097 178.436 13.9317 186.896 18.3486 193.555C22.7734 200.225 29.9857 204.757 39.2417 206.548L39.8115 203.603ZM17.1455 169.717L20.097 170.254C23.4708 151.712 33.9048 137.578 48.8466 126.468L47.0566 124.061L45.2666 121.653C29.3878 133.459 17.8973 148.827 14.194 169.18L17.1455 169.717ZM47.0566 124.061L48.8466 126.468C72.5028 108.879 99.158 101.807 128.587 104.896L128.9 101.912L129.214 98.9285C98.325 95.6862 70.1608 103.144 45.2666 121.653L47.0566 124.061ZM128.9 101.912L128.587 104.896C129.811 105.024 131.223 104.914 132.501 104.592C133.672 104.298 135.315 103.682 136.401 102.345L134.071 100.454L131.742 98.5636C131.848 98.4332 131.89 98.4459 131.729 98.5287C131.583 98.6044 131.351 98.6947 131.038 98.7735C130.389 98.9367 129.685 98.9779 129.214 98.9285L128.9 101.912ZM134.071 100.454L136.401 102.345C144.497 92.3691 152.323 82.1563 160.393 71.8034L158.027 69.959L155.661 68.1145C147.55 78.5202 139.789 88.6488 131.742 98.5636L134.071 100.454ZM158.027 69.959L160.214 67.9046C149.063 56.039 136.106 47.106 121.46 40.6823L120.255 43.4297L119.05 46.177C132.99 52.2914 145.271 60.7651 155.841 72.0134L158.027 69.959ZM120.255 43.4297L121.46 40.6823C95.3899 29.248 68.0248 26.7371 40.3009 28.7176L40.5146 31.71L40.7284 34.7023C67.8208 32.7669 94.1392 35.2511 119.05 46.177L120.255 43.4297ZM40.5146 31.71L40.3009 28.7176C30.4404 29.422 20.4911 30.9654 10.9072 32.0614L11.248 35.042L11.5889 38.0226C21.517 36.8872 31.0194 35.3959 40.7284 34.7023L40.5146 31.71ZM11.248 35.042L10.9072 32.0614C10.1775 32.1449 9.73274 32.0566 8.12402 32.0566V35.0566V38.0566C8.94376 38.0566 10.432 38.1549 11.5889 38.0226L11.248 35.042ZM8.12402 35.0566L11.0904 34.6087C9.54518 24.3761 8.04171 14.4184 6.42926 3.74053L3.46289 4.18848L0.496522 4.63642C2.10496 15.2877 3.61642 25.2984 5.15765 35.5046L8.12402 35.0566ZM3.46289 4.18848L3.60561 7.18508C11.5032 6.80895 18.8465 6.34062 26.248 6.12865L26.1621 3.12988L26.0762 0.131112C18.6032 0.345123 11.0868 0.821976 3.32017 1.19187L3.46289 4.18848ZM98.3643 113.05L98.1814 110.055C74.6992 111.489 53.654 119.206 38.4528 138.759L40.8213 140.601L43.1897 142.442C57.0231 124.648 76.2081 117.408 98.5471 116.044L98.3643 113.05ZM40.8213 140.601L38.4528 138.759C30.1585 149.428 25.292 161.884 28.9208 176.305L31.8301 175.573L34.7394 174.841C31.7075 162.792 35.6013 152.203 43.1898 142.442L40.8213 140.601ZM31.8301 175.573L28.9208 176.305C30.1403 181.152 32.5579 185.055 36.1278 187.692C39.6881 190.322 44.1328 191.5 49.0747 191.379L49.001 188.38L48.9272 185.381C45.0272 185.477 41.9672 184.546 39.6929 182.866C37.4282 181.193 35.6813 178.585 34.7394 174.841L31.8301 175.573ZM49.001 188.38L49.0747 191.379C62.8524 191.04 72.767 183.397 80.5965 174.222L78.3145 172.274L76.0324 170.327C68.7154 178.901 60.2612 185.102 48.9272 185.381L49.001 188.38ZM78.3145 172.274L80.5965 174.222C91.2367 161.753 101.166 148.642 111.185 135.844L108.822 133.995L106.46 132.146C96.3613 145.046 86.5637 157.986 76.0324 170.327L78.3145 172.274ZM108.822 133.995L111.185 135.844C116.089 129.579 120.769 123.064 126.354 115.587L123.95 113.792L121.547 111.997C115.871 119.596 111.312 125.949 106.46 132.146L108.822 133.995ZM123.95 113.792L124.044 110.793C114.938 110.508 107.174 110.265 98.4379 110.051L98.3643 113.05L98.2906 116.049C107.003 116.263 114.747 116.505 123.856 116.791L123.95 113.792ZM164.816 77.582L162.336 75.8946C159.098 80.6541 156.216 84.8901 153.148 89.4336L155.635 91.1123L158.121 92.791C161.182 88.2578 164.058 84.0305 167.297 79.2694L164.816 77.582ZM155.635 91.1123L153.148 89.4341C149.821 94.3641 146.679 98.9886 143.358 103.876L145.839 105.562L148.32 107.249C151.641 102.362 154.788 97.7296 158.121 92.7905L155.635 91.1123ZM145.839 105.562V108.562H145.84V105.562V102.562H145.839V105.562ZM145.84 105.562L143.157 104.221L143.156 104.223L145.839 105.564L148.522 106.906L148.523 106.904L145.84 105.562ZM145.839 105.564L144.9 108.414C162.223 114.124 176.773 123.416 190.852 134.318L192.688 131.946L194.525 129.574C180.179 118.465 165.012 108.726 146.778 102.715L145.839 105.564ZM192.688 131.946L195.557 131.067C195.546 131.032 195.537 131.005 195.531 130.988C195.529 130.98 195.526 130.973 195.525 130.969C195.524 130.967 195.523 130.965 195.523 130.964C195.523 130.963 195.523 130.963 195.523 130.962C195.523 130.962 195.522 130.962 195.522 130.962C195.522 130.962 195.522 130.962 195.522 130.962C195.522 130.961 195.523 130.964 195.524 130.968C195.526 130.972 195.528 130.979 195.531 130.987C195.536 131.003 195.545 131.03 195.556 131.064L192.688 131.943L189.819 132.823C189.83 132.857 189.839 132.885 189.845 132.901C189.847 132.91 189.85 132.917 189.851 132.921C189.852 132.923 189.853 132.925 189.853 132.926C189.853 132.927 189.853 132.927 189.853 132.927C189.853 132.927 189.854 132.928 189.854 132.928C189.854 132.928 189.854 132.928 189.854 132.928C189.854 132.928 189.853 132.925 189.851 132.922C189.85 132.918 189.848 132.911 189.845 132.903C189.84 132.887 189.831 132.86 189.82 132.826L192.688 131.946ZM192.688 131.943L190.566 134.065L190.567 134.066L192.688 131.944L194.81 129.823L194.809 129.822L192.688 131.943ZM192.688 131.944L195.557 131.065C194.841 128.733 194.091 126.422 193.303 124.129L190.466 125.104L187.629 126.08C188.394 128.307 189.124 130.555 189.82 132.824L192.688 131.944ZM190.466 125.104L193.303 124.129C193.084 123.491 192.861 122.854 192.636 122.219L189.809 123.223L186.981 124.226C187.2 124.842 187.416 125.46 187.629 126.08L190.466 125.104ZM189.809 123.223L192.636 122.219C192.176 120.924 191.704 119.634 191.218 118.349L188.412 119.411L185.607 120.474C186.077 121.716 186.535 122.967 186.981 124.226L189.809 123.223ZM188.412 119.411L191.218 118.348C191.13 118.118 191.031 117.863 190.954 117.661L188.152 118.734L185.351 119.808C185.446 120.057 185.523 120.252 185.607 120.474L188.412 119.411ZM188.152 118.734L190.954 117.661C185.234 102.736 177.672 88.6794 167.147 75.6931L164.816 77.582L162.486 79.4709C172.549 91.8876 179.818 105.37 185.351 119.808L188.152 118.734Z" fill="#223F7F" mask="url(#path-4-outside-1_592_1853)"/>
<mask id="path-6-outside-2_592_1853" maskUnits="userSpaceOnUse" x="438.131" y="65.7422" width="99" height="117" fill="black">
<rect fill="white" x="438.131" y="65.7422" width="99" height="117"/>
<path d="M473.862 73.7158C474.831 71.1073 475.323 68.1571 479.388 68.8428C483.104 69.4697 487.069 67.3884 489.342 73.2783C499.746 100.24 510.794 126.954 521.72 154.126C525.047 162.48 528.266 170.465 531.75 179.11C525.372 179.11 519.609 179.305 513.879 178.964C512.556 178.885 510.87 177.217 510.159 175.857C506.85 169.529 503.74 163.091 500.743 156.607C499.655 154.254 498.448 153.064 495.577 153.106C483.257 153.289 470.929 153.087 458.61 153.313C457.147 153.34 455.036 154.816 454.39 156.175C451.769 161.683 449.603 167.408 447.232 173.141C440.404 166.975 439.906 165.143 442.807 157.331C453.157 129.459 463.511 101.588 473.862 73.7158ZM475.552 96.4766C472.673 104.788 469.993 112.53 467.328 120.237C465.73 124.854 464.146 129.425 462.548 134.05L459.149 144.07H494.858C488.475 128.333 482.249 112.987 475.552 96.4766Z"/>
</mask>
<path d="M473.862 73.7158C474.831 71.1073 475.323 68.1571 479.388 68.8428C483.104 69.4697 487.069 67.3884 489.342 73.2783C499.746 100.24 510.794 126.954 521.72 154.126C525.047 162.48 528.266 170.465 531.75 179.11C525.372 179.11 519.609 179.305 513.879 178.964C512.556 178.885 510.87 177.217 510.159 175.857C506.85 169.529 503.74 163.091 500.743 156.607C499.655 154.254 498.448 153.064 495.577 153.106C483.257 153.289 470.929 153.087 458.61 153.313C457.147 153.34 455.036 154.816 454.39 156.175C451.769 161.683 449.603 167.408 447.232 173.141C440.404 166.975 439.906 165.143 442.807 157.331C453.157 129.459 463.511 101.588 473.862 73.7158ZM475.552 96.4766C472.673 104.788 469.993 112.53 467.328 120.237C465.73 124.854 464.146 129.425 462.548 134.05L459.149 144.07H494.858C488.475 128.333 482.249 112.987 475.552 96.4766Z" fill="#223F7F"/>
<path d="M473.862 73.7158L476.675 74.7603L476.675 74.7602L473.862 73.7158ZM479.388 68.8428L478.889 71.801L478.889 71.801L479.388 68.8428ZM489.342 73.2783L492.141 72.1982L492.141 72.1981L489.342 73.2783ZM521.72 154.126L524.507 153.016L524.503 153.007L521.72 154.126ZM531.75 179.11V182.11H536.194L534.533 177.989L531.75 179.11ZM513.879 178.964L514.057 175.969L514.057 175.969L513.879 178.964ZM510.159 175.857L512.818 174.467L512.818 174.467L510.159 175.857ZM500.743 156.607L503.466 155.349L503.466 155.349L500.743 156.607ZM495.577 153.106L495.533 150.107L495.533 150.107L495.577 153.106ZM458.61 153.313L458.666 156.313L458.666 156.313L458.61 153.313ZM454.39 156.175L451.681 154.886L451.681 154.886L454.39 156.175ZM447.232 173.141L445.222 175.367L448.379 178.218L450.005 174.287L447.232 173.141ZM442.807 157.331L445.619 158.375L445.619 158.375L442.807 157.331ZM475.552 96.4766L478.332 95.3489L475.33 87.9498L472.717 95.4947L475.552 96.4766ZM467.328 120.237L470.163 121.218L470.163 121.218L467.328 120.237ZM462.548 134.05L459.712 133.07L459.71 133.078L459.707 133.086L462.548 134.05ZM459.149 144.07L456.308 143.107L454.964 147.07H459.149V144.07ZM494.858 144.07V147.07H499.313L497.638 142.943L494.858 144.07ZM473.862 73.7158L476.675 74.7602C476.81 74.3957 476.937 74.0256 477.045 73.7125C477.159 73.3838 477.258 73.1038 477.359 72.8442C477.568 72.3066 477.725 72.0258 477.842 71.873C477.892 71.8086 477.919 71.7878 477.921 71.7861C477.923 71.7848 477.923 71.7851 477.922 71.7856C477.921 71.7861 477.924 71.7841 477.935 71.7805C477.964 71.7701 478.221 71.6883 478.889 71.801L479.388 68.8428L479.887 65.8846C478.522 65.6544 477.193 65.6842 475.957 66.1157C474.686 66.5595 473.757 67.3433 473.086 68.2149C472.451 69.04 472.049 69.943 471.766 70.6708C471.555 71.2149 471.178 72.3277 471.05 72.6714L473.862 73.7158ZM479.388 68.8428L478.889 71.801C480.132 72.0107 481.348 71.986 482.239 71.9717C483.234 71.9557 483.859 71.9525 484.406 72.0449C484.869 72.1233 485.151 72.2546 485.397 72.4655C485.669 72.6993 486.099 73.2069 486.543 74.3585L489.342 73.2783L492.141 72.1981C491.448 70.4048 490.53 68.9638 489.303 67.9118C488.05 66.8367 486.683 66.3449 485.406 66.129C484.213 65.9271 483.008 65.9586 482.143 65.9724C481.175 65.988 480.502 65.9883 479.887 65.8846L479.388 68.8428ZM489.342 73.2783L486.543 74.3584C496.957 101.345 508.025 128.11 518.936 155.245L521.72 154.126L524.503 153.007C513.563 125.797 502.535 99.1341 492.141 72.1982L489.342 73.2783ZM521.72 154.126L518.933 155.236C522.263 163.597 525.483 171.587 528.967 180.232L531.75 179.11L534.533 177.989C531.048 169.342 527.831 161.364 524.507 153.016L521.72 154.126ZM531.75 179.11V176.11C525.236 176.11 519.669 176.304 514.057 175.969L513.879 178.964L513.7 181.959C519.549 182.307 525.508 182.11 531.75 182.11V179.11ZM513.879 178.964L514.057 175.969C514.292 175.983 514.364 176.049 514.247 175.987C514.146 175.933 513.981 175.824 513.775 175.642C513.344 175.262 512.986 174.789 512.818 174.467L510.159 175.857L507.501 177.247C508.043 178.286 508.883 179.326 509.803 180.139C510.632 180.871 512.019 181.858 513.701 181.959L513.879 178.964ZM510.159 175.857L512.818 174.467C509.538 168.194 506.449 161.802 503.466 155.349L500.743 156.607L498.02 157.866C501.031 164.38 504.163 170.864 507.501 177.247L510.159 175.857ZM500.743 156.607L503.466 155.349C502.851 154.017 502.015 152.579 500.607 151.542C499.128 150.454 497.4 150.079 495.533 150.107L495.577 153.106L495.622 156.106C496.625 156.091 496.936 156.291 497.05 156.375C497.236 156.511 497.548 156.845 498.02 157.866L500.743 156.607ZM495.577 153.106L495.533 150.107C489.399 150.198 483.261 150.193 477.093 150.193C470.933 150.194 464.746 150.2 458.555 150.314L458.61 153.313L458.666 156.313C464.794 156.2 470.93 156.194 477.093 156.193C483.249 156.193 489.435 156.198 495.622 156.106L495.577 153.106ZM458.61 153.313L458.555 150.314C456.99 150.343 455.519 151.071 454.498 151.77C453.457 152.483 452.312 153.559 451.681 154.886L454.39 156.175L457.099 157.464C457.089 157.484 457.133 157.392 457.297 157.219C457.45 157.057 457.654 156.881 457.889 156.72C458.125 156.558 458.348 156.441 458.526 156.371C458.72 156.295 458.763 156.311 458.666 156.313L458.61 153.313ZM454.39 156.175L451.681 154.886C449.015 160.488 446.784 166.375 444.46 171.994L447.232 173.141L450.005 174.287C452.422 168.442 454.522 162.878 457.099 157.464L454.39 156.175ZM447.232 173.141L449.243 170.914C445.726 167.738 444.606 166.285 444.261 165.046C443.94 163.9 444.135 162.371 445.619 158.375L442.807 157.331L439.994 156.287C438.577 160.103 437.571 163.396 438.481 166.659C439.367 169.831 441.91 172.377 445.222 175.367L447.232 173.141ZM442.807 157.331L445.619 158.375C455.969 130.503 466.323 102.633 476.675 74.7603L473.862 73.7158L471.05 72.6714C460.699 100.543 450.345 128.415 439.994 156.287L442.807 157.331ZM475.552 96.4766L472.717 95.4947C469.838 103.807 467.158 111.549 464.493 119.257L467.328 120.237L470.163 121.218C472.828 113.511 475.508 105.77 478.387 97.4585L475.552 96.4766ZM467.328 120.237L464.493 119.256C462.896 123.871 461.311 128.444 459.712 133.07L462.548 134.05L465.383 135.03C466.981 130.405 468.565 125.837 470.163 121.218L467.328 120.237ZM462.548 134.05L459.707 133.086L456.308 143.107L459.149 144.07L461.99 145.034L465.389 135.013L462.548 134.05ZM459.149 144.07V147.07H494.858V144.07V141.07H459.149V144.07ZM494.858 144.07L497.638 142.943C491.254 127.205 485.029 111.86 478.332 95.3489L475.552 96.4766L472.772 97.6042C479.469 114.114 485.695 129.462 492.078 145.198L494.858 144.07Z" fill="#223F7F" mask="url(#path-6-outside-2_592_1853)"/>
</svg>
