<svg width="28" height="28" viewBox="0 0 28 28" fill="none" xmlns="http://www.w3.org/2000/svg">
<path d="M13.815 25.329C20.1736 25.329 25.3282 20.1744 25.3282 13.8159C25.3282 7.45735 20.1736 2.30273 13.815 2.30273C7.4565 2.30273 2.30188 7.45735 2.30188 13.8159C2.30188 20.1744 7.4565 25.329 13.815 25.329Z" fill="#223F7F" stroke="#223F7F" stroke-width="2.30263" stroke-linecap="round" stroke-linejoin="round"/>
<path d="M13.8152 2.30273C10.8589 5.40686 9.20996 9.52924 9.20996 13.8159C9.20996 18.1025 10.8589 22.2249 13.8152 25.329C16.7715 22.2249 18.4205 18.1025 18.4205 13.8159C18.4205 9.52924 16.7715 5.40686 13.8152 2.30273Z" fill="#223F7F" stroke="#223F7F" stroke-width="2.30263" stroke-linecap="round" stroke-linejoin="round"/>
<path d="M2.30188 13.8145H25.3282H2.30188Z" fill="#223F7F"/>
<path d="M2.30188 13.8145H25.3282" stroke="#223F7F" stroke-width="2.30263" stroke-linecap="round" stroke-linejoin="round"/>
</svg>
