<svg width="32" height="32" viewBox="0 0 32 32" fill="none" xmlns="http://www.w3.org/2000/svg">
<path d="M28.5603 14.5635C28.799 14.4582 29.0016 14.2852 29.1429 14.0659C29.2842 13.8466 29.3581 13.5907 29.3554 13.3298C29.3527 13.0689 29.2736 12.8146 29.1277 12.5982C28.9819 12.3819 28.7758 12.2131 28.535 12.1128L17.107 6.90747C16.7596 6.749 16.3822 6.66699 16.0003 6.66699C15.6185 6.66699 15.2411 6.749 14.8937 6.90747L3.46701 12.1075C3.22963 12.2114 3.0277 12.3823 2.8859 12.5992C2.7441 12.8161 2.66858 13.0697 2.66858 13.3288C2.66858 13.5879 2.7441 13.8415 2.8859 14.0584C3.0277 14.2753 3.22963 14.4462 3.46701 14.5501L14.8937 19.7608C15.2411 19.9193 15.6185 20.0013 16.0003 20.0013C16.3822 20.0013 16.7596 19.9193 17.107 19.7608L28.5603 14.5635Z" stroke="#C0392B" stroke-width="2.66667" stroke-linecap="round" stroke-linejoin="round"/>
<path d="M29.3333 13.333V21.333" stroke="#C0392B" stroke-width="2.66667" stroke-linecap="round" stroke-linejoin="round"/>
<path d="M8 16.667V21.3337C8 22.3945 8.84286 23.4119 10.3431 24.1621C11.8434 24.9122 13.8783 25.3337 16 25.3337C18.1217 25.3337 20.1566 24.9122 21.6569 24.1621C23.1571 23.4119 24 22.3945 24 21.3337V16.667" stroke="#C0392B" stroke-width="2.66667" stroke-linecap="round" stroke-linejoin="round"/>
</svg>
