<svg width="18" height="18" viewBox="0 0 18 18" fill="none" xmlns="http://www.w3.org/2000/svg">
<path d="M8.70833 17.4167C8.49837 17.4167 8.29701 17.3333 8.14854 17.1848C8.00007 17.0363 7.91667 16.835 7.91667 16.625V14.25H4.75C4.33007 14.25 3.92735 14.0832 3.63041 13.7863C3.33348 13.4893 3.16667 13.0866 3.16667 12.6667V4.75C3.16667 4.33007 3.33348 3.92735 3.63041 3.63041C3.92735 3.33348 4.33007 3.16667 4.75 3.16667H15.8333C16.2533 3.16667 16.656 3.33348 16.9529 3.63041C17.2499 3.92735 17.4167 4.33007 17.4167 4.75V12.6667C17.4167 13.0866 17.2499 13.4893 16.9529 13.7863C16.656 14.0832 16.2533 14.25 15.8333 14.25H12.5875L9.65833 17.1871C9.5 17.3375 9.30208 17.4167 9.10417 17.4167H8.70833ZM9.5 12.6667V15.105L11.9383 12.6667H15.8333V4.75H4.75V12.6667H9.5ZM1.58333 11.0833H0V1.58333C0 1.16341 0.166815 0.76068 0.463748 0.463748C0.76068 0.166815 1.16341 0 1.58333 0H14.25V1.58333H1.58333V11.0833Z" fill="#C2C2C2"/>
</svg>
