<svg width="28" height="28" viewBox="0 0 28 28" fill="none" xmlns="http://www.w3.org/2000/svg">
<path d="M13.8167 11.5117H13.8283H13.8167Z" fill="#223F7F"/>
<path d="M13.8167 11.5117H13.8283" stroke="#223F7F" stroke-width="2.30263" stroke-linecap="round" stroke-linejoin="round"/>
<path d="M13.8167 16.1191H13.8283H13.8167Z" fill="#223F7F"/>
<path d="M13.8167 16.1191H13.8283" stroke="#223F7F" stroke-width="2.30263" stroke-linecap="round" stroke-linejoin="round"/>
<path d="M13.8167 6.90625H13.8283H13.8167Z" fill="#223F7F"/>
<path d="M13.8167 6.90625H13.8283" stroke="#223F7F" stroke-width="2.30263" stroke-linecap="round" stroke-linejoin="round"/>
<path d="M18.4221 11.5117H18.4338H18.4221Z" fill="#223F7F"/>
<path d="M18.4221 11.5117H18.4338" stroke="#223F7F" stroke-width="2.30263" stroke-linecap="round" stroke-linejoin="round"/>
<path d="M18.4221 16.1191H18.4338H18.4221Z" fill="#223F7F"/>
<path d="M18.4221 16.1191H18.4338" stroke="#223F7F" stroke-width="2.30263" stroke-linecap="round" stroke-linejoin="round"/>
<path d="M18.4221 6.90625H18.4338H18.4221Z" fill="#223F7F"/>
<path d="M18.4221 6.90625H18.4338" stroke="#223F7F" stroke-width="2.30263" stroke-linecap="round" stroke-linejoin="round"/>
<path d="M9.21118 11.5117H9.22285H9.21118Z" fill="#223F7F"/>
<path d="M9.21118 11.5117H9.22285" stroke="#223F7F" stroke-width="2.30263" stroke-linecap="round" stroke-linejoin="round"/>
<path d="M9.21118 16.1191H9.22285H9.21118Z" fill="#223F7F"/>
<path d="M9.21118 16.1191H9.22285" stroke="#223F7F" stroke-width="2.30263" stroke-linecap="round" stroke-linejoin="round"/>
<path d="M9.21118 6.90625H9.22285H9.21118Z" fill="#223F7F"/>
<path d="M9.21118 6.90625H9.22285" stroke="#223F7F" stroke-width="2.30263" stroke-linecap="round" stroke-linejoin="round"/>
<path d="M10.3621 25.3279V21.874C10.3621 21.5686 10.4834 21.2758 10.6993 21.0599C10.9152 20.844 11.208 20.7227 11.5134 20.7227H16.1186C16.424 20.7227 16.7168 20.844 16.9327 21.0599C17.1487 21.2758 17.27 21.5686 17.27 21.874V25.3279" fill="#223F7F"/>
<path d="M10.3621 25.3279V21.874C10.3621 21.5686 10.4834 21.2758 10.6993 21.0599C10.9152 20.844 11.208 20.7227 11.5134 20.7227H16.1186C16.424 20.7227 16.7168 20.844 16.9327 21.0599C17.1487 21.2758 17.27 21.5686 17.27 21.874V25.3279" stroke="#223F7F" stroke-width="2.30263" stroke-linecap="round" stroke-linejoin="round"/>
<path d="M20.7244 2.30273H6.90859C5.63688 2.30273 4.60596 3.33366 4.60596 4.60537V23.0264C4.60596 24.2981 5.63688 25.329 6.90859 25.329H20.7244C21.9961 25.329 23.027 24.2981 23.027 23.0264V4.60537C23.027 3.33366 21.9961 2.30273 20.7244 2.30273Z" fill="#223F7F" stroke="#223F7F" stroke-width="2.30263" stroke-linecap="round" stroke-linejoin="round"/>
</svg>
