<svg width="13" height="24" viewBox="0 0 13 24" fill="none" xmlns="http://www.w3.org/2000/svg">
<path d="M3.3 18.6947C3.3 18.5579 3.27368 18.4895 3.22105 18.4895L2.85789 18.6632C2.85789 18.5895 2.81579 18.5368 2.73158 18.5053L2.60526 18.4895C2.52105 18.4895 2.41579 18.5263 2.28947 18.6C2.26842 18.5474 2.24211 18.4947 2.21053 18.4421C2.17895 18.3895 2.15263 18.3421 2.13158 18.3C1.99474 18.0368 1.85789 17.7474 1.72105 17.4316C1.59474 17.1053 1.47368 16.7947 1.35789 16.5C1.25263 16.2053 1.16842 15.9737 1.10526 15.8053C1.06316 15.6684 1.01579 15.4632 0.963158 15.1895C0.910526 14.9158 0.857895 14.5684 0.805263 14.1474C0.921053 14.2211 1.01053 14.2579 1.07368 14.2579C1.14737 14.2579 1.21579 14.1474 1.27895 13.9263C1.31053 13.9684 1.36842 13.9895 1.45263 13.9895C1.51579 13.9895 1.56316 13.9684 1.59474 13.9263L1.84737 13.5474L2.13158 13.6421H2.14737C2.16842 13.6421 2.18947 13.6316 2.21053 13.6105C2.23158 13.5895 2.26316 13.5684 2.30526 13.5474C2.38947 13.4947 2.45263 13.4684 2.49474 13.4684L2.54211 13.4842C2.80526 13.6105 2.97368 13.8421 3.04737 14.1789C3.23684 14.9789 3.42632 15.3789 3.61579 15.3789C3.80526 15.3789 4.02632 15.1789 4.27895 14.7789C4.40526 14.5789 4.53158 14.3474 4.65789 14.0842C4.79474 13.8211 4.93158 13.5263 5.06842 13.2C5.08947 13.3263 5.11053 13.3895 5.13158 13.3895C5.18421 13.3895 5.27368 13.2579 5.4 12.9947C5.53684 12.7316 5.75263 12.3684 6.04737 11.9053C6.21579 11.6211 6.42632 11.3 6.67895 10.9421C6.94211 10.5842 7.22105 10.2158 7.51579 9.83684C7.81053 9.45789 8.09474 9.1 8.36842 8.76316C8.65263 8.42632 8.90526 8.13684 9.12632 7.89474C9.34737 7.65263 9.51053 7.49474 9.61579 7.42105C10.0158 7.14737 10.3316 6.88421 10.5632 6.63158C10.5526 6.70526 10.5368 6.77368 10.5158 6.83684C10.5053 6.88947 10.5 6.92632 10.5 6.94737C10.5 6.98947 10.5211 7.01053 10.5632 7.01053L11.0053 6.78947V6.85263C11.0053 6.93684 11.0263 6.97895 11.0684 6.97895C11.1 6.97895 11.1632 6.93158 11.2579 6.83684C11.3526 6.74211 11.4053 6.67368 11.4158 6.63158L11.3842 6.85263L11.9211 6.53684L11.7947 6.82105C11.9632 6.70526 12.0842 6.64737 12.1579 6.64737C12.2 6.64737 12.2316 6.67368 12.2526 6.72632C12.2737 6.76842 12.2842 6.81053 12.2842 6.85263C12.2842 6.91579 12.2579 6.98947 12.2053 7.07368C12.1526 7.15789 12.0842 7.25789 12 7.37368C11.9368 7.45789 11.8316 7.58421 11.6842 7.75263C11.5474 7.91053 11.3368 8.14737 11.0526 8.46316C10.7684 8.76842 10.3895 9.19474 9.91579 9.74211C9.78947 9.87895 9.59474 10.1211 9.33158 10.4684C9.06842 10.8053 8.76842 11.2 8.43158 11.6526C8.10526 12.0947 7.77895 12.5421 7.45263 12.9947C7.12632 13.4474 6.83684 13.8579 6.58421 14.2263C6.33158 14.5842 6.15263 14.8526 6.04737 15.0316L5.06842 16.6895C4.8579 17.0474 4.68421 17.3421 4.54737 17.5737C4.41053 17.7947 4.30526 17.9474 4.23158 18.0316C4.07368 18.2211 3.9 18.3895 3.71053 18.5368L3.56842 18.4579L3.44211 18.5368L3.3 18.6947Z" fill="#008C8C"/>
</svg>
