<svg width="32" height="32" viewBox="0 0 32 32" fill="none" xmlns="http://www.w3.org/2000/svg">
    <path class="transition-all duration-700" d="M2.66699 12.6705C2.66702 11.1868 3.11712 9.73799 3.95784 8.51543C4.79856 7.29287 5.99035 6.35409 7.3758 5.82308C8.76126 5.29207 10.2752 5.1938 11.7177 5.54127C13.1601 5.88874 14.4633 6.66559 15.455 7.76921C15.5248 7.8439 15.6093 7.90344 15.7031 7.94415C15.7969 7.98485 15.8981 8.00586 16.0003 8.00586C16.1026 8.00586 16.2038 7.98485 16.2976 7.94415C16.3914 7.90344 16.4758 7.8439 16.5457 7.76921C17.5342 6.65841 18.8377 5.87504 20.2825 5.52335C21.7273 5.17166 23.245 5.26834 24.6335 5.80052C26.022 6.33271 27.2155 7.27515 28.0551 8.50241C28.8948 9.72968 29.3407 11.1836 29.3337 12.6705C29.3337 15.7239 27.3337 18.0039 25.3337 20.0039L18.011 27.0879C17.7625 27.3732 17.4562 27.6024 17.1124 27.7603C16.7685 27.9181 16.395 28.001 16.0167 28.0034C15.6384 28.0058 15.2639 27.9277 14.918 27.7742C14.5722 27.6207 14.263 27.3954 14.011 27.1132L6.66699 20.0039C4.66699 18.0039 2.66699 15.7372 2.66699 12.6705Z" stroke="#008C8C" stroke-width="2.66667" stroke-linecap="round" stroke-linejoin="round"/>
</svg>
