<svg width="24" height="24" viewBox="0 0 24 24" fill="none" xmlns="http://www.w3.org/2000/svg">
    <path d="M16.0002 21V19C16.0002 17.9391 15.5788 16.9217 14.8287 16.1716C14.0785 15.4214 13.0611 15 12.0002 15H6.00024C4.93938 15 3.92196 15.4214 3.17182 16.1716C2.42167 16.9217 2.00024 17.9391 2.00024 19V21" stroke="white" stroke-width="2" stroke-linecap="round" stroke-linejoin="round" />
    <path d="M16.0002 3.12891C16.858 3.35128 17.6176 3.85217 18.1599 4.55297C18.7022 5.25377 18.9964 6.1148 18.9964 7.00091C18.9964 7.88702 18.7022 8.74805 18.1599 9.44884C17.6176 10.1496 16.858 10.6505 16.0002 10.8729" stroke="white" stroke-width="2" stroke-linecap="round" stroke-linejoin="round" />
    <path d="M22.0002 21.0009V19.0009C21.9996 18.1146 21.7046 17.2536 21.1616 16.5532C20.6186 15.8527 19.8584 15.3524 19.0002 15.1309" stroke="white" stroke-width="2" stroke-linecap="round" stroke-linejoin="round" />
    <path d="M9.00024 11C11.2094 11 13.0002 9.20914 13.0002 7C13.0002 4.79086 11.2094 3 9.00024 3C6.79111 3 5.00024 4.79086 5.00024 7C5.00024 9.20914 6.79111 11 9.00024 11Z" stroke="white" stroke-width="2" stroke-linecap="round" stroke-linejoin="round" />
</svg>
