<svg width="24" height="24" viewBox="0 0 24 24" fill="none" xmlns="http://www.w3.org/2000/svg">
<path d="M15.999 21V19C15.999 17.9391 15.5776 16.9217 14.8275 16.1716C14.0773 15.4214 13.0599 15 11.999 15H5.99902C4.93816 15 3.92074 15.4214 3.1706 16.1716C2.42045 16.9217 1.99902 17.9391 1.99902 19V21" stroke="#223F7F" stroke-width="1.5" stroke-linecap="round" stroke-linejoin="round"/>
<path d="M16 3.125C16.8578 3.34737 17.6174 3.84826 18.1597 4.54906C18.702 5.24986 18.9962 6.11089 18.9962 6.997C18.9962 7.88311 18.702 8.74414 18.1597 9.44494C17.6174 10.1457 16.8578 10.6466 16 10.869" stroke="#223F7F" stroke-width="1.5" stroke-linecap="round" stroke-linejoin="round"/>
<path d="M22 21.0028V19.0028C21.9993 18.1165 21.7044 17.2556 21.1614 16.5551C20.6184 15.8547 19.8581 15.3544 19 15.1328" stroke="#223F7F" stroke-width="1.5" stroke-linecap="round" stroke-linejoin="round"/>
<circle cx="9" cy="7" r="4" stroke="#223F7F" stroke-width="1.5" stroke-linecap="round" stroke-linejoin="round"/>
</svg>
