<svg width="28" height="28" viewBox="0 0 28 28" fill="none" xmlns="http://www.w3.org/2000/svg">
  <path d="M22.3517 16.5932C24.1777 14.7672 25.329 13.2383 25.329 10.9356C25.329 9.65445 24.9404 8.40341 24.2144 7.34775C23.4885 6.29209 22.4594 5.48146 21.2631 5.02294C20.0667 4.56442 18.7595 4.47957 17.5139 4.7796C16.2683 5.07964 15.1431 5.75043 14.2868 6.7034M22.3517 16.5932C22.1247 16.8203 21.8551 17.0005 21.5584 17.1234C21.2616 17.2463 20.9436 17.3096 20.6225 17.3096C20.3013 17.3096 19.9833 17.2463 19.6866 17.1234C19.3899 17.0005 19.1203 16.8203 18.8932 16.5932C19.1391 16.8155 19.3372 17.0855 19.4754 17.3868C19.6137 17.688 19.6893 18.0142 19.6977 18.3456C19.706 18.677 19.6469 19.0066 19.5239 19.3144C19.4009 19.6222 19.2166 19.9018 18.9822 20.1362C18.7478 20.3706 18.4682 20.5548 18.1604 20.6778C17.8526 20.8008 17.523 20.86 17.1916 20.8516C16.8603 20.8433 16.534 20.7677 16.2328 20.6294C15.9316 20.4911 15.6616 20.293 15.4392 20.0472C15.6665 20.2735 15.8469 20.5425 15.9702 20.8387C16.0934 21.1348 16.1571 21.4524 16.1575 21.7732C16.1579 22.094 16.0951 22.4117 15.9727 22.7082C15.8502 23.0047 15.6705 23.2741 15.4439 23.5011C15.2251 23.7199 14.9644 23.8924 14.6775 24.0083C14.3906 24.1242 14.0832 24.181 13.7738 24.1754C13.4644 24.1698 13.1593 24.1019 12.8768 23.9758C12.5942 23.8496 12.3399 23.6678 12.1292 23.4412L5.75668 17.2679C4.02971 15.5409 2.30273 13.5837 2.30273 10.9356C2.30299 9.65455 2.69181 8.40367 3.41785 7.34819C4.14389 6.29271 5.173 5.48226 6.36927 5.02388C7.56554 4.56551 8.87271 4.48075 10.1182 4.78082C11.3636 5.08089 12.4887 5.75166 13.345 6.70455C13.473 6.82352 13.6414 6.88955 13.8161 6.88934C13.9909 6.88913 14.1591 6.82268 14.2868 6.7034M22.3517 16.5932C22.7834 16.1614 23.0259 15.5758 23.0259 14.9652C23.0259 14.3547 22.7834 13.7691 22.3517 13.3373L20.1861 11.1705C19.9285 10.9127 19.6225 10.7082 19.2858 10.5687C18.9491 10.4292 18.5882 10.3574 18.2237 10.3574C17.8592 10.3574 17.4983 10.4292 17.1616 10.5687C16.8249 10.7082 16.519 10.9127 16.2613 11.1705L14.2925 13.1393C13.8607 13.5709 13.2752 13.8134 12.6646 13.8134C12.054 13.8134 11.4684 13.5709 11.0366 13.1393C10.6049 12.7074 10.3624 12.1219 10.3624 11.5113C10.3624 10.9007 10.6049 10.3151 11.0366 9.88334L14.2868 6.7034" stroke="#223F7F" stroke-width="2.30263" stroke-linecap="round" stroke-linejoin="round"/>
</svg>
