<svg width="19" height="19" viewBox="0 0 19 19" fill="none" xmlns="http://www.w3.org/2000/svg">
    <path d="M1.56445 7.4323C1.56447 6.56179 1.82854 5.71177 2.32179 4.99449C2.81504 4.27721 3.51427 3.72643 4.32712 3.41488C5.13997 3.10334 6.0282 3.04569 6.8745 3.24955C7.7208 3.4534 8.48536 3.90918 9.06719 4.55668C9.10817 4.6005 9.15772 4.63543 9.21275 4.65932C9.26779 4.6832 9.32714 4.69552 9.38714 4.69552C9.44713 4.69552 9.50649 4.6832 9.56153 4.65932C9.61656 4.63543 9.66611 4.6005 9.70709 4.55668C10.2871 3.90497 11.0518 3.44537 11.8995 3.23903C12.7472 3.03269 13.6376 3.08942 14.4522 3.40165C15.2669 3.71388 15.9671 4.26681 16.4597 4.98685C16.9523 5.70689 17.214 6.55988 17.2098 7.4323C17.2098 9.2237 16.0364 10.5614 14.863 11.7348L10.5668 15.891C10.421 16.0584 10.2413 16.1929 10.0396 16.2855C9.83785 16.3781 9.61872 16.4267 9.39675 16.4281C9.17478 16.4295 8.95505 16.3837 8.75216 16.2936C8.54927 16.2036 8.36787 16.0714 8.21999 15.9058L3.91126 11.7348C2.73786 10.5614 1.56445 9.23152 1.56445 7.4323Z" stroke="#C10007" stroke-width="1.56454" stroke-linecap="round" stroke-linejoin="round" />
    <path d="M2.51855 10.1676H7.4312L7.82234 9.38536L9.38687 12.9056L10.9514 7.42969L12.1248 10.1676H16.2474" stroke="#C10007" stroke-width="1.56454" stroke-linecap="round" stroke-linejoin="round" />
</svg>
