<svg width="28" height="28" viewBox="0 0 28 28" fill="none" xmlns="http://www.w3.org/2000/svg">
    <path d="M11.5129 13.8164H16.1182" stroke="white" stroke-width="2.3" stroke-linecap="round" stroke-linejoin="round" />
    <path d="M11.5129 9.20996H16.1182" stroke="white" stroke-width="2.3" stroke-linecap="round" stroke-linejoin="round" />
    <path d="M16.1182 24.1785V20.7245C16.1182 20.1138 15.8756 19.5281 15.4438 19.0963C15.0119 18.6645 14.4263 18.4219 13.8156 18.4219C13.2049 18.4219 12.6192 18.6645 12.1874 19.0963C11.7555 19.5281 11.5129 20.7245V24.1785" stroke="white" stroke-width="2.3" stroke-linecap="round" stroke-linejoin="round" />
    <path d="M6.90788 11.5142H4.60524C3.99455 11.5142 3.40886 11.7568 2.97704 12.1887C2.54521 12.6205 2.30261 13.2062 2.30261 13.8169V21.8761C2.30261 22.4868 2.54521 23.0725 2.97704 23.5043C3.40886 23.9361 3.99455 24.1787 4.60524 24.1787H23.0263C23.637 24.1787 24.2227 23.9361 24.6545 23.5043C25.0863 23.0725 25.3289 22.4868 25.3289 21.8761V10.3629C25.3289 9.75224 25.0863 9.16655 24.6545 8.73473C24.2227 8.3029 23.637 8.0603 23.0263 8.0603H20.7237" stroke="white" stroke-width="2.3" stroke-linecap="round" stroke-linejoin="round" />
    <path d="M6.90802 24.1775V5.75649C6.90802 5.14579 7.15062 4.56011 7.58245 4.12828C8.01427 3.69646 8.59996 3.45386 9.21065 3.45386H18.4212C19.0319 3.45386 19.6176 3.69646 20.0494 4.12828C20.4812 4.56011 20.7238 5.14579 20.7238 5.75649V24.1775" stroke="white" stroke-width="2.3" stroke-linecap="round" stroke-linejoin="round" />
</svg>
