<svg width="28" height="28" viewBox="0 0 28 28" fill="none" xmlns="http://www.w3.org/2000/svg">
    <path className="transition-all duration-700" d="M2.30261 10.9375C2.30264 9.65632 2.69129 8.40528 3.41724 7.34962C4.14319 6.29395 5.17229 5.48333 6.36861 5.02481C7.56493 4.56628 8.8722 4.48144 10.1178 4.78147C11.3633 5.0815 12.4886 5.7523 13.3449 6.70527C13.4052 6.76976 13.4781 6.82117 13.5591 6.85632C13.6401 6.89147 13.7275 6.90961 13.8158 6.90961C13.9041 6.90961 13.9914 6.89147 14.0724 6.85632C14.1534 6.82117 14.2263 6.76976 14.2867 6.70527C15.1403 5.74611 16.2658 5.06967 17.5134 4.76599C18.761 4.46232 20.0714 4.5458 21.2704 5.00533C22.4694 5.46486 23.4999 6.27865 24.2249 7.33838C24.95 8.39811 25.335 9.65351 25.3289 10.9375C25.3289 13.574 23.602 15.5428 21.8750 17.2697L15.5520 23.3867C15.3374 23.6331 15.0729 23.8310 14.7760 23.9673C14.4791 24.1036 14.1566 24.1752 13.8299 24.1772C13.5032 24.1793 13.1798 24.1118 12.8812 23.9793C12.5826 23.8468 12.3156 23.6522 12.0980 23.4086L5.75656 17.2697C4.02959 15.5428 2.30261 13.5855 2.30261 10.9375Z" stroke="white" stroke-width="2.30263" stroke-linecap="round" stroke-linejoin="round"/>
</svg>
