<svg width="27" height="27" viewBox="0 0 27 27" fill="none" xmlns="http://www.w3.org/2000/svg">
    <path d="M19.7133 5.47656C20.2942 5.47656 20.8513 5.70733 21.2621 6.1181C21.6729 6.52887 21.9036 7.086 21.9036 7.66691V17.0044C21.9035 17.3455 21.983 17.6818 22.1358 17.9868L23.3054 20.3162C23.3899 20.4837 23.4299 20.6702 23.4215 20.8576C23.4132 21.045 23.3569 21.2272 23.2579 21.3866C23.159 21.546 23.0208 21.6773 22.8565 21.768C22.6922 21.8586 22.5074 21.9055 22.3198 21.9042H3.96464C3.77703 21.9055 3.59222 21.8586 3.42794 21.768C3.26367 21.6773 3.12543 21.546 3.02649 21.3866C2.92754 21.2272 2.87121 21.045 2.86289 20.8576C2.85458 20.6702 2.89455 20.4837 2.97898 20.3162L4.14863 17.9868C4.30145 17.6818 4.38096 17.3455 4.38081 17.0044V7.66691C4.38081 7.086 4.61158 6.52887 5.02235 6.1181C5.43312 5.70733 5.99024 5.47656 6.57116 5.47656H19.7133Z" stroke="white" stroke-width="2.19035" stroke-linecap="round" stroke-linejoin="round" />
    <path d="M21.9626 17.5098H4.32153" stroke="white" stroke-width="2.19035" stroke-linecap="round" stroke-linejoin="round" />
</svg>
