<svg width="28" height="28" viewBox="0 0 28 28" fill="none" xmlns="http://www.w3.org/2000/svg">
    <path d="M13.2692 2.64176C13.3196 2.53983 13.3976 2.45402 13.4942 2.39403C13.5908 2.33404 13.7023 2.30225 13.816 2.30225C13.9298 2.30225 14.0413 2.33404 14.1379 2.39403C14.2345 2.45402 14.3125 2.53983 14.3629 2.64176L17.0225 8.02877C17.1977 8.38334 17.4563 8.69009 17.7761 8.92271C18.096 9.15533 18.4675 9.30686 18.8588 9.36429L24.8065 10.2347C24.9192 10.251 25.0251 10.2986 25.1122 10.3719C25.1993 10.4453 25.2641 10.5416 25.2993 10.6499C25.3345 10.7582 25.3387 10.8741 25.3111 10.9847C25.2842 11.0953 25.2265 11.196 25.145 11.2755L20.8437 15.464C20.56 15.7404 20.3478 16.0816 20.2252 16.4583C20.1027 16.8349 20.0735 17.2357 20.1402 17.6261L21.1557 23.5439C21.1756 23.6565 21.1634 23.7725 21.1206 23.8786C21.0777 23.9846 21.0059 24.0765 20.9134 24.1437C20.8208 24.211 20.7113 24.2508 20.5971 24.2587C20.483 24.2667 20.369 24.2424 20.268 24.1886L14.9512 21.3932C14.6009 21.2093 14.2112 21.1132 13.8155 21.1132C13.4198 21.1132 13.03 21.2093 12.6797 21.3932L7.36408 24.1886C7.26314 24.2421 7.14924 24.2661 7.03532 24.258C6.9214 24.2499 6.81204 24.21 6.71968 24.1428C6.62732 24.0757 6.55566 23.9839 6.51286 23.878C6.47006 23.7722 6.45783 23.6564 6.47756 23.5439L7.49187 17.6273C7.55887 17.2367 7.52985 16.8356 7.40729 16.4588C7.28474 16.0819 7.07234 15.7405 6.78842 15.464L2.4871 11.2766C2.40489 11.1972 2.34663 11.0963 2.31897 10.9854C2.2913 10.8745 2.29534 10.7581 2.33061 10.6494C2.36589 10.5407 2.43099 10.444 2.51851 10.3705C2.60602 10.297 2.71242 10.2495 2.82559 10.2335L8.77213 9.36429C9.16388 9.3073 9.5359 9.15597 9.8562 8.92333C10.1765 8.69068 10.4354 8.38368 10.6108 8.02877L13.2692 2.64176Z" stroke="white" stroke-width="2.3" stroke-linecap="round" stroke-linejoin="round" />
</svg>
