<svg width="24" height="24" viewBox="0 0 24 24" fill="none" xmlns="http://www.w3.org/2000/svg">
    <path d="M11.8417 21.7105C17.2919 21.7105 21.7101 17.2922 21.7101 11.8421C21.7101 6.39187 17.2919 1.97363 11.8417 1.97363C6.39151 1.97363 1.97327 6.39187 1.97327 11.8421C1.97327 17.2922 6.39151 21.7105 11.8417 21.7105Z" stroke="white" stroke-width="2" stroke-linecap="round" stroke-linejoin="round" />
    <path d="M8.96985 8.88118C9.20186 8.22164 9.6598 7.66549 10.2626 7.31124C10.8653 6.95699 11.574 6.8275 12.2631 6.9457C12.9522 7.06389 13.5772 7.42216 14.0275 7.95703C14.4777 8.4919 14.7242 9.16886 14.7231 9.86802C14.7231 11.8417 11.7626 12.8285 11.7626 12.8285" stroke="white" stroke-width="2" stroke-linecap="round" stroke-linejoin="round" />
    <path d="M11.8417 16.7761H11.8517" stroke="white" stroke-width="2" stroke-linecap="round" stroke-linejoin="round" />
</svg>
