<svg width="28" height="28" viewBox="0 0 28 28" fill="none" xmlns="http://www.w3.org/2000/svg">
    <path d="M18.4214 24.1777V21.875C18.4214 20.6536 17.9362 19.4823 17.0725 18.6186C16.2089 17.755 15.0375 17.2698 13.8161 17.2698H6.90824C5.68685 17.2698 4.51548 17.755 3.65183 18.6186C2.78817 19.4823 2.30298 20.6536 2.30298 21.875V24.1777" stroke="white" stroke-width="2.30263" stroke-linecap="round" stroke-linejoin="round"/>
    <path d="M18.422 3.60144C19.4095 3.85746 20.2841 4.43415 20.9085 5.24099C21.5328 6.04783 21.8716 7.03914 21.8716 8.05934C21.8716 9.07953 21.5328 10.0708 20.9085 10.8777C20.2841 11.6845 19.4095 12.2612 18.422 12.5172" stroke="white" stroke-width="2.30263" stroke-linecap="round" stroke-linejoin="round"/>
    <path d="M25.3294 24.1777V21.875C25.3287 20.8546 24.9891 19.8634 24.3639 19.057C23.7387 18.2505 22.8635 17.6745 21.8755 17.4194" stroke="white" stroke-width="2.30263" stroke-linecap="round" stroke-linejoin="round"/>
    <path d="M10.3617 12.6644C12.9051 12.6644 14.967 10.6025 14.967 8.05912C14.967 5.5157 12.9051 3.45386 10.3617 3.45386C7.81832 3.45386 5.75647 5.5157 5.75647 8.05912C5.75647 10.6025 7.81832 12.6644 10.3617 12.6644Z" stroke="white" stroke-width="2.30263" stroke-linecap="round" stroke-linejoin="round"/>
</svg>
