<svg width="21" height="21" viewBox="0 0 21 21" fill="none" xmlns="http://www.w3.org/2000/svg">
  <path d="M1.74414 8.28326C1.74416 7.3128 2.03855 6.36516 2.58844 5.56552C3.13833 4.76588 3.91785 4.15185 4.82404 3.80453C5.73022 3.45721 6.72045 3.39294 7.66393 3.62021C8.60741 3.84748 9.45975 4.35559 10.1084 5.07744C10.1541 5.12629 10.2093 5.16524 10.2707 5.19186C10.332 5.21849 10.3982 5.23223 10.4651 5.23223C10.532 5.23223 10.5981 5.21849 10.6595 5.19186C10.7209 5.16524 10.7761 5.12629 10.8218 5.07744C11.4684 4.3509 12.3209 3.83852 13.2659 3.60849C14.2109 3.37846 15.2036 3.4417 16.1118 3.78978C17.02 4.13787 17.8006 4.75429 18.3498 5.55701C18.899 6.35973 19.1907 7.31067 19.186 8.28326C19.186 10.2804 17.8779 11.7716 16.5697 13.0798L11.7802 17.7132C11.6177 17.8999 11.4173 18.0498 11.1925 18.153C10.9676 18.2563 10.7233 18.3105 10.4758 18.312C10.2283 18.3136 9.98338 18.2625 9.75719 18.1621C9.53101 18.0617 9.32877 17.9143 9.16392 17.7298L4.36042 13.0798C3.05228 11.7716 1.74414 10.2891 1.74414 8.28326Z" stroke="#223F7F" stroke-width="1.74419" stroke-linecap="round" stroke-linejoin="round"/>
</svg>
