<svg width="32" height="32" viewBox="0 0 32 32" fill="none" xmlns="http://www.w3.org/2000/svg">
    <path d="M20.3466 16.9453L22.3383 28.1541C22.3606 28.2861 22.3421 28.4218 22.2852 28.543C22.2284 28.6641 22.1359 28.7651 22.0201 28.8322C21.9043 28.8994 21.7708 28.9297 21.6373 28.9189C21.5039 28.9081 21.377 28.8569 21.2734 28.772L16.5669 25.2395C16.3397 25.0698 16.0637 24.9781 15.7801 24.9781C15.4965 24.9781 15.2205 25.0698 14.9933 25.2395L10.2789 28.7707C10.1755 28.8554 10.0486 28.9066 9.91538 28.9174C9.78212 28.9281 9.64874 28.898 9.53304 28.831C9.41733 28.764 9.32481 28.6633 9.26781 28.5424C9.21081 28.4215 9.19204 28.286 9.21402 28.1541L11.2044 16.9453" stroke="#223F7F" stroke-width="2.6" stroke-linecap="round" stroke-linejoin="round"/>
    <path d="M15.7762 18.4049C20.1326 18.4049 23.6642 14.8733 23.6642 10.5169C23.6642 6.16048 20.1326 2.62891 15.7762 2.62891C11.4198 2.62891 7.88818 6.16048 7.88818 10.5169C7.88818 14.8733 11.4198 18.4049 15.7762 18.4049Z" stroke="#223F7F" stroke-width="2.6" stroke-linecap="round" stroke-linejoin="round"/>
</svg>
