<svg width="23" height="23" viewBox="0 0 23 23" fill="none" xmlns="http://www.w3.org/2000/svg">
    <path d="M1.93563 11.5925C1.85739 11.3817 1.85739 11.1499 1.93563 10.9391C2.69759 9.09157 3.99097 7.51188 5.65181 6.4003C7.31265 5.28872 9.26615 4.69531 11.2647 4.69531C13.2631 4.69531 15.2166 5.28872 16.8775 6.4003C18.5383 7.51188 19.8317 9.09157 20.5937 10.9391C20.6719 11.1499 20.6719 11.3817 20.5937 11.5925C19.8317 13.44 18.5383 15.0197 16.8775 16.1313C15.2166 17.2429 13.2631 17.8363 11.2647 17.8363C9.26615 17.8363 7.31265 17.2429 5.65181 16.1313C3.99097 15.0197 2.69759 13.44 1.93563 11.5925Z" stroke="#223F7F" stroke-width="1.40808" stroke-linecap="round" stroke-linejoin="round" />
    <path d="M11.2644 14.0855C12.8197 14.0855 14.0806 12.8246 14.0806 11.2693C14.0806 9.71397 12.8197 8.45312 11.2644 8.45312C9.70908 8.45312 8.44824 9.71397 8.44824 11.2693C8.44824 12.8246 9.70908 14.0855 11.2644 14.0855Z" stroke="#223F7F" stroke-width="1.40808" stroke-linecap="round" stroke-linejoin="round" />
</svg>
