<svg width="28" height="28" viewBox="0 0 28 28" fill="none" xmlns="http://www.w3.org/2000/svg">
    <path d="M17.818 14.8405L19.5622 24.6566C19.5817 24.7722 19.5655 24.891 19.5157 24.9971C19.4659 25.1032 19.3849 25.1916 19.2835 25.2504C19.1821 25.3092 19.0652 25.3357 18.9483 25.3263C18.8315 25.3169 18.7203 25.272 18.6296 25.1977L14.5079 22.1041C14.309 21.9555 14.0672 21.8751 13.8189 21.8751C13.5705 21.8751 13.3288 21.9555 13.1298 22.1041L9.00118 25.1965C8.9106 25.2707 8.79954 25.3155 8.68284 25.325C8.56613 25.3344 8.44933 25.308 8.348 25.2493C8.24667 25.1907 8.16565 25.1025 8.11573 24.9966C8.06581 24.8907 8.04938 24.7721 8.06862 24.6566L9.81171 14.8405" stroke="white" stroke-width="2.30263" stroke-linecap="round" stroke-linejoin="round"/>
    <path d="M13.8148 16.1184C17.6299 16.1184 20.7227 13.0256 20.7227 9.21051C20.7227 5.39538 17.6299 2.30261 13.8148 2.30261C9.99963 2.30261 6.90686 5.39538 6.90686 9.21051C6.90686 13.0256 9.99963 16.1184 13.8148 16.1184Z" stroke="white" stroke-width="2.30263" stroke-linecap="round" stroke-linejoin="round"/>
</svg>
