<svg width="27" height="27" viewBox="0 0 27 27" fill="none" xmlns="http://www.w3.org/2000/svg">
  <path d="M16.9501 14.1172L18.6093 23.4547C18.6279 23.5646 18.6124 23.6776 18.5651 23.7786C18.5177 23.8795 18.4406 23.9636 18.3442 24.0195C18.2477 24.0755 18.1365 24.1007 18.0253 24.0917C17.9142 24.0828 17.8084 24.0401 17.7222 23.9694L13.8015 21.0267C13.6122 20.8852 13.3823 20.8088 13.146 20.8088C12.9097 20.8088 12.6798 20.8852 12.4905 21.0267L8.56324 23.9683C8.47707 24.0389 8.37143 24.0815 8.26042 24.0905C8.1494 24.0994 8.03829 24.0743 7.94191 24.0185C7.84552 23.9627 7.76844 23.8788 7.72096 23.7781C7.67348 23.6774 7.65784 23.5645 7.67615 23.4547L9.33424 14.1172" stroke="white" stroke-width="2.19035" stroke-linecap="round" stroke-linejoin="round" />
  <path d="M13.1421 15.3335C16.7712 15.3335 19.7132 12.3916 19.7132 8.76246C19.7132 5.13337 16.7712 2.19141 13.1421 2.19141C9.51301 2.19141 6.57104 5.13337 6.57104 8.76246C6.57104 12.3916 9.51301 15.3335 13.1421 15.3335Z" stroke="white" stroke-width="2.19035" stroke-linecap="round" stroke-linejoin="round" />
</svg>
