<svg width="27" height="27" viewBox="0 0 27 27" fill="none" xmlns="http://www.w3.org/2000/svg">
  <path d="M17.5229 22.9988V20.8084C17.5229 19.6466 17.0614 18.5324 16.2398 17.7108C15.4183 16.8893 14.304 16.4277 13.1422 16.4277H6.57113C5.4093 16.4277 4.29505 16.8893 3.47351 17.7108C2.65197 18.5324 2.19043 19.6466 2.19043 20.8084V22.9988" stroke="white" stroke-width="2.19035" stroke-linecap="round" stroke-linejoin="round" />
  <path d="M17.5225 3.42578C18.4619 3.66932 19.2938 4.21788 19.8877 4.98538C20.4816 5.75288 20.8038 6.69586 20.8038 7.6663C20.8038 8.63675 20.4816 9.57973 19.8877 10.3472C19.2938 11.1147 18.4619 11.6633 17.5225 11.9068" stroke="white" stroke-width="2.19035" stroke-linecap="round" stroke-linejoin="round" />
  <path d="M24.0936 22.999V20.8086C24.0929 19.838 23.7699 18.8951 23.1752 18.128C22.5805 17.3609 21.7479 16.813 20.8081 16.5703" stroke="white" stroke-width="2.19035" stroke-linecap="round" stroke-linejoin="round" />
  <path d="M9.85653 12.0466C12.2759 12.0466 14.2372 10.0853 14.2372 7.66586C14.2372 5.24646 12.2759 3.28516 9.85653 3.28516C7.43714 3.28516 5.47583 5.24646 5.47583 7.66586C5.47583 10.0853 7.43714 12.0466 9.85653 12.0466Z" stroke="white" stroke-width="2.19035" stroke-linecap="round" stroke-linejoin="round" />
</svg>
