<svg width="24" height="24" viewBox="0 0 24 24" fill="none" xmlns="http://www.w3.org/2000/svg">
    <path d="M11.999 22.0039C17.5219 22.0039 21.999 17.5268 21.999 12.0039C21.999 6.48106 17.5219 2.00391 11.999 2.00391C6.47618 2.00391 1.99902 6.48106 1.99902 12.0039C1.99902 17.5268 6.47618 22.0039 11.999 22.0039Z" stroke="#223F7F" stroke-width="2" stroke-linecap="round" stroke-linejoin="round"/>
    <path d="M11.9995 18C15.3132 18 17.9995 15.3137 17.9995 12C17.9995 8.68629 15.3132 6 11.9995 6C8.6858 6 5.99951 8.68629 5.99951 12C5.99951 15.3137 8.6858 18 11.9995 18Z" stroke="#223F7F" stroke-width="2" stroke-linecap="round" stroke-linejoin="round"/>
    <path d="M12.0005 14.0039C13.1051 14.0039 14.0005 13.1085 14.0005 12.0039C14.0005 10.8993 13.1051 10.0039 12.0005 10.0039C10.8959 10.0039 10.0005 10.8993 10.0005 12.0039C10.0005 13.1085 10.8959 14.0039 12.0005 14.0039Z" stroke="#223F7F" stroke-width="2" stroke-linecap="round" stroke-linejoin="round"/>
</svg>
