<svg width="32" height="32" viewBox="0 0 32 32" fill="none" xmlns="http://www.w3.org/2000/svg">
    <path d="M15.152 3.01659C15.2096 2.90019 15.2986 2.80221 15.4089 2.73371C15.5193 2.66521 15.6466 2.62891 15.7765 2.62891C15.9063 2.62891 16.0336 2.66521 16.144 2.73371C16.2543 2.80221 16.3433 2.90019 16.4009 3.01659L19.4378 9.16791C19.6379 9.57278 19.9332 9.92306 20.2984 10.1887C20.6636 10.4543 21.0879 10.6273 21.5347 10.6929L28.3262 11.6868C28.4549 11.7055 28.5758 11.7597 28.6753 11.8435C28.7747 11.9273 28.8487 12.0372 28.8889 12.1609C28.9292 12.2845 28.934 12.417 28.9028 12.5432C28.8717 12.6695 28.8059 12.7845 28.7128 12.8753L23.8012 17.658C23.4773 17.9737 23.2349 18.3633 23.095 18.7934C22.955 19.2235 22.9217 19.6811 22.9979 20.127L24.1574 26.8843C24.1802 27.013 24.1663 27.1454 24.1173 27.2665C24.0684 27.3876 23.9864 27.4925 23.8808 27.5693C23.7751 27.646 23.65 27.6915 23.5197 27.7006C23.3894 27.7097 23.2591 27.6819 23.1438 27.6205L17.0727 24.4285C16.6727 24.2185 16.2276 24.1087 15.7758 24.1087C15.324 24.1087 14.8789 24.2185 14.4789 24.4285L8.40907 27.6205C8.29382 27.6816 8.16375 27.709 8.03367 27.6998C7.90359 27.6905 7.77872 27.6449 7.67325 27.5682C7.56778 27.4915 7.48596 27.3868 7.43708 27.2659C7.38821 27.145 7.37425 27.0128 7.39678 26.8843L8.555 20.1283C8.63151 19.6822 8.59836 19.2243 8.45842 18.7939C8.31848 18.3636 8.07595 17.9737 7.75174 17.658L2.84015 12.8766C2.74628 12.7859 2.67976 12.6707 2.64816 12.5441C2.61657 12.4174 2.62118 12.2845 2.66146 12.1603C2.70175 12.0362 2.77609 11.9259 2.87601 11.8419C2.97594 11.758 3.09744 11.7038 3.22667 11.6855L10.0169 10.6929C10.4642 10.6278 10.889 10.455 11.2548 10.1894C11.6205 9.92373 11.9162 9.57318 12.1164 9.16791L15.152 3.01659Z" stroke="#223F7F" stroke-width="2.6" stroke-linecap="round" stroke-linejoin="round"/>
</svg>
