<svg width="28" height="28" viewBox="0 0 28 28" fill="none" xmlns="http://www.w3.org/2000/svg">
  <path d="M18.4202 24.1774V21.8748C18.4202 20.6534 17.935 19.482 17.0713 18.6184C16.2077 17.7547 15.0363 17.2695 13.8149 17.2695H6.90702C5.68563 17.2695 4.51426 17.7547 3.65061 18.6184C2.78695 19.482 2.30176 20.6534 2.30176 21.8748V24.1774" stroke="#223F7F" stroke-width="2.30263" stroke-linecap="round" stroke-linejoin="round"/>
  <path d="M18.4209 3.59961C19.4084 3.85563 20.283 4.43231 20.9074 5.23916C21.5317 6.046 21.8705 7.03731 21.8705 8.0575C21.8705 9.0777 21.5317 10.069 20.9074 10.8759C20.283 11.6827 19.4084 12.2594 18.4209 12.5154" stroke="#223F7F" stroke-width="2.30263" stroke-linecap="round" stroke-linejoin="round"/>
  <path d="M25.3289 24.1781V21.8755C25.3282 20.8551 24.9886 19.8639 24.3634 19.0575C23.7383 18.251 22.863 17.675 21.875 17.4199" stroke="#223F7F" stroke-width="2.30263" stroke-linecap="round" stroke-linejoin="round"/>
  <path d="M10.3621 12.6637C12.9055 12.6637 14.9674 10.6018 14.9674 8.05839C14.9674 5.51497 12.9055 3.45312 10.3621 3.45312C7.81868 3.45312 5.75684 5.51497 5.75684 8.05839C5.75684 10.6018 7.81868 12.6637 10.3621 12.6637Z" stroke="#223F7F" stroke-width="2.30263" stroke-linecap="round" stroke-linejoin="round"/>
</svg>
