<svg width="50" height="50" viewBox="0 0 50 50" fill="none" xmlns="http://www.w3.org/2000/svg">
    <path d="M41.6665 12.502H8.33317C6.03198 12.502 4.1665 14.3674 4.1665 16.6686V33.3353C4.1665 35.6365 6.03198 37.502 8.33317 37.502H41.6665C43.9677 37.502 45.8332 35.6365 45.8332 33.3353V16.6686C45.8332 14.3674 43.9677 12.502 41.6665 12.502Z" stroke="#191919" stroke-width="4.16667" stroke-linecap="round" stroke-linejoin="round" />
    <path d="M24.9997 29.1693C27.3009 29.1693 29.1663 27.3038 29.1663 25.0026C29.1663 22.7014 27.3009 20.8359 24.9997 20.8359C22.6985 20.8359 20.833 22.7014 20.833 25.0026C20.833 27.3038 22.6985 29.1693 24.9997 29.1693Z" stroke="#191919" stroke-width="4.16667" stroke-linecap="round" stroke-linejoin="round" />
    <path d="M12.4998 25H12.5206M37.4998 25H37.5206" stroke="#191919" stroke-width="4.16667" stroke-linecap="round" stroke-linejoin="round" />
</svg>
