<svg width="27" height="27" viewBox="0 0 27 27" fill="none" xmlns="http://www.w3.org/2000/svg">
    <path d="M6.57104 19.7129H15.3325" stroke="white" stroke-width="2.19035" stroke-linecap="round" stroke-linejoin="round" />
    <path d="M3.2854 24.0918H22.9986" stroke="white" stroke-width="2.19035" stroke-linecap="round" stroke-linejoin="round" />
    <path d="M15.3322 24.0942C17.3654 24.0942 19.3154 23.2865 20.7531 21.8488C22.1908 20.4111 22.9985 18.4612 22.9985 16.428C22.9985 14.3947 22.1908 12.4448 20.7531 11.0071C19.3154 9.56941 17.3654 8.76172 15.3322 8.76172H14.2371" stroke="white" stroke-width="2.19035" stroke-linecap="round" stroke-linejoin="round" />
    <path d="M9.85645 15.332H12.0468" stroke="white" stroke-width="2.19035" stroke-linecap="round" stroke-linejoin="round" />
    <path d="M9.85637 13.1414C9.27545 13.1414 8.71833 12.9106 8.30755 12.4998C7.89678 12.0891 7.66602 11.5319 7.66602 10.951V6.57031H14.2371V10.951C14.2371 11.5319 14.0063 12.0891 13.5955 12.4998C13.1848 12.9106 12.6276 13.1414 12.0467 13.1414H9.85637Z" stroke="white" stroke-width="2.19035" stroke-linecap="round" stroke-linejoin="round" />
    <path d="M13.1422 6.57016V3.28463C13.1422 2.99417 13.0268 2.71561 12.8214 2.51022C12.616 2.30484 12.3375 2.18945 12.047 2.18945H9.85665C9.56619 2.18945 9.28763 2.30484 9.08224 2.51022C8.87686 2.71561 8.76147 2.99417 8.76147 3.28463V6.57016" stroke="white" stroke-width="2.19035" stroke-linecap="round" stroke-linejoin="round" />
</svg>
