<svg width="26" height="26" viewBox="0 0 42 42" fill="none" xmlns="http://www.w3.org/2000/svg">
    <path d="M26.8699 22.377L29.5001 37.179C29.5296 37.3533 29.5051 37.5325 29.43 37.6925C29.3549 37.8525 29.2328 37.9858 29.0799 38.0745C28.927 38.1632 28.7506 38.2032 28.5745 38.1889C28.3983 38.1747 28.2306 38.1071 28.0939 37.995L21.8786 33.3301C21.5786 33.1059 21.2141 32.9848 20.8395 32.9848C20.465 32.9848 20.1005 33.1059 19.8005 33.3301L13.5748 37.9933C13.4382 38.1051 13.2707 38.1727 13.0947 38.1869C12.9188 38.2011 12.7426 38.1614 12.5898 38.0729C12.437 37.9844 12.3149 37.8515 12.2396 37.6918C12.1643 37.5321 12.1395 37.3532 12.1685 37.179L14.797 22.377" stroke="white" stroke-width="3.47222" stroke-linecap="round" stroke-linejoin="round" />
    <path d="M20.8332 24.3079C26.5861 24.3079 31.2498 19.6442 31.2498 13.8913C31.2498 8.13831 26.5861 3.47461 20.8332 3.47461C15.0802 3.47461 10.4165 8.13831 10.4165 13.8913C10.4165 19.6442 15.0802 24.3079 20.8332 24.3079Z" stroke="white" stroke-width="3.47222" stroke-linecap="round" stroke-linejoin="round" />
</svg>
