<svg width="23" height="23" viewBox="0 0 23 23" fill="none" xmlns="http://www.w3.org/2000/svg">
    <path d="M20.6519 15.9585C20.6519 16.4564 20.4541 16.934 20.102 17.2861C19.7499 17.6382 19.2724 17.836 18.7744 17.836H6.40959C5.9117 17.8361 5.43425 18.0339 5.08224 18.3861L3.01517 20.4531C2.92196 20.5463 2.80321 20.6098 2.67394 20.6355C2.54466 20.6612 2.41067 20.648 2.28889 20.5976C2.16711 20.5471 2.06303 20.4617 1.98979 20.3521C1.91656 20.2425 1.87746 20.1137 1.87744 19.9819V4.69385C1.87744 4.19592 2.07524 3.71839 2.42733 3.3663C2.77942 3.01421 3.25696 2.81641 3.75489 2.81641H18.7744C19.2724 2.81641 19.7499 3.01421 20.102 3.3663C20.4541 3.71839 20.6519 4.19592 20.6519 4.69385V15.9585Z" stroke="white" stroke-width="1.87744" stroke-linecap="round" stroke-linejoin="round" />
</svg>
