<svg width="35" height="35" viewBox="0 0 35 35" fill="none" xmlns="http://www.w3.org/2000/svg">
    <path d="M14.5347 17.4414H20.3486" stroke="#223F7F" stroke-width="2" stroke-linecap="round" stroke-linejoin="round" />
    <path d="M14.5347 11.6289H20.3486" stroke="#223F7F" stroke-width="2" stroke-linecap="round" stroke-linejoin="round" />
    <path d="M20.3486 30.5213V26.1609C20.3486 25.3899 20.0424 24.6505 19.4972 24.1053C18.952 23.5602 18.2126 23.2539 17.4416 23.2539C16.6707 23.2539 15.9313 23.5602 15.3861 24.1053C14.8409 24.6505 14.5347 25.3899 14.5347 26.1609V30.5213" stroke="#223F7F" stroke-width="2" stroke-linecap="round" stroke-linejoin="round" />
    <path d="M8.72118 14.5323H5.8142C5.04323 14.5323 4.30382 14.8386 3.75866 15.3838C3.2135 15.9289 2.90723 16.6683 2.90723 17.4393V27.6137C2.90723 28.3847 3.2135 29.1241 3.75866 29.6693C4.30382 30.2144 5.04323 30.5207 5.8142 30.5207H29.07C29.841 30.5207 30.5804 30.2144 31.1256 29.6693C31.6707 29.1241 31.977 28.3847 31.977 27.6137V13.0789C31.977 12.3079 31.6707 11.5685 31.1256 11.0233C30.5804 10.4781 29.841 10.1719 29.07 10.1719H26.163" stroke="#223F7F" stroke-width="2" stroke-linecap="round" stroke-linejoin="round" />
    <path d="M8.7207 30.5222V7.26635C8.7207 6.49537 9.02697 5.75597 9.57214 5.21081C10.1173 4.66564 10.8567 4.35938 11.6277 4.35938H23.2556C24.0266 4.35938 24.766 4.66564 25.3111 5.21081C25.8563 5.75597 26.1626 6.49537 26.1626 7.26635V30.5222" stroke="#223F7F" stroke-width="2" stroke-linecap="round" stroke-linejoin="round" />
</svg>
