<svg width="35" height="35" viewBox="0 0 35 35" fill="none" xmlns="http://www.w3.org/2000/svg">
    <path d="M31.1337 15.8737C31.3939 15.7589 31.6147 15.5703 31.7688 15.3313C31.9229 15.0922 32.0034 14.8132 32.0005 14.5288C31.9975 14.2445 31.9112 13.9672 31.7523 13.7314C31.5933 13.4956 31.3686 13.3116 31.1061 13.2022L18.6483 7.52777C18.2695 7.35502 17.8581 7.26562 17.4419 7.26562C17.0256 7.26562 16.6142 7.35502 16.2355 7.52777L3.77907 13.1964C3.5203 13.3097 3.30017 13.496 3.14559 13.7324C2.99101 13.9689 2.90869 14.2453 2.90869 14.5278C2.90869 14.8103 2.99101 15.0866 3.14559 15.3231C3.30017 15.5596 3.5203 15.7458 3.77907 15.8592L16.2355 21.5394C16.6142 21.7121 17.0256 21.8015 17.4419 21.8015C17.8581 21.8015 18.2695 21.7121 18.6483 21.5394L31.1337 15.8737Z" stroke="#223F7F" stroke-width="2" stroke-linecap="round" stroke-linejoin="round" />
    <path d="M31.9766 14.5352V23.2561" stroke="#223F7F" stroke-width="2" stroke-linecap="round" stroke-linejoin="round" />
    <path d="M8.7207 18.1719V23.2591C8.7207 24.4156 9.63951 25.5247 11.275 26.3424C12.9105 27.1601 15.1287 27.6195 17.4416 27.6195C19.7546 27.6195 21.9728 27.1601 23.6083 26.3424C25.2438 25.5247 26.1626 24.4156 26.1626 23.2591V18.1719" stroke="#223F7F" stroke-width="2" stroke-linecap="round" stroke-linejoin="round" />
</svg>
