<svg width="23" height="23" viewBox="0 0 23 23" fill="none" xmlns="http://www.w3.org/2000/svg">
    <path d="M20.6514 11.2622H18.3234C17.9131 11.2613 17.5139 11.3949 17.1867 11.6424C16.8595 11.8899 16.6224 12.2377 16.5116 12.6328L14.3056 20.4805C14.2914 20.5292 14.2618 20.572 14.2212 20.6025C14.1805 20.633 14.1311 20.6494 14.0803 20.6494C14.0296 20.6494 13.9802 20.633 13.9395 20.6025C13.8989 20.572 13.8693 20.5292 13.8551 20.4805L8.6733 2.04397C8.65908 1.99522 8.62944 1.9524 8.58882 1.92194C8.54819 1.89147 8.49879 1.875 8.44801 1.875C8.39723 1.875 8.34782 1.89147 8.3072 1.92194C8.26658 1.9524 8.23693 1.99522 8.22272 2.04397L6.01672 9.89169C5.90639 10.2852 5.67069 10.6319 5.3454 10.8792C5.02012 11.1266 4.62302 11.2611 4.21437 11.2622H1.87695" stroke="#223F7F" stroke-width="1.40808" stroke-linecap="round" stroke-linejoin="round" />
</svg>
