<svg width="28" height="28" viewBox="0 0 28 28" fill="none" xmlns="http://www.w3.org/2000/svg">
    <path d="M13.815 8.0592V12.6645" stroke="white" stroke-width="2.3" stroke-linecap="round" stroke-linejoin="round"/>
    <path d="M16.1186 24.1777V20.7238C16.1186 20.1131 15.876 19.5274 15.4441 19.0956C15.0123 18.6637 14.4266 18.4211 13.8159 18.4211C13.2052 18.4211 12.6196 18.6637 12.1877 19.0956C11.7559 19.5274 11.5133 20.1131 11.5133 20.7238V24.1777" stroke="white" stroke-width="2.3" stroke-linecap="round" stroke-linejoin="round"/>
    <path d="M16.1186 10.3619H11.5133" stroke="white" stroke-width="2.3" stroke-linecap="round" stroke-linejoin="round"/>
    <path d="M20.7225 12.6643H23.0251C23.6358 12.6643 24.2215 12.9069 24.6533 13.3387C25.0852 13.7705 25.3278 14.3562 25.3278 14.9669V21.8748C25.3278 22.4855 25.0852 23.0712 24.6533 23.503C24.2215 23.9348 23.6358 24.1774 23.0251 24.1774H4.60408C3.99339 24.1774 3.4077 23.9348 2.97588 23.503C2.54405 23.0712 2.30145 22.4855 2.30145 21.8748V11.513C2.30145 10.9023 2.54405 10.3166 2.97588 9.88475C3.4077 9.45293 3.99339 9.21033 4.60408 9.21033H6.90672" stroke="white" stroke-width="2.3" stroke-linecap="round" stroke-linejoin="round"/>
    <path d="M20.7227 24.1775V5.75649C20.7227 5.14579 20.4801 4.56011 20.0482 4.12828C19.6164 3.69646 19.0307 3.45386 18.42 3.45386H9.20949C8.5988 3.45386 8.01311 3.69646 7.58129 4.12828C7.14946 4.56011 6.90686 5.14579 6.90686 5.75649V24.1775" stroke="white" stroke-width="2.3" stroke-linecap="round" stroke-linejoin="round"/>
</svg>
