<svg width="24" height="24" viewBox="0 0 24 24" fill="none" xmlns="http://www.w3.org/2000/svg">
    <path d="M15.4768 12.8828L16.9918 21.4088C17.0087 21.5092 16.9946 21.6124 16.9514 21.7046C16.9081 21.7967 16.8377 21.8735 16.7497 21.9246C16.6616 21.9757 16.56 21.9987 16.4586 21.9905C16.3571 21.9823 16.2605 21.9434 16.1818 21.8788L12.6018 19.1918C12.4289 19.0627 12.219 18.9929 12.0033 18.9929C11.7875 18.9929 11.5776 19.0627 11.4048 19.1918L7.81875 21.8778C7.74007 21.9422 7.64361 21.9812 7.54225 21.9894C7.44088 21.9975 7.33942 21.9746 7.25141 21.9237C7.16341 21.8727 7.09303 21.7961 7.04967 21.7041C7.00631 21.6122 6.99204 21.5091 7.00875 21.4088L8.52275 12.8828" stroke="#223F7F" stroke-width="1.5" stroke-linecap="round" stroke-linejoin="round" />
    <path d="M12.001 14C15.3147 14 18.001 11.3137 18.001 8C18.001 4.68629 15.3147 2 12.001 2C8.68727 2 6.00098 4.68629 6.00098 8C6.00098 11.3137 8.68727 14 12.001 14Z" stroke="#223F7F" stroke-width="1.5" stroke-linecap="round" stroke-linejoin="round" />
</svg>
