<svg width="24" height="24" viewBox="0 0 24 24" fill="none" xmlns="http://www.w3.org/2000/svg">
    <path d="M15.2734 12.7196L16.7684 21.1334C16.7852 21.2325 16.7713 21.3343 16.7286 21.4253C16.6859 21.5162 16.6165 21.592 16.5296 21.6424C16.4427 21.6929 16.3424 21.7156 16.2423 21.7075C16.1421 21.6994 16.0468 21.6609 15.9691 21.5972L12.4362 18.9456C12.2657 18.8182 12.0585 18.7493 11.8456 18.7493C11.6327 18.7493 11.4255 18.8182 11.255 18.9456L7.71615 21.5962C7.6385 21.6598 7.54331 21.6982 7.44328 21.7063C7.34325 21.7144 7.24313 21.6918 7.15627 21.6415C7.06942 21.5912 6.99997 21.5157 6.95718 21.4249C6.9144 21.3341 6.90031 21.2324 6.9168 21.1334L8.41088 12.7196" stroke="white" stroke-width="2" stroke-linecap="round" stroke-linejoin="round" />
    <path d="M11.8424 13.8154C15.1125 13.8154 17.7634 11.1644 17.7634 7.89432C17.7634 4.62421 15.1125 1.97327 11.8424 1.97327C8.57227 1.97327 5.92133 4.62421 5.92133 7.89432C5.92133 11.1644 8.57227 13.8154 11.8424 13.8154Z" stroke="white" stroke-width="2" stroke-linecap="round" stroke-linejoin="round" />
</svg>
