<svg width="24" height="24" viewBox="0 0 24 24" fill="none" xmlns="http://www.w3.org/2000/svg">
    <path d="M13.833 16.568C14.0395 16.6628 14.2722 16.6845 14.4927 16.6294C14.7132 16.5744 14.9083 16.4458 15.046 16.265L15.401 15.8C15.5873 15.5516 15.8288 15.35 16.1066 15.2111C16.3843 15.0723 16.6905 15 17.001 15H20.001C20.5314 15 21.0401 15.2107 21.4152 15.5858C21.7903 15.9609 22.001 16.4696 22.001 17V20C22.001 20.5304 21.7903 21.0391 21.4152 21.4142C21.0401 21.7893 20.5314 22 20.001 22C15.2271 22 10.6487 20.1036 7.27305 16.7279C3.8974 13.3523 2.00098 8.7739 2.00098 4C2.00098 3.46957 2.21169 2.96086 2.58676 2.58579C2.96184 2.21071 3.47054 2 4.00098 2H7.00098C7.53141 2 8.04012 2.21071 8.41519 2.58579C8.79026 2.96086 9.00098 3.46957 9.00098 4V7C9.00098 7.31049 8.92869 7.61672 8.78983 7.89443C8.65098 8.17214 8.44937 8.41371 8.20098 8.6L7.73298 8.951C7.54939 9.09118 7.42 9.29059 7.36677 9.51535C7.31354 9.74012 7.33976 9.97638 7.44098 10.184C8.80766 12.9599 11.0554 15.2048 13.833 16.568Z" stroke="#223F7F" stroke-width="1.5" stroke-linecap="round" stroke-linejoin="round" />
</svg>
