<svg width="27" height="27" viewBox="0 0 27 27" fill="none" xmlns="http://www.w3.org/2000/svg">
  <path d="M23.4582 11.9606C23.6542 11.8741 23.8206 11.732 23.9367 11.5519C24.0528 11.3718 24.1135 11.1616 24.1113 10.9473C24.1091 10.733 24.044 10.5241 23.9242 10.3464C23.8045 10.1688 23.6352 10.0301 23.4374 9.9477L14.0506 5.67213C13.7653 5.54197 13.4553 5.47461 13.1416 5.47461C12.828 5.47461 12.518 5.54197 12.2326 5.67213L2.84698 9.94332C2.652 10.0287 2.48613 10.1691 2.36966 10.3472C2.25319 10.5254 2.19116 10.7336 2.19116 10.9465C2.19116 11.1594 2.25319 11.3676 2.36966 11.5458C2.48613 11.7239 2.652 11.8643 2.84698 11.9497L12.2326 16.2296C12.518 16.3598 12.828 16.4272 13.1416 16.4272C13.4553 16.4272 13.7653 16.3598 14.0506 16.2296L23.4582 11.9606Z" stroke="white" stroke-width="2.19035" stroke-linecap="round" stroke-linejoin="round" />
  <path d="M24.0935 10.9512V17.5222" stroke="white" stroke-width="2.19035" stroke-linecap="round" stroke-linejoin="round" />
  <path d="M6.5708 13.6895V17.5226C6.5708 18.3939 7.26311 19.2296 8.49542 19.8458C9.72773 20.4619 11.3991 20.8081 13.1419 20.8081C14.8846 20.8081 16.556 20.4619 17.7883 19.8458C19.0206 19.2296 19.7129 18.3939 19.7129 17.5226V13.6895" stroke="white" stroke-width="2.19035" stroke-linecap="round" stroke-linejoin="round" />
</svg>
