<svg width="32" height="32" viewBox="0 0 32 32" fill="none" xmlns="http://www.w3.org/2000/svg">
    <path d="M20.3638 16.9609L22.3572 28.1794C22.3796 28.3115 22.361 28.4472 22.3041 28.5685C22.2472 28.6898 22.1546 28.7908 22.0387 28.858C21.9228 28.9253 21.7892 28.9555 21.6557 28.9448C21.5221 28.934 21.3951 28.8827 21.2914 28.7978L16.5809 25.2623C16.3535 25.0924 16.0773 25.0006 15.7934 25.0006C15.5096 25.0006 15.2333 25.0924 15.0059 25.2623L10.2875 28.7965C10.184 28.8812 10.0571 28.9324 9.92368 28.9432C9.7903 28.954 9.65681 28.9239 9.54101 28.8568C9.42521 28.7898 9.3326 28.689 9.27555 28.568C9.21851 28.4469 9.19972 28.3114 9.22171 28.1794L11.2138 16.9609" stroke="#223F7F" stroke-width="2.5" stroke-linecap="round" stroke-linejoin="round" />
    <path d="M15.7894 18.4213C20.1495 18.4213 23.6841 14.8867 23.6841 10.5266C23.6841 6.16643 20.1495 2.63184 15.7894 2.63184C11.4292 2.63184 7.89465 6.16643 7.89465 10.5266C7.89465 14.8867 11.4292 18.4213 15.7894 18.4213Z" stroke="#223F7F" stroke-width="2.5" stroke-linecap="round" stroke-linejoin="round" />
</svg>
