<svg width="23" height="23" viewBox="0 0 23 23" fill="none" xmlns="http://www.w3.org/2000/svg">
    <g clip-path="url(#clip0_27_1157)">
        <path d="M12.9844 15.5523C13.1783 15.6413 13.3967 15.6616 13.6037 15.6099C13.8107 15.5582 13.9938 15.4376 14.1231 15.2678L14.4563 14.8313C14.6312 14.5981 14.858 14.4089 15.1187 14.2786C15.3794 14.1482 15.6668 14.0803 15.9583 14.0803H18.7744C19.2724 14.0803 19.7499 14.2781 20.102 14.6302C20.4541 14.9823 20.6519 15.4599 20.6519 15.9578V18.774C20.6519 19.2719 20.4541 19.7494 20.102 20.1015C19.7499 20.4536 19.2724 20.6514 18.7744 20.6514C14.2931 20.6514 9.99526 18.8712 6.82646 15.7024C3.65766 12.5336 1.87744 8.23576 1.87744 3.7544C1.87744 3.25647 2.07524 2.77893 2.42733 2.42684C2.77942 2.07475 3.25696 1.87695 3.75489 1.87695H6.57105C7.06898 1.87695 7.54652 2.07475 7.89861 2.42684C8.2507 2.77893 8.4485 3.25647 8.4485 3.7544V6.57056C8.4485 6.86203 8.38064 7.14949 8.25029 7.41018C8.11994 7.67088 7.93069 7.89764 7.69752 8.07252L7.2582 8.40201C7.08586 8.5336 6.9644 8.72079 6.91443 8.93178C6.86446 9.14277 6.88908 9.36456 6.98409 9.55946C8.26702 12.1652 10.377 14.2726 12.9844 15.5523Z" stroke="white" stroke-width="1.87744" stroke-linecap="round" stroke-linejoin="round" />
    </g>
    <defs>
        <clipPath id="clip0_27_1157">
            <rect width="22.5293" height="22.5293" fill="white" />
        </clipPath>
    </defs>
</svg>
