<svg width="28" height="28" viewBox="0 0 28 28" fill="none" xmlns="http://www.w3.org/2000/svg">
  <path d="M13.8154 8.05859V24.177" stroke="#223F7F" stroke-width="2.30263" stroke-linecap="round" stroke-linejoin="round"/>
  <path d="M3.45307 20.7229C3.14773 20.7229 2.85488 20.6016 2.63897 20.3857C2.42306 20.1697 2.30176 19.8769 2.30176 19.5715V4.60444C2.30176 4.29909 2.42306 4.00625 2.63897 3.79034C2.85488 3.57442 3.14773 3.45313 3.45307 3.45312H9.20965C10.431 3.45313 11.6024 3.93832 12.4661 4.80198C13.3297 5.66563 13.8149 6.837 13.8149 8.05839C13.8149 6.837 14.3001 5.66563 15.1638 4.80198C16.0274 3.93832 17.1988 3.45313 18.4202 3.45312H24.1768C24.4821 3.45313 24.7749 3.57442 24.9909 3.79034C25.2068 4.00625 25.3281 4.29909 25.3281 4.60444V19.5715C25.3281 19.8769 25.2068 20.3857 24.9909 20.3857C24.7749 20.6016 24.4821 20.7229 24.1768 20.7229H17.2689C16.3528 20.7229 15.4743 21.0868 14.8266 21.7345C14.1788 22.3822 13.8149 23.2608 13.8149 24.1768C13.8149 23.2608 13.451 22.3822 12.8033 21.7345C12.1555 21.0868 11.277 20.7229 10.361 20.7229H3.45307Z" stroke="#223F7F" stroke-width="2.30263" stroke-linecap="round" stroke-linejoin="round"/>
</svg>
