<svg width="21" height="21" viewBox="0 0 21 21" fill="none" xmlns="http://www.w3.org/2000/svg">
    <path d="M13.9535 18.3146V16.5704C13.9535 15.6452 13.5859 14.758 12.9317 14.1038C12.2775 13.4496 11.3903 13.082 10.4651 13.082H5.23252C4.30734 13.082 3.42006 13.4496 2.76586 14.1038C2.11167 14.758 1.74414 15.6452 1.74414 16.5704V18.3146" stroke="#223F7F" stroke-width="1.74419" stroke-linecap="round" stroke-linejoin="round" />
    <path d="M13.9536 2.72656C14.7017 2.92049 15.3641 3.35732 15.8339 3.96848C16.3037 4.57964 16.5603 5.33054 16.5603 6.10331C16.5603 6.87608 16.3037 7.62698 15.8339 8.23814C15.3641 8.84931 14.7017 9.28613 13.9536 9.48006" stroke="#223F7F" stroke-width="1.74419" stroke-linecap="round" stroke-linejoin="round" />
    <path d="M19.1861 18.3145V16.5703C19.1855 15.7974 18.9283 15.0466 18.4547 14.4357C17.9812 13.8248 17.3182 13.3885 16.5698 13.1953" stroke="#223F7F" stroke-width="1.74419" stroke-linecap="round" stroke-linejoin="round" />
    <path d="M7.84873 9.59394C9.77531 9.59394 11.3371 8.03214 11.3371 6.10556C11.3371 4.17899 9.77531 2.61719 7.84873 2.61719C5.92215 2.61719 4.36035 4.17899 4.36035 6.10556C4.36035 8.03214 5.92215 9.59394 7.84873 9.59394Z" stroke="#223F7F" stroke-width="1.74419" stroke-linecap="round" stroke-linejoin="round" />
</svg>
