<svg width="32" height="32" viewBox="0 0 32 32" fill="none" xmlns="http://www.w3.org/2000/svg">
    <path d="M20.6357 17.1875L22.6557 28.5555C22.6783 28.6894 22.6595 28.8269 22.6018 28.9498C22.5442 29.0727 22.4503 29.1751 22.3329 29.2432C22.2155 29.3114 22.0801 29.342 21.9447 29.3311C21.8094 29.3202 21.6807 29.2682 21.5757 29.1822L16.8023 25.5995C16.5719 25.4273 16.292 25.3343 16.0043 25.3343C15.7167 25.3343 15.4368 25.4273 15.2063 25.5995L10.425 29.1808C10.3201 29.2667 10.1915 29.3186 10.0563 29.3296C9.92117 29.3405 9.7859 29.3099 9.66855 29.242C9.55121 29.174 9.45737 29.0719 9.39956 28.9493C9.34175 28.8266 9.32272 28.6893 9.345 28.5555L11.3637 17.1875" stroke="white" stroke-width="2.66667" stroke-linecap="round" stroke-linejoin="round" />
    <path d="M16 18.6641C20.4183 18.6641 24 15.0823 24 10.6641C24 6.24578 20.4183 2.66406 16 2.66406C11.5817 2.66406 8 6.24578 8 10.6641C8 15.0823 11.5817 18.6641 16 18.6641Z" stroke="white" stroke-width="2.66667" stroke-linecap="round" stroke-linejoin="round" />
</svg>
