<svg width="23" height="23" viewBox="0 0 23 23" fill="none" xmlns="http://www.w3.org/2000/svg">
    <path d="M15.0191 19.7183V17.8408C15.0191 16.845 14.6235 15.8899 13.9193 15.1857C13.2151 14.4815 12.26 14.0859 11.2642 14.0859H5.63184C4.63598 14.0859 3.68091 14.4815 2.97673 15.1857C2.27256 15.8899 1.87695 16.845 1.87695 17.8408V19.7183" stroke="#223F7F" stroke-width="1.40808" stroke-linecap="round" stroke-linejoin="round" />
    <path d="M15.0195 2.9375C15.8247 3.14624 16.5378 3.61644 17.0469 4.2743C17.5559 4.93215 17.8321 5.74042 17.8321 6.57223C17.8321 7.40404 17.5559 8.21231 17.0469 8.87017C16.5378 9.52802 15.8247 9.99822 15.0195 10.207" stroke="#223F7F" stroke-width="1.40808" stroke-linecap="round" stroke-linejoin="round" />
    <path d="M20.6521 19.7212V17.8438C20.6515 17.0118 20.3746 16.2036 19.8649 15.5461C19.3551 14.8886 18.6415 14.4189 17.8359 14.2109" stroke="#223F7F" stroke-width="1.40808" stroke-linecap="round" stroke-linejoin="round" />
    <path d="M8.44825 10.3301C10.522 10.3301 12.2031 8.64897 12.2031 6.5752C12.2031 4.50143 10.522 2.82031 8.44825 2.82031C6.37448 2.82031 4.69336 4.50143 4.69336 6.5752C4.69336 8.64897 6.37448 10.3301 8.44825 10.3301Z" stroke="#223F7F" stroke-width="1.40808" stroke-linecap="round" stroke-linejoin="round" />
</svg>
