<svg width="32" height="32" viewBox="0 0 32 32" fill="none" xmlns="http://www.w3.org/2000/svg">
    <path d="M21.0534 27.6318V25.0002C21.0534 23.6043 20.4989 22.2656 19.5118 21.2786C18.5248 20.2916 17.1861 19.7371 15.7902 19.7371H7.89548C6.49961 19.7371 5.1609 20.2916 4.17387 21.2786C3.18683 22.2656 2.63232 23.6043 2.63232 25.0002V27.6318" stroke="#223F7F" stroke-width="2.5" stroke-linecap="round" stroke-linejoin="round" />
    <path d="M21.052 4.11597C22.1806 4.40856 23.1802 5.06763 23.8937 5.98973C24.6072 6.91184 24.9944 8.04477 24.9944 9.2107C24.9944 10.3766 24.6072 11.5096 23.8937 12.4317C23.1802 13.3538 22.1806 14.0128 21.052 14.3054" stroke="#223F7F" stroke-width="2.5" stroke-linecap="round" stroke-linejoin="round" />
    <path d="M28.9466 27.6316V25.0001C28.9458 23.8339 28.5576 22.7011 27.8432 21.7794C27.1287 20.8578 26.1284 20.1995 24.9993 19.908" stroke="#223F7F" stroke-width="2.5" stroke-linecap="round" stroke-linejoin="round" />
    <path d="M11.8429 14.4738C14.7496 14.4738 17.106 12.1174 17.106 9.21067C17.106 6.30391 14.7496 3.94751 11.8429 3.94751C8.93611 3.94751 6.57971 6.30391 6.57971 9.21067C6.57971 12.1174 8.93611 14.4738 11.8429 14.4738Z" stroke="#223F7F" stroke-width="2.5" stroke-linecap="round" stroke-linejoin="round" />
</svg>
