<svg width="32" height="32" viewBox="0 0 32 32" fill="none" xmlns="http://www.w3.org/2000/svg">
    <path d="M7.89495 28.9476C7.19701 28.9476 6.52765 28.6703 6.03414 28.1768C5.54062 27.6833 5.26337 27.0139 5.26337 26.316V5.26336C5.26337 4.56542 5.54062 3.89607 6.03414 3.40255C6.52765 2.90903 7.19701 2.63178 7.89495 2.63178H18.4213C18.8378 2.6311 19.2503 2.71283 19.6351 2.87226C20.0199 3.03169 20.3694 3.26567 20.6634 3.56073L25.3844 8.28178C25.6803 8.57587 25.9149 8.92565 26.0748 9.31094C26.2347 9.69622 26.3167 10.1094 26.316 10.5265V26.316C26.316 27.0139 26.0387 27.6833 25.5452 28.1768C25.0517 28.6703 24.3824 28.9476 23.6844 28.9476H7.89495Z" stroke="#008C8C" stroke-width="2.63158" stroke-linecap="round" stroke-linejoin="round" />
    <path d="M18.4216 2.63177V9.21072C18.4216 9.55969 18.5602 9.89437 18.807 10.1411C19.0537 10.3879 19.3884 10.5265 19.7374 10.5265H26.3163" stroke="#008C8C" stroke-width="2.63158" stroke-linecap="round" stroke-linejoin="round" />
    <path d="M13.1584 11.8426H10.5269" stroke="#008C8C" stroke-width="2.63158" stroke-linecap="round" />
    <path d="M21.0532 17.1056H10.5269" stroke="#008C8C" stroke-width="2.63158" stroke-linecap="round" />
    <path d="M21.0532 22.3686H10.5269" stroke="#008C8C" stroke-width="2.63158" stroke-linecap="round" />
</svg>
