<svg width="32" height="32" viewBox="0 0 32 32" fill="none" xmlns="http://www.w3.org/2000/svg">
    <path d="M26.2924 17.0908C26.2924 23.6641 21.6911 26.9508 16.2221 28.8571C15.9357 28.9541 15.6246 28.9495 15.3413 28.8439C9.85914 26.9508 5.25781 23.6641 5.25781 17.0908V7.88816C5.25781 7.53949 5.39632 7.2051 5.64287 6.95855C5.88942 6.712 6.22381 6.57349 6.57248 6.57349C9.20181 6.57349 12.4885 4.99589 14.776 2.9976C15.0545 2.75965 15.4088 2.62891 15.7751 2.62891C16.1415 2.62891 16.4958 2.75965 16.7743 2.9976C19.0749 5.00904 22.3485 6.57349 24.9778 6.57349C25.3265 6.57349 25.6608 6.712 25.9074 6.95855C26.1539 7.2051 26.2924 7.53949 26.2924 7.88816V17.0908Z" stroke="#223F7F" stroke-width="2.6" stroke-linecap="round" stroke-linejoin="round"/>
</svg>
