<svg width="35" height="33" viewBox="0 0 35 33" fill="none" xmlns="http://www.w3.org/2000/svg">
    <path d="M5.29129 15.0072C5.19001 14.7344 5.19001 14.4343 5.29129 14.1614C6.27773 11.7696 7.95216 9.72447 10.1023 8.28541C12.2524 6.84635 14.7815 6.07812 17.3687 6.07812C19.956 6.07812 22.485 6.84635 24.6351 8.28541C26.7853 9.72447 28.4597 11.7696 29.4462 14.1614C29.5474 14.4343 29.5474 14.7344 29.4462 15.0072C28.4597 17.3991 26.7853 19.4442 24.6351 20.8832C22.485 22.3223 19.956 23.0905 17.3687 23.0905C14.7815 23.0905 12.2524 22.3223 10.1023 20.8832C7.95216 19.4442 6.27773 17.3991 5.29129 15.0072Z" stroke="white" stroke-width="2.43056" stroke-linecap="round" stroke-linejoin="round"/>
    <path d="M17.369 18.2272C19.3825 18.2272 21.0148 16.5949 21.0148 14.5814C21.0148 12.5678 19.3825 10.9355 17.369 10.9355C15.3554 10.9355 13.7231 12.5678 13.7231 14.5814C13.7231 16.5949 15.3554 18.2272 17.369 18.2272Z" stroke="white" stroke-width="2.43056" stroke-linecap="round" stroke-linejoin="round"/>
</svg>
