<svg width="24" height="24" viewBox="0 0 24 24" fill="none" xmlns="http://www.w3.org/2000/svg">
    <path d="M5.92071 21.7102C5.39725 21.7102 4.89524 21.5023 4.5251 21.1322C4.15496 20.762 3.94702 20.26 3.94702 19.7365V3.94708C3.94702 3.42362 4.15496 2.92161 4.5251 2.55147C4.89524 2.18133 5.39725 1.97339 5.92071 1.97339H13.8154C14.1278 1.97289 14.4372 2.03418 14.7258 2.15376C15.0144 2.27333 15.2765 2.44881 15.497 2.6701L19.0378 6.21089C19.2597 6.43146 19.4357 6.6938 19.5556 6.98276C19.6755 7.27172 19.737 7.58158 19.7365 7.89444V19.7365C19.7365 20.26 19.5286 20.762 19.1584 21.1322C18.7883 21.5023 18.2863 21.7102 17.7628 21.7102H5.92071Z" stroke="white" stroke-width="2" stroke-linecap="round" stroke-linejoin="round" />
    <path d="M13.8154 1.97339V6.9076C13.8154 7.16933 13.9194 7.42033 14.1045 7.6054C14.2895 7.79047 14.5405 7.89444 14.8023 7.89444H19.7365" stroke="white" stroke-width="2" stroke-linecap="round" stroke-linejoin="round" />
</svg>
