<svg width="24" height="24" viewBox="0 0 24 24" fill="none" xmlns="http://www.w3.org/2000/svg">
    <path d="M13.9995 2V8C13.9993 8.33548 14.0836 8.66561 14.2445 8.96L19.7545 19.04C19.9212 19.3446 20.0056 19.6874 19.9997 20.0345C19.9937 20.3817 19.8974 20.7213 19.7203 21.02C19.5432 21.3187 19.2914 21.5661 18.9897 21.7379C18.688 21.9098 18.3467 22.0001 17.9995 22H5.99949C5.65226 22.0001 5.311 21.9098 5.00928 21.7379C4.70755 21.5661 4.45576 21.3187 4.27868 21.02C4.10159 20.7213 4.00532 20.3817 3.99932 20.0345C3.99333 19.6874 4.07782 19.3446 4.24449 19.04L9.75449 8.96C9.91538 8.66561 9.99963 8.33548 9.99949 8V2" stroke="#223F7F" stroke-width="1.5" stroke-linecap="round" stroke-linejoin="round" />
    <path d="M6.45312 15.0078H17.5471" stroke="#223F7F" stroke-width="1.5" stroke-linecap="round" stroke-linejoin="round" />
    <path d="M8.5 2H15.5" stroke="#223F7F" stroke-width="1.5" stroke-linecap="round" stroke-linejoin="round" />
</svg>
