<svg width="23" height="23" viewBox="0 0 23 23" fill="none" xmlns="http://www.w3.org/2000/svg">
    <path d="M3.7554 13.1421C3.57776 13.1427 3.4036 13.0929 3.25314 12.9985C3.10268 12.904 2.98211 12.7688 2.90543 12.6086C2.82876 12.4484 2.79912 12.2697 2.81996 12.0932C2.84081 11.9168 2.91128 11.7499 3.0232 11.612L12.3165 2.03703C12.3863 1.95656 12.4813 1.90219 12.5859 1.88283C12.6906 1.86347 12.7988 1.88027 12.8927 1.93049C12.9865 1.9807 13.0606 2.06134 13.1026 2.15916C13.1446 2.25699 13.1521 2.36619 13.1238 2.46884L11.3215 8.11995C11.2684 8.26219 11.2505 8.41519 11.2695 8.56585C11.2885 8.7165 11.3437 8.8603 11.4305 8.98491C11.5172 9.10952 11.6329 9.21123 11.7677 9.2813C11.9024 9.35137 12.0521 9.38772 12.2039 9.38722H18.775C18.9526 9.38662 19.1268 9.43643 19.2772 9.53087C19.4277 9.62531 19.5482 9.7605 19.6249 9.92074C19.7016 10.081 19.7312 10.2597 19.7104 10.4361C19.6895 10.6125 19.6191 10.7794 19.5072 10.9173L10.2138 20.4923C10.1441 20.5728 10.0491 20.6271 9.94441 20.6465C9.83973 20.6659 9.73157 20.6491 9.63769 20.5988C9.54381 20.5486 9.46979 20.468 9.42778 20.3702C9.38578 20.2723 9.37827 20.1631 9.40651 20.0605L11.2089 14.4094C11.262 14.2671 11.2798 14.1141 11.2609 13.9635C11.2419 13.8128 11.1866 13.669 11.0999 13.5444C11.0131 13.4198 10.8974 13.3181 10.7627 13.248C10.628 13.178 10.4783 13.1416 10.3265 13.1421H3.7554Z" stroke="#223F7F" stroke-width="1.40808" stroke-linecap="round" stroke-linejoin="round" />
</svg>
