<svg width="23" height="23" viewBox="0 0 23 23" fill="none" xmlns="http://www.w3.org/2000/svg">
    <path d="M11.2646 6.57031V19.7124" stroke="white" stroke-width="1.87744" stroke-linecap="round" stroke-linejoin="round" />
    <path d="M2.81616 16.8972C2.5672 16.8972 2.32843 16.7983 2.15239 16.6223C1.97634 16.4463 1.87744 16.2075 1.87744 15.9585V3.75513C1.87744 3.50616 1.97634 3.2674 2.15239 3.09135C2.32843 2.91531 2.5672 2.81641 2.81616 2.81641H7.50978C8.50563 2.81641 9.4607 3.21201 10.1649 3.91619C10.8691 4.62037 11.2647 5.57544 11.2647 6.5713C11.2647 5.57544 11.6603 4.62037 12.3644 3.91619C13.0686 3.21201 14.0237 2.81641 15.0196 2.81641H19.7132C19.9621 2.81641 20.2009 2.91531 20.3769 3.09135C20.553 3.2674 20.6519 3.50616 20.6519 3.75513V15.9585C20.6519 16.2075 20.553 16.4463 20.3769 16.6223C20.2009 16.7983 19.9621 16.8972 19.7132 16.8972H14.0808C13.3339 16.8972 12.6176 17.1939 12.0895 17.7221C11.5614 18.2502 11.2647 18.9665 11.2647 19.7134C11.2647 18.9665 10.968 18.2502 10.4398 17.7221C9.91169 17.1939 9.19539 16.8972 8.4485 16.8972H2.81616Z" stroke="white" stroke-width="1.87744" stroke-linecap="round" stroke-linejoin="round" />
</svg>
