<svg width="28" height="28" viewBox="0 0 28 28" fill="none" xmlns="http://www.w3.org/2000/svg">
  <path d="M13.8164 11.5117H13.8281" stroke="#223F7F" stroke-width="2.30263" stroke-linecap="round" stroke-linejoin="round"/>
  <path d="M13.8164 16.1191H13.8281" stroke="#223F7F" stroke-width="2.30263" stroke-linecap="round" stroke-linejoin="round"/>
  <path d="M13.8164 6.90625H13.8281" stroke="#223F7F" stroke-width="2.30263" stroke-linecap="round" stroke-linejoin="round"/>
  <path d="M18.4219 11.5117H18.4335" stroke="#223F7F" stroke-width="2.30263" stroke-linecap="round" stroke-linejoin="round"/>
  <path d="M18.4219 16.1191H18.4335" stroke="#223F7F" stroke-width="2.30263" stroke-linecap="round" stroke-linejoin="round"/>
  <path d="M18.4219 6.90625H18.4335" stroke="#223F7F" stroke-width="2.30263" stroke-linecap="round" stroke-linejoin="round"/>
  <path d="M9.21094 11.5117H9.2226" stroke="#223F7F" stroke-width="2.30263" stroke-linecap="round" stroke-linejoin="round"/>
  <path d="M9.21094 16.1191H9.2226" stroke="#223F7F" stroke-width="2.30263" stroke-linecap="round" stroke-linejoin="round"/>
  <path d="M9.21094 6.90625H9.2226" stroke="#223F7F" stroke-width="2.30263" stroke-linecap="round" stroke-linejoin="round"/>
  <path d="M10.3623 25.3279V21.874C10.3623 21.5686 10.4836 21.2758 10.6995 21.0599C10.9154 20.844 11.2083 20.7227 11.5136 20.7227H16.1189C16.4242 20.7227 16.7171 20.844 16.933 21.0599C17.1489 21.2758 17.2702 21.5686 17.2702 21.874V25.3279" stroke="#223F7F" stroke-width="2.30263" stroke-linecap="round" stroke-linejoin="round"/>
  <path d="M20.7239 2.30273H6.9081C5.63639 2.30273 4.60547 3.33366 4.60547 4.60537V23.0264C4.60547 24.2981 5.63639 25.329 6.9081 25.329H20.7239C21.9956 25.329 23.0265 24.2981 23.0265 23.0264V4.60537C23.0265 3.33366 21.9956 2.30273 20.7239 2.30273Z" stroke="#223F7F" stroke-width="2.30263" stroke-linecap="round" stroke-linejoin="round"/>
</svg>
