<svg width="25" height="25" viewBox="0 0 25 25" fill="none" xmlns="http://www.w3.org/2000/svg">
    <path d="M16.6673 21.875V19.7917C16.6673 18.6866 16.2283 17.6268 15.4469 16.8454C14.6655 16.064 13.6057 15.625 12.5007 15.625H6.25065C5.14558 15.625 4.08577 16.064 3.30437 16.8454C2.52297 17.6268 2.08398 18.6866 2.08398 19.7917V21.875" stroke="white" stroke-width="2.08333" stroke-linecap="round" stroke-linejoin="round" />
    <path d="M16.666 3.26172C17.5595 3.49335 18.3508 4.01512 18.9157 4.74512C19.4806 5.47512 19.7871 6.37202 19.7871 7.29505C19.7871 8.21808 19.4806 9.11499 18.9157 9.84499C18.3508 10.575 17.5595 11.0968 16.666 11.3284" stroke="white" stroke-width="2.08333" stroke-linecap="round" stroke-linejoin="round" />
    <path d="M22.916 21.8763V19.793C22.9153 18.8698 22.6081 17.9729 22.0424 17.2433C21.4768 16.5137 20.6849 15.9925 19.791 15.7617" stroke="white" stroke-width="2.08333" stroke-linecap="round" stroke-linejoin="round" />
    <path d="M9.37565 11.4583C11.6768 11.4583 13.5423 9.59285 13.5423 7.29167C13.5423 4.99048 11.6768 3.125 9.37565 3.125C7.07446 3.125 5.20898 4.99048 5.20898 7.29167C5.20898 9.59285 7.07446 11.4583 9.37565 11.4583Z" stroke="white" stroke-width="2.08333" stroke-linecap="round" stroke-linejoin="round" />
</svg>
