<svg width="23" height="23" viewBox="0 0 23 23" fill="none" xmlns="http://www.w3.org/2000/svg">
    <path d="M1.87793 8.92032C1.87795 7.87571 2.19484 6.85568 2.78674 5.99495C3.37864 5.13422 4.21771 4.47328 5.19313 4.09942C6.16855 3.72557 7.23443 3.65639 8.24999 3.90102C9.26555 4.14565 10.183 4.69258 10.8812 5.46958C10.9304 5.52216 10.9898 5.56408 11.0559 5.59274C11.1219 5.6214 11.1932 5.63619 11.2652 5.63619C11.3371 5.63619 11.4084 5.6214 11.4744 5.59274C11.5405 5.56408 11.5999 5.52216 11.6491 5.46958C12.3451 4.68753 13.2628 4.136 14.28 3.8884C15.2972 3.6408 16.3657 3.70886 17.3433 4.08354C18.3208 4.45822 19.1611 5.12174 19.7522 5.98579C20.3434 6.84983 20.6574 7.87342 20.6524 8.92032C20.6524 11.07 19.2443 12.6752 17.8362 14.0833L12.6807 19.0707C12.5058 19.2716 12.2902 19.433 12.0481 19.5441C11.806 19.6553 11.5431 19.7136 11.2767 19.7153C11.0103 19.717 10.7466 19.662 10.5032 19.5539C10.2597 19.4459 10.042 19.2872 9.86458 19.0886L4.6941 14.0833C3.28601 12.6752 1.87793 11.0794 1.87793 8.92032Z" stroke="#223F7F" stroke-width="1.40808" stroke-linecap="round" stroke-linejoin="round" />
</svg>
