<svg width="19" height="19" viewBox="0 0 19 19" fill="none" xmlns="http://www.w3.org/2000/svg">
    <path d="M9.84555 2.02286C9.55221 1.72943 9.15433 1.56454 8.73942 1.56445H3.12899C2.71405 1.56445 2.3161 1.72929 2.0227 2.0227C1.72929 2.3161 1.56445 2.71405 1.56445 3.12899V8.73942C1.56454 9.15433 1.72943 9.55221 2.02286 9.84555L8.83173 16.6544C9.18728 17.0077 9.66817 17.206 10.1694 17.206C10.6706 17.206 11.1515 17.0077 11.5071 16.6544L16.6544 11.5071C17.0077 11.1515 17.206 10.6706 17.206 10.1694C17.206 9.66817 17.0077 9.18728 16.6544 8.83173L9.84555 2.02286Z" stroke="#191919" stroke-opacity="0.75" stroke-width="1.56454" stroke-linecap="round" stroke-linejoin="round"/>
    <circle cx="5.86819" cy="5.8677" r="0.391135" fill="#191919" fill-opacity="0.75" stroke="#191919" stroke-opacity="0.75" stroke-width="1.56454" stroke-linecap="round" stroke-linejoin="round"/>
</svg>
