<svg width="23" height="23" viewBox="0 0 23 23" fill="none" xmlns="http://www.w3.org/2000/svg">
    <path d="M15.9588 9.38478C16.6159 8.72767 17.5452 9.38478 18.3056 9.38478C18.928 9.38478 19.5249 9.13753 19.965 8.69742C20.4051 8.2573 20.6524 7.66038 20.6524 7.03797C20.6524 6.41556 20.4051 5.81864 19.965 5.37853C19.5249 4.93842 18.928 4.69117 18.3056 4.69117C18.1811 4.69117 18.0617 4.64172 17.9737 4.55369C17.8857 4.46567 17.8362 4.34629 17.8362 4.22181C17.8362 3.59939 17.589 3.00247 17.1488 2.56236C16.7087 2.12225 16.1118 1.875 15.4894 1.875" stroke="#223F7F" stroke-width="1.40808" stroke-linecap="round" stroke-linejoin="round" />
    <path d="M13.1426 6.56861L6.57154 13.1397C5.91444 13.7968 4.9851 13.1397 4.22474 13.1397C3.60232 13.1397 3.0054 13.3869 2.56529 13.827C2.12518 14.2671 1.87793 14.8641 1.87793 15.4865" stroke="#223F7F" stroke-width="1.40808" stroke-linecap="round" stroke-linejoin="round" />
</svg>
