<svg width="31" height="31" viewBox="0 0 31 31" fill="none" xmlns="http://www.w3.org/2000/svg">
<path d="M0 15.134C0 6.77572 6.77572 0 15.134 0C23.4923 0 30.268 6.77572 30.268 15.134C30.268 23.4923 23.4923 30.268 15.134 30.268C6.77572 30.268 0 23.4923 0 15.134Z" fill="#223F7F"/>
<g clip-path="url(#clip0_752_2103)">
<path d="M17.4041 12.8652C18.3072 12.8652 19.1733 13.224 19.8119 13.8626C20.4504 14.5012 20.8092 15.3673 20.8092 16.2704V20.2431H18.5391V16.2704C18.5391 15.9694 18.4195 15.6806 18.2067 15.4678C17.9938 15.2549 17.7051 15.1353 17.4041 15.1353C17.103 15.1353 16.8143 15.2549 16.6014 15.4678C16.3886 15.6806 16.269 15.9694 16.269 16.2704V20.2431H13.9989V16.2704C13.9989 15.3673 14.3577 14.5012 14.9962 13.8626C15.6348 13.224 16.5009 12.8652 17.4041 12.8652Z" stroke="white" stroke-linecap="round" stroke-linejoin="round"/>
<path d="M11.7288 13.4336H9.45874V20.2439H11.7288V13.4336Z" stroke="white" stroke-linecap="round" stroke-linejoin="round"/>
<path d="M10.5938 11.731C11.2207 11.731 11.7288 11.2229 11.7288 10.596C11.7288 9.96912 11.2207 9.46094 10.5938 9.46094C9.96692 9.46094 9.45874 9.96912 9.45874 10.596C9.45874 11.2229 9.96692 11.731 10.5938 11.731Z" stroke="white" stroke-linecap="round" stroke-linejoin="round"/>
</g>
<defs>
<clipPath id="clip0_752_2103">
<rect width="13.6206" height="13.6206" fill="white" transform="translate(8.32373 8.32422)"/>
</clipPath>
</defs>
</svg>
