<svg width="31" height="31" viewBox="0 0 31 31" fill="none" xmlns="http://www.w3.org/2000/svg">
<path d="M0 6.0536C0 2.71029 2.71029 0 6.0536 0H24.2144C27.5577 0 30.268 2.71029 30.268 6.0536V24.2144C30.268 27.5577 27.5577 30.268 24.2144 30.268H6.0536C2.71029 30.268 0 27.5577 0 24.2144V6.0536Z" fill="white"/>
<g clip-path="url(#clip0_752_2207)">
<path d="M21.4399 11.9805L15.7703 15.5918C15.5779 15.7036 15.3594 15.7624 15.1369 15.7624C14.9144 15.7624 14.6959 15.7036 14.5035 15.5918L8.82825 11.9805" stroke="#223F7F" stroke-width="1.26117" stroke-linecap="round" stroke-linejoin="round"/>
<path d="M20.1787 10.0879H10.0894C9.39289 10.0879 8.82825 10.6525 8.82825 11.3491V18.9161C8.82825 19.6126 9.39289 20.1772 10.0894 20.1772H20.1787C20.8753 20.1772 21.4399 19.6126 21.4399 18.9161V11.3491C21.4399 10.6525 20.8753 10.0879 20.1787 10.0879Z" stroke="#223F7F" stroke-width="1.26117" stroke-linecap="round" stroke-linejoin="round"/>
</g>
<defs>
<clipPath id="clip0_752_2207">
<rect width="15.134" height="15.134" fill="white" transform="translate(7.56702 7.56641)"/>
</clipPath>
</defs>
</svg>
