<svg width="32" height="32" viewBox="0 0 32 32" fill="none" xmlns="http://www.w3.org/2000/svg">
    <path class="transition-all duration-700" d="M28.1838 14.3709C28.4336 14.2671 28.6479 14.0963 28.8016 13.8799C28.9553 13.6635 29.0425 13.4109 29.0399 13.1535C29.0373 12.8961 28.9449 12.6451 28.7867 12.4317C28.6285 12.2184 28.4111 12.0515 28.1589 11.9526L16.8811 6.81572C16.5384 6.65933 16.1659 6.57839 15.7891 6.57839C15.4122 6.57839 15.0397 6.65933 14.697 6.81572L3.41924 11.9469C3.17213 12.0499 2.95856 12.2184 2.80005 12.4326C2.64154 12.6468 2.54417 12.8989 2.54417 13.1574C2.54417 13.4159 2.64154 13.668 2.80005 13.8822C2.95856 14.0964 3.17213 14.2649 3.41924 14.3679L14.697 19.5142C15.0397 19.6706 15.4122 19.7515 15.7891 19.7515C16.1659 19.7515 16.5384 19.6706 16.8811 19.5142L28.1838 14.3709Z" stroke="#C0392B" stroke-width="2.63157" stroke-linecap="round" stroke-linejoin="round"/>
    <path class="transition-all duration-700" d="M29.0471 13.1579V21.0527" stroke="#C0392B" stroke-width="2.63157" stroke-linecap="round" stroke-linejoin="round"/>
    <path class="transition-all duration-700" d="M7.89209 16.4469V21.0522C7.89209 22.0992 8.72672 23.1032 10.2072 23.8434C11.6877 24.5837 13.6958 25 15.7891 25C17.8824 25 19.8905 24.5837 21.371 23.8434C22.8515 23.1032 23.6861 22.0992 23.6861 21.0522V16.4469" stroke="#C0392B" stroke-width="2.63157" stroke-linecap="round" stroke-linejoin="round"/>
</svg>
