<svg width="20" height="20" viewBox="-1 -1 22 22" fill="none" xmlns="http://www.w3.org/2000/svg">
    <path d="M11.3748 13.6248C11.5446 13.7028 11.736 13.7206 11.9173 13.6753C12.0986 13.63 12.2591 13.5243 12.3723 13.3756L12.6643 12.9932C12.8175 12.7889 13.0161 12.6232 13.2445 12.509C13.4729 12.3948 13.7247 12.3353 13.9801 12.3353H16.4472C16.8834 12.3353 17.3017 12.5086 17.6102 12.8171C17.9186 13.1255 18.0919 13.5438 18.0919 13.9801V16.4472C18.0919 16.8834 17.9186 17.3017 17.6102 17.6102C17.3017 17.9186 16.8834 18.0919 16.4472 18.0919C12.5213 18.0919 8.75616 16.5323 5.98013 13.7563C3.20409 10.9803 1.64454 7.21517 1.64454 3.28927C1.64454 2.85306 1.81782 2.43471 2.12627 2.12626C2.43472 1.81782 2.85306 1.64453 3.28927 1.64453H5.75638C6.19259 1.64453 6.61093 1.81782 6.91938 2.12626C7.22783 2.43471 7.40111 2.85306 7.40111 3.28927V5.75637C7.40111 6.01171 7.34167 6.26354 7.22747 6.49192C7.11328 6.7203 6.94749 6.91896 6.74322 7.07216L6.35835 7.36081C6.20738 7.47609 6.10097 7.64008 6.05719 7.82492C6.01342 8.00976 6.03498 8.20405 6.11822 8.37479C7.24213 10.6576 9.09061 12.5037 11.3748 13.6248Z" stroke="#191919" stroke-width="1.64474" stroke-linecap="round" stroke-linejoin="round"/>
</svg>
