<svg width="18" height="18" viewBox="0 0 18 18" fill="none" xmlns="http://www.w3.org/2000/svg">
<path d="M11.8423 15.5424V14.0621C11.8423 13.2769 11.5304 12.5239 10.9752 11.9687C10.42 11.4135 9.66696 11.1016 8.88178 11.1016H4.44099C3.65581 11.1016 2.90279 11.4135 2.34759 11.9687C1.79238 12.5239 1.48047 13.2769 1.48047 14.0621V15.5424" stroke="#191919" stroke-opacity="0.75" stroke-width="1.48026" stroke-linecap="round" stroke-linejoin="round"/>
<path d="M11.8423 2.31543C12.4771 2.48001 13.0394 2.85074 13.4407 3.36942C13.8421 3.88811 14.0599 4.52538 14.0599 5.18122C14.0599 5.83706 13.8421 6.47433 13.4407 6.99302C13.0394 7.5117 12.4771 7.88243 11.8423 8.04701" stroke="#191919" stroke-opacity="0.75" stroke-width="1.48026" stroke-linecap="round" stroke-linejoin="round"/>
<path d="M16.2834 15.5428V14.0626C16.2829 13.4066 16.0646 12.7694 15.6627 12.2509C15.2608 11.7325 14.6981 11.3622 14.063 11.1982" stroke="#191919" stroke-opacity="0.75" stroke-width="1.48026" stroke-linecap="round" stroke-linejoin="round"/>
<path d="M6.6617 8.14176C8.29675 8.14176 9.62222 6.81628 9.62222 5.18123C9.62222 3.54618 8.29675 2.2207 6.6617 2.2207C5.02664 2.2207 3.70117 3.54618 3.70117 5.18123C3.70117 6.81628 5.02664 8.14176 6.6617 8.14176Z" stroke="#191919" stroke-opacity="0.75" stroke-width="1.48026" stroke-linecap="round" stroke-linejoin="round"/>
</svg>
