<svg width="31" height="31" viewBox="0 0 31 31" fill="none" xmlns="http://www.w3.org/2000/svg">
<path d="M0 15.134C0 6.77572 6.77572 0 15.134 0C23.4923 0 30.268 6.77572 30.268 15.134C30.268 23.4923 23.4923 30.268 15.134 30.268C6.77572 30.268 0 23.4923 0 15.134Z" fill="#223F7F"/>
<path d="M20.8092 10.5943C20.8092 10.5943 20.412 11.7861 19.6742 12.5239C20.5822 18.1991 14.3395 22.3421 9.45874 19.1072C10.7073 19.1639 11.9559 18.7667 12.8639 17.9721C10.0263 17.1208 8.60745 13.7724 10.0263 11.1618C11.2748 12.6374 13.2044 13.4887 15.134 13.4319C14.6232 11.0483 17.4041 9.68625 19.1067 11.2753C19.7309 11.2753 20.8092 10.5943 20.8092 10.5943Z" stroke="white" stroke-linecap="round" stroke-linejoin="round"/>
</svg>
